<svg id="Layer_1" data-name="Layer 1" xmlns="http://www.w3.org/2000/svg" viewBox="0 0 1778.65 785.05"><defs><style>.cls-1{fill:#070906;}.cls-2{fill:#91cd8a;}</style></defs><path class="cls-1" d="M480.27,933.53c-92.79-.46-175.28.31-257.77-.47-15.43-.14-30.56-1.72-45.13-6.67q-47.58-16.17-74.54-58.77a132,132,0,0,1-19.41-50.33c-2-12.78-2-26-2-39-.1-78.31-.61-156.63.36-234.94.52-41.8,16.55-76.23,47.37-103.48,23.13-20.46,50.88-31.69,81.88-33.82,30.28-2.08,60.64-.81,91-1a9.06,9.06,0,0,0,6.85-2.82c26.58-24.57,53.2-49.23,88.56-61,34.63-11.52,70.25-14.84,106.52-11.66,25.71,2.25,50.82,6.87,73.89,19.28,25.08,13.48,46.26,31.93,65.93,52.23,16.42,16.94,31.48,35,40.89,56.9,20,46.44,15.14,90.93-13.27,132.34-22.58,32.92-51.46,59.72-85.24,81.1-20.23,12.8-42.75,19.05-66.22,22.25C481,699,442.56,697,404.63,686.1,375.87,677.83,352.22,661.19,330,642c-7.05-6.11-14.06-12.28-20.87-18.65-2.39-2.24-4.38-2.39-7-.82-5.84,3.47-9.52,8.74-12.28,14.73a56.38,56.38,0,0,0-5,18.72,209.4,209.4,0,0,0-.11,35.94c1,11.82,6.58,21.13,15.34,28.74,12.45,10.82,27.41,14.39,43.43,15.25,54.08,2.93,108.19,4.88,162.3,7.09,33.46,1.37,66.93,2.69,100.41,3.5,15.53.37,30.14-1.9,43.39-10.59C666.77,724.66,676.5,708.79,681,689c7.65-34,12.8-68.37,17-102.91,6.36-52.28,10.28-104.76,12.52-157.37q2.12-49.71,1.6-99.45c-.35-30.48-25.55-53.94-54.49-54.44-78.49-1.35-157-.69-235.46-.77-55-.06-110-1.22-165,1.1-35.12,1.48-60.77,19.46-76.26,50.67-11.68,23.54-20.14,48.54-29.9,72.94-5.68,14.18-14.46,23.2-30.41,25.7-10.32,1.62-19.47.66-27.79-4.92-6.5-4.35-10.08-10.76-10.42-19.19-1.54-37.14-.89-74.29-1-111.44a135.55,135.55,0,0,1,11.48-55.76c14.49-33,38.2-57.15,71.1-72A136.22,136.22,0,0,1,208.12,150c22.61-2,45.26-1.38,67.89-1.4q220-.15,440-.06c25.44,0,50.16,3.73,72.9,15.7,38.81,20.42,63.59,51.85,73.22,94.93a166.82,166.82,0,0,1,4,36.43q.09,209.22.11,418.42,0,37.25-.27,74.49c-.24,26.09-5.51,51-18.74,73.78a140.87,140.87,0,0,1-72.44,62,107.88,107.88,0,0,1-34.86,7.55C649.9,935.42,559.92,932.15,480.27,933.53Zm-7.1-9.72v.33q105.49,0,211,0c18.33,0,36.66.34,55-1.22,58.71-5,108.68-52.94,115.91-111.34,2.73-22.07,1.91-44.26,1.92-66.41q.15-214.7,0-429.41c0-12.32.14-24.65-1-37-3.42-37.58-19.55-68.46-48.93-92.12-25.45-20.51-55.15-28.76-87.43-28.77q-224.47,0-448.94,0c-20.16,0-40.33-.47-60.46,1.1C149,163.79,98.65,212.61,92,273.58c-2.49,22.94-1.37,45.95-1.38,68.92,0,19.15-.51,38.34,1.27,57.44.76,8.23,6.06,13.65,14.34,14.91,14.3,2.18,28.59,1,36.33-19.76,7.89-21.2,16.78-42,25.28-63,10.48-25.88,27.43-46,53.18-57.61,15.23-6.87,31.53-9.09,48.22-9.22,117-.88,234-.58,351-.19,16.95.06,34-.9,50.8,2.6,25.34,5.28,40.9,21,47.9,45.51,3.85,13.49,2.71,27.47,2.61,41.26a2070.41,2070.41,0,0,1-14.72,235.32c-4.27,35.06-9.49,70-17.69,104.38-5.68,23.79-19.19,41.34-40.54,53-14.11,7.74-29.41,9-45.07,8.51-82.78-2.44-165.5-6.09-248.22-9.91-14.24-.65-28.7-.65-42.18-6.6-21.26-9.39-35.86-24-37.73-48.41a225.22,225.22,0,0,1,0-33c.7-9.91,3-19.42,7.95-28.14,4.81-8.54,11.24-15.2,21.13-17.87,3-.82,5.18-.5,7.6,1.74,8.32,7.68,16.83,15.16,25.41,22.57,20.55,17.75,42.46,33.12,69,40.88,34.08,9.95,68.71,12.4,103.86,8.55,21.13-2.31,42-6.17,60.89-16.46a260.64,260.64,0,0,0,94-86.43c30-45.6,29.94-92.71.92-139-16.61-26.53-39.1-47.9-63.48-67.28-17-13.48-35.27-24.53-56.41-30.14-34.6-9.18-69.72-10.76-105.06-5.77-28.64,4-55.87,12.33-79.73,29.51-17.34,12.49-33.23,26.7-49,41.09a11.55,11.55,0,0,1-8.44,3.22c-30,.15-60-.75-90,.86-18.21,1-35.64,5.22-51.67,13.87C116,454.06,92.3,493.4,91.11,546c-1.34,60-.41,120-.58,180-.06,24.16-.33,48.33.73,72.48,1,23.44,7.44,45.36,20.43,65,26.75,40.39,65,60.09,113,60.29C307.53,924.06,390.35,923.81,473.17,923.81Z" transform="translate(-81.23 -148.55)"/><path class="cls-1" d="M1451.1,499.94c-38.7.42-71.49-34.4-69.89-73.07,1.55-37.6,30.69-69,73.76-68.41,41.15.59,71.89,32.11,71.24,72.33C1525.6,468.81,1493.36,501.4,1451.1,499.94Zm-52.24-71c-.07,30.83,24.7,56,55.12,56a55.73,55.73,0,0,0,55.49-55.72c-.07-31-24.51-55.81-55.22-55.95S1398.93,397.92,1398.86,428.9Z" transform="translate(-81.23 -148.55)"/><path class="cls-1" d="M1262.84,655.27c-1.89-40.39,34-71,72.61-70.47,40,.52,72,31.87,71.51,71.28-.47,39.95-31.26,72.38-78.44,70.59C1295.91,725.44,1261.24,696.24,1262.84,655.27Zm127.34.62c.14-31.16-24.13-55.92-54.91-56-31-.11-55.36,24.14-55.59,55.32-.22,30.92,24.28,56,54.9,56.11A55.27,55.27,0,0,0,1390.18,655.89Z" transform="translate(-81.23 -148.55)"/><path class="cls-1" d="M1832.19,653.09c8,0,16,.1,24-.06,2.78-.06,3.7.69,3.71,3.6,0,23.18-6.92,43.45-25.6,58.12-7,5.53-15.87,8.54-24.79,10a125,125,0,0,1-23,2.06c-12.75-.31-24.48-4.61-35-11.89-15.16-10.5-24.81-25.41-27-43.12-3-23.89-1.22-47.55,17.11-66.57a64.15,64.15,0,0,1,41-19.81c19.39-2,37.9.5,54.13,12.6,4.72,3.53,8.46,7.9,12.14,12.4,1.52,1.87,1.38,3.21-.48,4.55a3.79,3.79,0,0,0-.39.31c-3.22,2.58-6.19,6.75-9.72,7.3-3.76.58-4.93-5.16-7.54-7.87-14.46-15.05-32.24-18.18-51.48-13.4-19.57,4.85-31.47,18.48-36,37.69-5.38,22.89-2.25,44.13,16.38,60.82,23.2,20.81,72.5,16.51,81.91-24.45.08-.32.16-.65.23-1,1.32-6.8,1.32-6.8-5.54-6.8-9.49,0-19-.08-28.48,0-2.74,0-3.7-.65-3.75-3.59-.21-11-.33-11,10.78-11Z" transform="translate(-81.23 -148.55)"/><path class="cls-1" d="M1682.11,688.82v-5.3c0-30.32.06-60.65-.08-91,0-3.64.74-4.84,4.61-4.77,10.94.2,10.94,0,10.94,10.88q0,61.74,0,123.48c0,1.77.59,3.68-1.11,5.68l-97.66-105.53v5.94c0,29.83-.07,59.65.09,89.48,0,3.93-.62,5.5-5,5.37-10.5-.32-10.51-.07-10.51-10.83V582.75L1681,689.27Z" transform="translate(-81.23 -148.55)"/><path class="cls-1" d="M1155.12,429c0-20.83.1-41.66-.09-62.48,0-4,.74-5.43,5.08-5.35,14.82.27,29.66-.1,44.47.87,12.27.8,24.28,2.84,34.67,10,15,10.33,22.84,25.15,25.62,42.83a84.83,84.83,0,0,1-3.55,42.07c-6.68,18.76-19.73,31.16-38.79,36.67-6.1,1.77-12.72,2.16-19.13,2.35-14.65.43-29.32.24-44,.56-3.6.08-4.4-1.12-4.37-4.52C1155.19,471,1155.12,450,1155.12,429Zm16.36-.13v48.45c0,1.95-.51,4,2.79,3.95,12.81-.2,25.66.34,38.4-1.49,15.11-2.17,25.59-10.53,31.47-24.55s6.41-28.51,3.11-43.11c-5-22-18.86-33.55-41.37-35.06-9.47-.64-19-.71-28.44-1-4.66-.13-6.22.84-6.1,5.86C1171.71,397.56,1171.48,413.22,1171.48,428.87Z" transform="translate(-81.23 -148.55)"/><path class="cls-1" d="M1470,659.37l50.8,63.54c-7,0-13,0-19.12,0-2,0-2.74-1.45-3.71-2.72q-22.46-29.28-44.91-58.54c-.86-1.12-1.87-2.12-2.87-3.24-1.85,1.86-1.07,3.79-1.08,5.48-.06,18.16-.15,36.32.06,54.47,0,3.73-.88,4.75-4.66,4.68-11.17-.21-11.17,0-11.17-11.13,0-39.64.07-79.29-.1-118.93,0-4.15,1-5.34,5.19-5.22,11.82.33,23.66-.09,35.47.33,9.17.32,18.12,1.79,24.88,9.16,8.43,9.2,10.75,20.18,9.66,32.15-.91,10-4.61,18.6-13.7,23.9-6.51,3.8-13.8,4.85-21.22,5.24C1472.4,658.62,1471.18,658.14,1470,659.37Zm-7.06-12.73c4.29-.3,9.62-.3,14.85-1.45,9.75-2.14,14-6.72,15-16.58a40.07,40.07,0,0,0-.48-10.92c-1.43-8.18-6.18-12.94-14.21-14.68-8.7-1.9-17.52-1.49-26.33-1.64-2.84,0-2.68,1.65-2.67,3.57,0,9.64,0,19.29,0,28.93C1449,646.89,1449,646.89,1462.9,646.64Z" transform="translate(-81.23 -148.55)"/><path class="cls-1" d="M1036.6,638.71c0-15.66.08-31.32-.06-47,0-3,.66-3.92,3.82-3.94,12.53-.07,12.53-.2,12.53,12.22q0,36.5,0,73c0,6.82.64,13.56,3.07,20,2.76,7.32,7.7,12.78,15,15.6a47.46,47.46,0,0,0,33.41.56c11-3.84,16.28-12.36,18.81-23.57,2-9.07,1.66-18.06,1.71-27.11q.16-33.24,0-66.48c0-3.19.73-4.21,4.08-4.21,12.27,0,12.28-.13,12.28,11.93,0,24.66,0,49.32-.07,74-.05,12.74-2.43,24.93-10.09,35.51-6.5,9-15.66,13.84-26.36,15.62-6.94,1.15-14.06,2.28-21,2-21.64-.88-40.16-10.54-45.39-35.59-1.45-7-1.56-14-1.65-21C1036.5,659.71,1036.6,649.21,1036.6,638.71Z" transform="translate(-81.23 -148.55)"/><path class="cls-1" d="M1141.11,496.42c-5.4,0-10-.1-14.7,0-2.89.09-4.05-1.69-5-3.91q-7.2-17.64-14.36-35.28c-.71-1.76-1.91-2.3-3.84-2.29-15.66.09-31.32.14-47,0-2.72,0-3.43,1.5-4.2,3.32-4.69,11-9.54,22-13.91,33.12-1.49,3.8-3.25,5.72-7.48,5.09a49.21,49.21,0,0,0-7-.06c-5.28,0-5.66-.61-3.45-5.64,3.54-8,7.13-16,10.68-24.08,13.18-29.76,25.69-59.82,39.22-89.44,2.64-5.77,5.19-11.68,7.47-17.66.3-.78.08-2.59,1.92-2.33,1.31.19,1.15,1.37,1.53,2.24,7.89,17.87,15.86,35.7,23.7,53.59q14.93,34,29.68,68.12ZM1101.18,441l-21.35-49.32c-7.36,17-14.24,33-21.3,49.32Z" transform="translate(-81.23 -148.55)"/><path class="cls-1" d="M1638.78,428.79c0-21,.11-42-.09-63,0-3.84,1.06-4.67,4.74-4.64q31,.27,62,0c3.8,0,4.74,1,4.66,4.74-.2,10.13,0,10.14-10.08,10.14-13.66,0-27.32.09-41-.07-3.13,0-4.31.62-4.23,4,.23,10.32.2,20.66,0,31,0,3.07.81,3.94,3.91,3.91,15.66-.16,31.32,0,47-.16,3.53,0,4.44.92,4.4,4.42-.16,10.64,0,10.64-10.65,10.64-13.49,0-27,.11-40.48-.07-3.23,0-4.2.8-4.15,4.11q.27,21.74,0,43.47c0,3.21.76,4.25,4.11,4.21,15.49-.18,31,0,46.47-.17,3.71-.05,4.79.88,4.71,4.68-.22,10.37,0,10.37-10.37,10.37-18.49,0-37-.19-55.47.13-4.79.09-5.59-1.47-5.54-5.79C1638.9,470.1,1638.78,449.45,1638.78,428.79Z" transform="translate(-81.23 -148.55)"/><path class="cls-1" d="M1292.12,428.68c0-21,.07-42-.07-63,0-3.39.75-4.59,4.37-4.53,13.3.24,26.62-.27,39.89.91,18.47,1.63,29.22,12.62,31.66,31.46a40,40,0,0,1-5.89,27.05c-5.94,9.56-14.82,13.26-25.37,14.4a178,178,0,0,1-25.39.83c-3.1-.11-3.44,1.24-3.42,3.82.08,17.32-.09,34.65.14,52,.06,4-1.12,5-5,4.89-10.94-.21-11,0-11-10.88Zm15.82-30.13c0,6.49,0,13,0,19.45,0,1.75-.13,3.25,2.45,3.21,8.63-.16,17.3.29,25.79-1.82,10.34-2.56,14.65-8.25,14.77-19.43.14-12.36-4.38-19.17-14.66-21.84-8.46-2.19-17.12-2.06-25.77-2.11-2.44,0-2.6,1.22-2.59,3.1C1308,385.59,1307.94,392.07,1307.94,398.55Z" transform="translate(-81.23 -148.55)"/><path class="cls-1" d="M981.18,436.55c0,18.31-.09,36.63.08,54.94,0,3.66-.57,5.15-4.76,5.05C965,496.27,965,496.49,965,484.81c0-34.46-.05-68.92.09-103.38,0-3.62-.7-4.86-4.58-4.74-10,.3-20,0-30,.15-2.74,0-3.69-.65-3.76-3.58-.28-12-.39-12,11.76-12,25.14,0,50.28.1,75.42-.09,4,0,5.47.75,5.35,5.08-.29,10.52-.06,10.53-10.77,10.53-7.66,0-15.32.17-23-.08-3.48-.12-4.48.87-4.44,4.4C981.27,399.59,981.18,418.07,981.18,436.55Z" transform="translate(-81.23 -148.55)"/><path class="cls-1" d="M981.18,663.06c0,18.49-.08,37,.07,55.47,0,3.34-.64,4.56-4.29,4.52-12-.1-12,.06-12-11.75,0-34.31-.11-68.62.13-102.93,0-4.65-1.37-5.47-5.57-5.33-9.49.31-19,0-28.48.15-3,0-4.35-.34-4.32-3.93.07-11.38-.11-11.38,11.31-11.38,25.32,0,50.64.09,76-.09,4,0,5.44.66,5.29,5-.33,10.29-.08,10.3-10.39,10.3-7.5,0-15,.35-22.48-.13-4.72-.3-5.39,1.43-5.34,5.6C981.3,626.75,981.18,644.91,981.18,663.06Z" transform="translate(-81.23 -148.55)"/><path class="cls-1" d="M1213.06,663.16c0,18.49-.1,37,.08,55.47,0,3.49-.87,4.45-4.39,4.42-11.89-.13-11.89,0-11.89-11.85,0-34.31-.07-68.63.1-102.94,0-4.1-1-5.37-5.16-5.23-9.82.32-19.66,0-29.49.16-2.7,0-3.66-.6-3.71-3.53-.21-11.79-.32-11.78,11.39-11.78,25.49,0,51,.08,76.47-.09,3.69,0,4.77.83,4.7,4.63-.22,10.71,0,10.71-10.49,10.71-7.67,0-15.34.21-23-.09-3.71-.14-4.76.84-4.72,4.65C1213.17,626.17,1213.06,644.67,1213.06,663.16Z" transform="translate(-81.23 -148.55)"/><path class="cls-1" d="M1552.62,429c0-20.81.1-41.63-.09-62.44,0-3.91.62-5.5,5-5.37,11.14.31,11.15.07,11.15,11.41,0,34.64,0,69.27-.09,103.9,0,3.63.72,4.78,4.58,4.71,14-.26,28,0,42-.17,3.21,0,4.69.44,4.66,4.23-.09,11.18.1,11.18-11.13,11.18-17.15,0-34.3-.1-51.45.09-3.63,0-4.77-.75-4.73-4.6C1552.73,470.93,1552.62,450,1552.62,429Z" transform="translate(-81.23 -148.55)"/><path class="cls-1" d="M1550.81,655.46c0,21-.11,42,.09,62.93,0,3.8-1,4.72-4.72,4.66-11.45-.18-11.45,0-11.45-11.26,0-39.62.07-79.25-.11-118.87,0-4.18,1-5.26,5.18-5.15,11,.29,11,.08,11,11.25Z" transform="translate(-81.23 -148.55)"/><path class="cls-2" d="M473.17,923.81c-82.82,0-165.64.25-248.46-.09-48-.2-86.27-19.9-113-60.29-13-19.61-19.41-41.53-20.43-65-1.06-24.15-.79-48.32-.73-72.48.17-60-.76-120,.58-180C92.3,493.4,116,454.06,162.46,429c16-8.65,33.46-12.89,51.67-13.87,30-1.61,60-.71,90-.86a11.55,11.55,0,0,0,8.44-3.22c15.73-14.39,31.62-28.6,49-41.09,23.86-17.18,51.09-25.47,79.73-29.51,35.34-5,70.46-3.41,105.06,5.77,21.14,5.61,39.45,16.66,56.41,30.14,24.38,19.38,46.87,40.75,63.48,67.28,29,46.32,29.13,93.43-.92,139a260.64,260.64,0,0,1-94,86.43c-18.9,10.29-39.76,14.15-60.89,16.46-35.15,3.85-69.78,1.4-103.86-8.55-26.57-7.76-48.48-23.13-69-40.88-8.58-7.41-17.09-14.89-25.41-22.57-2.42-2.24-4.58-2.56-7.6-1.74-9.89,2.67-16.32,9.33-21.13,17.87-4.9,8.72-7.25,18.23-7.95,28.14a225.22,225.22,0,0,0,0,33c1.87,24.42,16.47,39,37.73,48.41,13.48,6,27.94,6,42.18,6.6,82.72,3.82,165.44,7.47,248.22,9.91,15.66.46,31-.77,45.07-8.51,21.35-11.7,34.86-29.25,40.54-53,8.2-34.42,13.42-69.32,17.69-104.38a2070.41,2070.41,0,0,0,14.72-235.32c.1-13.79,1.24-27.77-2.61-41.26-7-24.46-22.56-40.23-47.9-45.51-16.79-3.5-33.85-2.54-50.8-2.6-117-.39-234-.69-351,.19-16.69.13-33,2.35-48.22,9.22-25.75,11.63-42.7,31.73-53.18,57.61-8.5,21-17.39,41.81-25.28,63-7.74,20.8-22,21.94-36.33,19.76-8.28-1.26-13.58-6.68-14.34-14.91-1.78-19.1-1.29-38.29-1.27-57.44,0-23-1.11-46,1.38-68.92,6.63-61,57-109.79,118.2-114.57,20.13-1.57,40.3-1.09,60.46-1.1q224.46-.14,448.94,0c32.28,0,62,8.26,87.43,28.77,29.38,23.66,45.51,54.54,48.93,92.12,1.12,12.31,1,24.64,1,37q.06,214.71,0,429.41c0,22.15.81,44.34-1.92,66.41-7.23,58.4-57.2,106.31-115.91,111.34-18.3,1.56-36.63,1.2-55,1.22q-105.48.14-211,0Zm194.24-455C603.62,440,540.87,411.7,478.19,383.31a9.66,9.66,0,0,0-8.89.08Q391.06,418.81,312.75,454c-10.54,4.75-21.05,9.56-31.67,14.38,1.23,1.89,3,2.16,4.45,2.83q90.92,41,181.79,82.16c4.7,2.14,8.31,2.09,12.93,0Q555.85,519,631.61,485C643.24,479.78,654.85,474.47,667.41,468.76ZM597.69,514.2c-1.87.77-3.55,1.4-5.18,2.14q-57.35,25.83-114.66,51.75a8.47,8.47,0,0,1-7.88.09q-57.2-26-114.53-51.72c-5.59-2.51-5.62-2.51-7.12,3.58-4.79,19.54-9.44,39.12-14.43,58.6-1,3.76.05,5.07,3.35,6.62,34.18,16.13,70.46,23.93,107.86,26.66a383.77,383.77,0,0,0,95-4.76A292.69,292.69,0,0,0,610.77,585c2.27-1,4-1.87,3.18-5.07C608.47,558.19,603.15,536.38,597.69,514.2ZM572.92,793.66c-2.07.91-3.58,1.55-5.07,2.22q-39.17,17.63-78.3,35.32c-2.5,1.13-4,1.58-6.14-1.1a11.89,11.89,0,0,0-18.72-.13c-2.19,2.68-3.65,2.6-6.48,1.31-26.18-11.94-52.43-23.7-78.66-35.53-5.3-2.39-5.29-2.42-5.29,3.61q0,39.24,0,78.47c0,6,0,6,5.67,3.47Q419,863.65,458.15,846c2.68-1.22,4.63-1.88,7.19.94,4.79,5.27,12.36,5.21,17.3.05,2.13-2.22,3.59-2.46,6.29-1.22,15.24,7,30.57,13.91,45.89,20.81,12.54,5.66,25.1,11.29,38.1,17.13ZM290.86,568.08a8.54,8.54,0,0,0-8.79-8.23,8.36,8.36,0,0,0-8.19,8.75,8.54,8.54,0,0,0,8.69,8.32A8.82,8.82,0,0,0,290.86,568.08Zm-10-51.56c0,10.47,0,21,0,31.42,0,1.35-.53,3.34,1.94,3.11,2-.18,1.39-1.95,1.41-3.12.07-5.48,0-11,0-16.45q0-22.44,0-44.89c0-1.73.57-4.43-1.92-4.35s-1.37,2.85-1.39,4.36C280.77,496.57,280.83,506.55,280.82,516.52Z" transform="translate(-81.23 -148.55)"/><path class="cls-1" d="M667.41,468.76c-12.56,5.71-24.17,11-35.8,16.27q-75.71,34.16-151.36,68.37c-4.62,2.1-8.23,2.15-12.93,0q-90.81-41.29-181.79-82.16c-1.48-.67-3.22-.94-4.45-2.83,10.62-4.82,21.13-9.63,31.67-14.38Q391,418.73,469.3,383.39a9.66,9.66,0,0,1,8.89-.08C540.87,411.7,603.62,440,667.41,468.76Z" transform="translate(-81.23 -148.55)"/><path class="cls-1" d="M597.69,514.2c5.46,22.18,10.78,44,16.26,65.75.8,3.2-.91,4-3.18,5.07a292.69,292.69,0,0,1-70.69,22.14,383.77,383.77,0,0,1-95,4.76c-37.4-2.73-73.68-10.53-107.86-26.66-3.3-1.55-4.32-2.86-3.35-6.62,5-19.48,9.64-39.06,14.43-58.6,1.5-6.09,1.53-6.09,7.12-3.58Q412.73,542.27,470,568.18a8.47,8.47,0,0,0,7.88-.09q57.28-26,114.66-51.75C594.14,515.6,595.82,515,597.69,514.2Z" transform="translate(-81.23 -148.55)"/><path class="cls-1" d="M572.92,793.66v90c-13-5.84-25.56-11.47-38.1-17.13-15.32-6.9-30.65-13.76-45.89-20.81-2.7-1.24-4.16-1-6.29,1.22-4.94,5.16-12.51,5.22-17.3-.05-2.56-2.82-4.51-2.16-7.19-.94q-39.09,17.7-78.21,35.33c-5.67,2.56-5.67,2.56-5.67-3.47q0-39.23,0-78.47c0-6,0-6,5.29-3.61,26.23,11.83,52.48,23.59,78.66,35.53,2.83,1.29,4.29,1.37,6.48-1.31a11.89,11.89,0,0,1,18.72.13c2.17,2.68,3.64,2.23,6.14,1.1q39.1-17.75,78.3-35.32C569.34,795.21,570.85,794.57,572.92,793.66Z" transform="translate(-81.23 -148.55)"/><path class="cls-1" d="M290.86,568.08a8.82,8.82,0,0,1-8.29,8.84,8.54,8.54,0,0,1-8.69-8.32,8.36,8.36,0,0,1,8.19-8.75A8.54,8.54,0,0,1,290.86,568.08Z" transform="translate(-81.23 -148.55)"/><path class="cls-1" d="M280.83,516.52c0-10-.06-19.95.07-29.92,0-1.51-1.23-4.28,1.39-4.36s1.92,2.62,1.92,4.35q0,22.44,0,44.89c0,5.48,0,11,0,16.45,0,1.17.63,2.94-1.41,3.12-2.47.23-1.93-1.76-1.94-3.11C280.8,537.47,280.82,527,280.83,516.52Z" transform="translate(-81.23 -148.55)"/></svg>