<svg id="Layer_1" data-name="Layer 1" xmlns="http://www.w3.org/2000/svg" viewBox="0 0 63.92 63"><defs><style>.cls-1{fill:#a4c99b;}.cls-2{fill:#a1c799;}.cls-3{fill:#a9cb9d;}.cls-4{fill:#93bc8a;}.cls-5{fill:#96be8d;}.cls-6{fill:#8fb987;}.cls-7{fill:#82ad79;}.cls-8{fill:#91ba88;}.cls-9{fill:#9ac08e;}.cls-10{fill:#aecfa0;}.cls-11{fill:#6ea16e;}.cls-12{fill:#86b684;}.cls-13{fill:#81b383;}.cls-14{fill:#75a97b;}.cls-15{fill:#74a674;}.cls-16{fill:#a8d193;}.cls-17{fill:#9bc988;}.cls-18{fill:#7daf7c;}.cls-19{fill:#6ea373;}.cls-20{fill:#7daf7d;}.cls-21{fill:#82b27f;}.cls-22{fill:#77ab7a;}.cls-23{fill:#7aac78;}.cls-24{fill:#6fa473;}.cls-25{fill:#b6d99f;}.cls-26{fill:#e0efcb;}.cls-27{fill:#daecc2;}.cls-28{fill:#d0e7b8;}.cls-29{fill:#b2d6a8;}.cls-30{fill:#698e44;}.cls-31{fill:#c0dea8;}.cls-32{fill:#91bb89;}.cls-33{fill:#c8e2af;}.cls-34{fill:#99c191;}.cls-35{fill:#597439;}.cls-36{fill:#9fc696;}.cls-37{fill:#79ab79;}.cls-38{fill:#a3c797;}.cls-39{fill:#a7ca98;}.cls-40{fill:#9fc697;}.cls-41{fill:#95be8d;}.cls-42{fill:#9bc494;}.cls-43{fill:#8ebe8d;}.cls-44{fill:#97c08f;}.cls-45{fill:#93c090;}.cls-46{fill:#8db785;}.cls-47{fill:#92ba84;}.cls-48{fill:#8abc8a;}.cls-49{fill:#94c185;}.cls-50{fill:#87b978;}.cls-51{fill:#83ae7b;}.cls-52{fill:#81ab78;}.cls-53{fill:#85ab78;}.cls-54{fill:#79b059;}.cls-55{fill:#9ac292;}.cls-56{fill:#9fc391;}.cls-57{fill:#75a36f;}.cls-58{fill:#74a471;}.cls-59{fill:#8bb583;}.cls-60{fill:#86b381;}.cls-61{fill:#7aa672;}.cls-62{fill:#78a470;}.cls-63{fill:#79a875;}.cls-64{fill:#a2c694;}.cls-65{fill:#85af7c;}.cls-66{fill:#80ac79;}.cls-67{fill:#82af7c;}.cls-68{fill:#7bab78;}.cls-69{fill:#7fad7a;}.cls-70{fill:#8ab482;}.cls-71{fill:#88b27f;}.cls-72{fill:#78a875;}.cls-73{fill:#80aa76;}.cls-74{fill:#7ea976;}.cls-75{fill:#7da976;}.cls-76{fill:#76a572;}.cls-77{fill:#8db784;}.cls-78{fill:#9ec495;}.cls-79{fill:#9bc697;}.cls-80{fill:#90be8c;}.cls-81{fill:#94c190;}.cls-82{fill:#97c494;}.cls-83{fill:#edf5ea;}.cls-84{fill:#8fb582;}.cls-85{fill:#89b87f;}.cls-86{fill:#8bc279;}.cls-87{fill:#76b255;}.cls-88{fill:#60a14b;}.cls-89{fill:#7cb26a;}.cls-90{fill:#6ea45f;}.cls-91{fill:#94cb80;}.cls-92{fill:#90c87b;}.cls-93{fill:#8cc472;}.cls-94{fill:#82b07d;}.cls-95{fill:#87b17d;}.cls-96{fill:#8aad78;}.cls-97{fill:#80b382;}.cls-98{fill:#8db37b;}.cls-99{fill:#76ab7b;}.cls-100{fill:#8cca7c;}.cls-101{fill:#8bb97f;}.cls-102{fill:#84c06d;}.cls-103{fill:#6eac5a;}.cls-104{fill:#80ac78;}.cls-105{fill:#85ae7a;}.cls-106{fill:#9cc494;}.cls-107{fill:#8bb27f;}.cls-108{fill:#80b07d;}.cls-109{fill:#6b9b6a;}.cls-110{fill:#85b17f;}.cls-111{fill:#7bae7c;}.cls-112{fill:#7ca774;}.cls-113{fill:#7aa572;}.cls-114{fill:#85ad79;}.cls-115{fill:#8aae7a;}.cls-116{fill:#76a775;}.cls-117{fill:#74a877;}.cls-118{fill:#89b886;}.cls-119{fill:#83b481;}.cls-120{fill:#80b480;}.cls-121{fill:#8eb27b;}.cls-122{fill:#75a349;}.cls-123{fill:#5f9e44;}.cls-124{fill:#53a541;}.cls-125{fill:#62a443;}.cls-126{fill:#84b985;}.cls-127{fill:#7db37e;}.cls-128{fill:#78bd58;}.cls-129{fill:#569a41;}.cls-130{fill:#7ec066;}.cls-131{fill:#7dc356;}.cls-132{fill:#8bc861;}.cls-133{fill:#89c673;}.cls-134{fill:#81c359;}.cls-135{fill:#6aa648;}.cls-136{fill:#7bb953;}.cls-137{fill:#5d9e4b;}.cls-138{fill:#77b067;}.cls-139{fill:#85b37f;}.cls-140{fill:#a5d37e;}.cls-141{fill:#99ce84;}.cls-142{fill:#8ab885;}.cls-143{fill:#99bf8e;}.cls-144{fill:#90bc8a;}.cls-145{fill:#86b481;}.cls-146{fill:#9ec391;}.cls-147{fill:#9fc995;}.cls-148{fill:#81b684;}.cls-149{fill:#95ca81;}.cls-150{fill:#93cd81;}.cls-151{fill:#90c77a;}.cls-152{fill:#a6d492;}.cls-153{fill:#8ac373;}.cls-154{fill:#a0cf7b;}.cls-155{fill:#73b157;}.cls-156{fill:#7fbb62;}.cls-157{fill:#67a54a;}.cls-158{fill:#b1d88b;}.cls-159{fill:#87b07c;}.cls-160{fill:#86bb75;}.cls-161{fill:#8bc27b;}.cls-162{fill:#7dbd5f;}.cls-163{fill:#83b583;}.cls-164{fill:#7db07e;}.cls-165{fill:#5ba03b;}.cls-166{fill:#7aad7c;}.cls-167{fill:#010101;}.cls-168{fill:#86b889;}.cls-169{fill:#739f6e;}.cls-170{fill:#6b8e57;}.cls-171{fill:#92bc80;}.cls-172{fill:#90c082;}.cls-173{fill:#8ac07f;}.cls-174{fill:#82b972;}.cls-175{fill:#6ab34a;}.cls-176{fill:#76b467;}.cls-177{fill:#5da547;}.cls-178{fill:#74bc52;}.cls-179{fill:#6b9747;}.cls-180{fill:#7bb266;}.cls-181{fill:#76a75c;}.cls-182{fill:#84bb6e;}.cls-183{fill:#5c913a;}.cls-184{fill:#57a241;}.cls-185{fill:#488d36;}.cls-186{fill:#478035;}.cls-187{fill:#51973c;}.cls-188{fill:#55973e;}.cls-189{fill:#56a943;}.cls-190{fill:#89b583;}.cls-191{fill:#90bd8c;}.cls-192{fill:#8dba88;}.cls-193{fill:#8bb785;}.cls-194{fill:#689953;}.cls-195{fill:#73a462;}.cls-196{fill:#4b9c32;}.cls-197{fill:#74be50;}.cls-198{fill:#5ead3f;}.cls-199{fill:#488c2f;}.cls-200{fill:#4c8d3b;}.cls-201{fill:#8ac86c;}.cls-202{fill:#81bf6e;}.cls-203{fill:#82b662;}.cls-204{fill:#95bd8b;}.cls-205{fill:#94be8e;}.cls-206{fill:#9bc08f;}.cls-207{fill:#91c180;}.cls-208{fill:#6ba552;}.cls-209{fill:#90c381;}.cls-210{fill:#8fc978;}.cls-211{fill:#94c486;}.cls-212{fill:#87b887;}.cls-213{fill:#6c9968;}.cls-214{fill:#73a373;}.cls-215{fill:#74a574;}.cls-216{fill:#70b385;}.cls-217{fill:#7ab587;}.cls-218{fill:#507c4a;}.cls-219{fill:#608959;}.cls-220{fill:#68ac7d;}.cls-221{fill:#87b384;}.cls-222{fill:#65aa7c;}.cls-223{fill:#191f10;}.cls-224{fill:#020402;}.cls-225{fill:#639769;}.cls-226{fill:#528e38;}.cls-227{fill:#438234;}.cls-228{fill:#448736;}.cls-229{fill:#49933a;}.cls-230{fill:#428a36;}.cls-231{fill:#87ba8a;}.cls-232{fill:#7dac69;}.cls-233{fill:#3c8126;}.cls-234{fill:#87b674;}.cls-235{fill:#7dae7f;}</style></defs><path class="cls-1" d="M52.93.13a5.22,5.22,0,0,1,2,.29c.45.13.61.38.66.89a11.53,11.53,0,0,0,1.76,4.92,6,6,0,0,1,.94,2.47c.07.68.61,1.1.81,1.7a12.08,12.08,0,0,1,1,4.34,2.8,2.8,0,0,0,.47,1.72,11.21,11.21,0,0,1,1,3.13c-.44.94-.12,1.92-.1,2.89a.6.6,0,0,1-.08.39,1.49,1.49,0,0,1-1.69.05c-.23-.45-.29-1-.81-1.27-.22-.12-.18-.42-.09-.65a2,2,0,0,0-.28-1.93,15.54,15.54,0,0,1-1.56-3.36A19.78,19.78,0,0,1,55.88,13a7.28,7.28,0,0,0-1.1-2.48,13,13,0,0,1-.86-2.43c-.36-.89-.74-1.77-1.16-2.63,0-.09-.07-.2-.15-.23-1.19-.42-1.1-1.6-1.37-2.49S51.74.76,52.93.13Z" transform="translate(0 0)"/><path class="cls-2" d="M52.93.13c-.33.62-1.11.83-1.37,1.56a2.12,2.12,0,0,0,0,1.62A2.86,2.86,0,0,1,52,4.62c0,.19.2.43.34.38.56-.17.49.22.69.54.65,1,.84,2.24,1.47,3.27.22.36,0,.82.26,1.24a15.48,15.48,0,0,1,.92,1.71c.43.76.38,1.69.81,2.43.85,1.51,1.11,3.27,2.15,4.69a1.93,1.93,0,0,1,.32,2.23c-.11.21-.1.45.15.52.63.19.62.68.62,1.19.17.24.07.42-.11.61-.41.42-.38.6.08.89.92.57.93.61.45,1.64a2.18,2.18,0,0,0-.15.75.75.75,0,0,1-.55.8.93.93,0,0,1-.6-.87,9.51,9.51,0,0,1,0-1.19A1.77,1.77,0,0,0,58,23.87c-.45-.3-.63-.6-.29-1.09s0-.71-.26-.9c-.79-.52-1-1.45-1.6-2.11a2.86,2.86,0,0,1-.45-1.38,19.23,19.23,0,0,0-.77-2.25.83.83,0,0,0-.21-.44c-.87-.82-.74-1.95-1-3a9.73,9.73,0,0,0-2-4,12.61,12.61,0,0,1-1.6-2.3,1.34,1.34,0,0,1-.23-.66,2.58,2.58,0,0,0-.82-1.73A2.26,2.26,0,0,1,48.3,2.8a6.26,6.26,0,0,0-.12-1,.51.51,0,0,1,.22-.62C49.1.78,49.64.06,50.56.21c.32.05.66,0,1,0a24.39,24.39,0,0,0-3.08.11c-.2,0-.4,0-.61,0-2.06,0-4.12,0-6.19,0-.63-.06-1.26,0-1.89,0-2.27,0-4.54.05-6.82,0-1.66-.06-3.32,0-5,0a1.52,1.52,0,0,1-.89-.13A.24.24,0,0,1,27,0L38.52,0,52,0A1.7,1.7,0,0,1,52.93.13Z" transform="translate(0 0)"/><path class="cls-3" d="M61.38,19.58A6.85,6.85,0,0,1,61,17.75a3.89,3.89,0,0,0-.67-1.35,6.46,6.46,0,0,1-.46-3.18c0-.42-.29-.72-.42-1.09a6,6,0,0,0-1.15-2.66.81.81,0,0,1-.12-.39,11.07,11.07,0,0,0-1.53-3.69,9.26,9.26,0,0,1-1.26-4.16.94.94,0,0,0-.46-.81,6.43,6.43,0,0,1,2.54,1,11.7,11.7,0,0,1,3,4.76c.46,1.45,1,2.88,1.54,4.29a14,14,0,0,1,.37,1.93,20.41,20.41,0,0,1,.4,5.89,16.63,16.63,0,0,0,.16,2.1c.1,1.21.2,2.42.2,3.63,0,1.8.18,3.6.22,5.39a.41.41,0,0,1-.12.2c-.43,0-.45-.35-.47-.65-.1-1.19-.25-2.38-.43-3.55s-.21-2.41-.43-3.59A13.1,13.1,0,0,1,61.38,19.58Z" transform="translate(0 0)"/><path class="cls-4" d="M62.23,56.49a1,1,0,0,1-.27.58,3.5,3.5,0,0,1-3,.08.29.29,0,0,1-.13,0,21.38,21.38,0,0,0-2.55-1.76c-1.07-.82-1.71-2-2.84-2.76a1.56,1.56,0,0,1-.91-1.48.53.53,0,0,0-.25-.48A14.8,14.8,0,0,1,50.79,49a3.55,3.55,0,0,1-.49-1.85c0-.13.06-.29,0-.41a3.39,3.39,0,0,1,.05-2.33,18.85,18.85,0,0,1,1-2,.79.79,0,0,1,.76,1,3.08,3.08,0,0,0,1.14,2.65,28.82,28.82,0,0,1,2.54,2.4,1.48,1.48,0,0,1,.31.47c.41,1.56,1.64,2.53,2.72,3.54a9.59,9.59,0,0,1,1.85,2.57c.28.51.82.66,1.29.89C62.23,56.08,62.39,56.17,62.23,56.49Z" transform="translate(0 0)"/><path class="cls-5" d="M62.23,56.49l-.08-.33c-.62.17-.83-.65-1.42-.59-.06,0-.2-.12-.2-.17.06-.76-.75-1.09-.85-1.78s-.76-.61-1.1-1a12.86,12.86,0,0,1-1.3-1.55c-.13-.2-.23-.4-.47-.49a1.14,1.14,0,0,1-.71-.91c-.19-1.21-1.15-1.76-1.94-2.48a7.34,7.34,0,0,1-2.26-2.77.77.77,0,0,1,0-.54,1.21,1.21,0,0,0-.5-1.51,3.16,3.16,0,0,1-.25-1.82,6.6,6.6,0,0,1,.1-1.17c.25-.41.15-1,.66-1.28a2.16,2.16,0,0,1,1.41,1.72,4.28,4.28,0,0,0,1.85,3c.53.28.54.89.87,1.31s.58,1.08,1.38.89a.42.42,0,0,1,.46.36,11.58,11.58,0,0,1,.43,1.83c0,1,.29,1.31,1.28,1.46a4.62,4.62,0,0,1,.78,1.79c.4,1.07,1,2,1.38,3.14a1.14,1.14,0,0,0,.86.66c.14,0,.42-.06.37.26C62.51,55.11,62.59,55.88,62.23,56.49Z" transform="translate(0 0)"/><path class="cls-6" d="M61.66,57.61a1.13,1.13,0,0,1-.43.66.27.27,0,0,0-.29.13,5.24,5.24,0,0,1-2.43,1.48,15.37,15.37,0,0,0-1.93.41,3,3,0,0,1-2.94-.88,12.86,12.86,0,0,0-2.48-1.82,4.32,4.32,0,0,1-2-2.71c0-.17-.1-.33-.27-.38-.53-.15-.88-.59-1.42-.75a1.44,1.44,0,0,1-1.13-1.22c0-.24-.11-.47-.42-.45a.21.21,0,0,1-.14,0c-.81-1.06-2.08-.73-3.14-1a.76.76,0,0,1-.42-.23c-.07-.48.38-.58.65-.75s.25-.36.12-.6a.33.33,0,0,1,.06-.19.77.77,0,0,1,.38-.22l1.67-.2a3.89,3.89,0,0,0,3-1.18,1.24,1.24,0,0,1,.65-.39c.24,0,.23.2.19.37a2.12,2.12,0,0,1-.33.77c-.66.87-.25,1.64.13,2.46.5,1.09,1.66,1.4,2.39,2.21a3.51,3.51,0,0,1,.76.91,1.79,1.79,0,0,0,1,1.06.59.59,0,0,1,.37.4c.24,1.09,1.17,1.39,2,1.76a1.65,1.65,0,0,1,.56.29,3.31,3.31,0,0,0,2.8.85,3.45,3.45,0,0,0,2.48-.79.6.6,0,0,1,.43-.23C61.74,57.32,61.76,57.46,61.66,57.61Z" transform="translate(0 0)"/><path class="cls-7" d="M6.39,22.21,6.56,22a.75.75,0,0,1,.51-.3,4.34,4.34,0,0,0,.48-.14c.24-.07.47-.17.71,0,.12.48-.14.91-.18,1.37a3.14,3.14,0,0,0,.44,1.94A3.68,3.68,0,0,1,9.23,27a1.3,1.3,0,0,0,.67,1.24,1.46,1.46,0,0,1,.68.93,6.44,6.44,0,0,0,1.33,2.45,4.11,4.11,0,0,1,1,2.26,1.92,1.92,0,0,0,.57,1c.25.33.49.65-.06,1-.34.19-.22.42.07.58a4.66,4.66,0,0,1,.47.3.66.66,0,0,1,.16,1,1.6,1.6,0,0,0-.3,1.05c-.6.5-.88,1.29-1.5,1.79-.5,0-.74-.28-.87-.75A8.82,8.82,0,0,1,11,38.11a1.38,1.38,0,0,0-.41-.79,2.71,2.71,0,0,1-.53-3.16.79.79,0,0,0-.26-.95,2.17,2.17,0,0,1-.6-1c0-.13,0-.33-.19-.34-1-.11-.93-1.05-.92-1.58a2,2,0,0,0-.84-1.77c-.16-.13-.44-.29-.35-.48.29-.6-.11-.83-.49-1.11A1,1,0,0,1,6,26.25,9.89,9.89,0,0,1,6,23.82a4,4,0,0,0,0-1C6,22.56,6.25,22.42,6.39,22.21Z" transform="translate(0 0)"/><path class="cls-8" d="M61.66,57.61c0-.32-.18-.19-.3-.06a2.86,2.86,0,0,1-1.79.81,5.86,5.86,0,0,1-1.72.1,2.88,2.88,0,0,1-1.6-.48,12.86,12.86,0,0,0-2-1.1c-.51-.26-1-.55-1-1.21a.52.52,0,0,0-.35-.49c-.62-.14-.78-.66-1.06-1.12a5.46,5.46,0,0,0-2.14-1.93A1.44,1.44,0,0,1,49,51.6a6.84,6.84,0,0,1-1-2.16.84.84,0,0,1,.21-.77,2.44,2.44,0,0,0,.57-1.35,21.06,21.06,0,0,1,1-2.28c.21-.25.2-.71.68-.68-.09.41-.34.86-.24,1.22.21.74,0,1.55.4,2.25a.51.51,0,0,1,0,.52.32.32,0,0,0,.1.44c.76.43,1,1.37,1.73,1.8.16.09.28.26.21.41-.29.66.23,1,.58,1.28a18.24,18.24,0,0,1,1.6,1.44,1.75,1.75,0,0,1,.5.65c0,.06,0,.18.07.19.88.12,1,1.29,2,1.36a1,1,0,0,1,.66.36,2.86,2.86,0,0,0,3.56.64c.23-.13.22,0,.26.15A.94.94,0,0,1,61.66,57.61Z" transform="translate(0 0)"/><path class="cls-9" d="M63,54.53a1.68,1.68,0,0,1-1.58-1.25c-.39-1.13-1-2.19-1.45-3.29a13.11,13.11,0,0,1-.38-1.26,1.7,1.7,0,0,1-.38-1.58,2.64,2.64,0,0,0-.23-1.83c-.26-.52-.33-1.12-.58-1.66a.47.47,0,0,1,.12-.63,1.41,1.41,0,0,1,1.5.66c.1.16.14.26.36.17a1.17,1.17,0,0,1,1.32.41,1.27,1.27,0,0,1,.22,1.14,3.4,3.4,0,0,0,.17,2,17.58,17.58,0,0,1,.6,3.6c.09.75.35,1.44.49,2.16A1.44,1.44,0,0,1,63,54.53Z" transform="translate(0 0)"/><path class="cls-10" d="M63.21,29.43c-.19-2.16-.23-4.33-.31-6.5a40.93,40.93,0,0,0-.35-4.41c-.09-.59.12-1.23.07-1.86a11.43,11.43,0,0,0,0-2.2c-.55-1.91-.46-4-1.54-5.77a5.35,5.35,0,0,1-.6-1.86A12.86,12.86,0,0,0,58,2.28a7.31,7.31,0,0,1-.58-.87,5.64,5.64,0,0,1,2.4,1.68,14,14,0,0,1,2.67,4.3A12.25,12.25,0,0,0,63.07,9a11.26,11.26,0,0,1,.35,3.61c0,.3,0,.61,0,.91,0,1,0,2,0,3.05,0,.71,0,1.41,0,2.12s0,1.23,0,1.85c.06.87,0,1.75,0,2.62,0,1.24,0,2.47,0,3.7a1.32,1.32,0,0,0,.16.87C63.55,28.34,63.8,29,63.21,29.43Z" transform="translate(0 0)"/><path class="cls-11" d="M15.14,63c-2.59,0-5.2.29-7.74-.57A10.57,10.57,0,0,1,.18,52.3a5.46,5.46,0,0,1,0-1.4c0-2.67,0-5.34,0-8a1.61,1.61,0,0,1,.06-.75c.42.35.42.35.51,2.18A3.41,3.41,0,0,1,.72,46c-.16.56.28,1.11.23,1.69a9.57,9.57,0,0,0,.17,2.45c.13,1-.14,2,0,3.07,0,.13,0,.29,0,.41.86,1.66,1.36,3.49,2.53,5a9.3,9.3,0,0,0,4.22,2.79,9.31,9.31,0,0,0,3.21.72c.47,0,.83.46,1.34.35.75-.07,1.48.18,2.22.16C14.89,62.63,15.14,62.66,15.14,63Z" transform="translate(0 0)"/><path class="cls-12" d="M58.56,59.71c.79-.47,1.77-.63,2.36-1.43.07-.09.2-.35.31,0a5.3,5.3,0,0,1-.92,1,11.28,11.28,0,0,1-4,2.57,16.92,16.92,0,0,1-5.52.74.66.66,0,0,1-.34,0A4.82,4.82,0,0,0,48,62.13a.61.61,0,0,1-.4-.14A1.84,1.84,0,0,0,47,61.7c-.47-.17-.67-.46-.34-.93a8.49,8.49,0,0,1,3.65.4,5.34,5.34,0,0,0,3.42,0A20.24,20.24,0,0,0,58.56,59.71Z" transform="translate(0 0)"/><path class="cls-13" d="M47.7,61.83l0,.05c2.07.08,4.07.78,6.24.35a19.6,19.6,0,0,0,3.58-1.12,10.93,10.93,0,0,0,2-1.32c.25-.17.51-.33.77-.49-.19.67-.79,1-1.27,1.35A10.3,10.3,0,0,1,53,62.92c-1.75.08-3.51,0-5.27,0-.21-.2-.48-.12-.73-.13H43.32c-.27,0-.58,0-.72-.3a2,2,0,0,1,1.22-.82A21.87,21.87,0,0,1,47.7,61.83Z" transform="translate(0 0)"/><path class="cls-14" d="M2.32,21.24a7.63,7.63,0,0,1-1-.12C.76,21,.23,20.64.21,20c-.15-3.7-.45-7.42.14-11.09A9.88,9.88,0,0,1,6.63,1c.12-.06.19,0,.23.11-.35.69-1.12.82-1.65,1.26a2.78,2.78,0,0,0-.56.41.66.66,0,0,1-.17.12A11.17,11.17,0,0,0,1.32,7.09a6.24,6.24,0,0,0-.25,1.66,52.86,52.86,0,0,0-.3,10.37c0,.78.7,1.12,1.32,1.41a1.87,1.87,0,0,1,.8.42C2.87,21.38,2.48,21.09,2.32,21.24Z" transform="translate(0 0)"/><path class="cls-15" d="M1.71,26.32a5.91,5.91,0,0,1,1.41-1.84c.41,0,.26.31.19.5a4.46,4.46,0,0,1-.66,1.16,7,7,0,0,0-.8,2.06,15.52,15.52,0,0,1-.53,2.24,9.3,9.3,0,0,0,0,4.1,9.85,9.85,0,0,1,0,2.92,5.24,5.24,0,0,0,.12,2.33,2.41,2.41,0,0,1,0,1.43.47.47,0,0,1-.25.23c-.38,0-.44-.32-.45-.61a1.77,1.77,0,0,0-.36-.9,1.79,1.79,0,0,1-.07-.69c.09-1.94-.1-3.88-.09-5.82a12.92,12.92,0,0,1,1.47-6.84A.42.42,0,0,0,1.71,26.32Z" transform="translate(0 0)"/><path class="cls-16" d="M63.21,29.43c.25-.53.1-1.14.28-1.69a.76.76,0,0,1-.13-.65c.06-.62.19-1.24.23-1.86,0-.19,0-.44.33-.44V38.73c-.48-.24-.1-.65-.21-.91-.08.56,0,1.18-.09,1.79a5.9,5.9,0,0,0-.09,1.26.5.5,0,0,1-.23.43.27.27,0,0,1-.21-.15,35.38,35.38,0,0,1-.1-4c0-2.17,0-4.34,0-6.52,0-.36-.07-.76.23-1.06Z" transform="translate(0 0)"/><path class="cls-17" d="M63.49,39.58l.16-2.13c.24.52,0,.95.27,1.28,0,4,0,8.06,0,12.09a7.05,7.05,0,0,1-.68,3c-.22-.14-.13-.37-.15-.57a9.93,9.93,0,0,1-.06-2c.13-3.07.14-6.13.14-9.2a1,1,0,0,1,.2-.73v-.42C63.54,40.44,63.31,40,63.49,39.58Z" transform="translate(0 0)"/><path class="cls-18" d="M5.13,2.25A11.25,11.25,0,0,1,6.82,1.13.5.5,0,0,1,6.9,1c0-.07.15-.06.2-.13A.11.11,0,0,1,6.93.83a5.29,5.29,0,0,1,2-.56c.16-.06.35-.14.43,0S9.2.56,9.08.66a20.61,20.61,0,0,0-2.44,2A25.81,25.81,0,0,0,3.81,5.5c-.34.25-.67.51-1,.73-.2.11-.39.28-.64.12a1.24,1.24,0,0,1,.34-1.27,8.55,8.55,0,0,1,1.64-2,4.67,4.67,0,0,0,.45-.44h0C4.77,2.55,4.93,2.38,5.13,2.25Z" transform="translate(0 0)"/><path class="cls-19" d="M1.71,26.32c.31.23,0,.42-.05.6a13.07,13.07,0,0,0-1.23,4.9c-.14,1.63.07,3.25.06,4.87,0,1.09-.06,2.2,0,3.31,0,0,.11.11.12.17a29.17,29.17,0,0,1,.2,4,.5.5,0,0,1-.18.36C.33,43.79.57,43,.18,42.28v10a1.82,1.82,0,0,1-.09-.83c0-6.2,0-12.4,0-18.59A12.65,12.65,0,0,1,1,27.52,5.09,5.09,0,0,1,1.71,26.32Z" transform="translate(0 0)"/><path class="cls-20" d="M42.63,62.39c.15.33.45.28.72.28,1.31,0,2.62,0,3.92,0,.15,0,.54-.23.43.26H40c-.25-.2-.54-.13-.81-.14-1.77,0-3.55,0-5.32,0-.49-.29-1.14-.25-1.53-.75.09-.43.42-.52.79-.55,1.82.37,3.69.09,5.51.42a11,11,0,0,0,3.53.31A.53.53,0,0,1,42.63,62.39Z" transform="translate(0 0)"/><path class="cls-21" d="M6.54,2.68A.71.71,0,0,1,7,2.07C7.8,1.61,8.37.78,9.33.32l-.42,0A2.27,2.27,0,0,1,10,.13c1.18-.13,2.36,0,3.53-.06.14,0,.23,0,.16.21a.59.59,0,0,1-.37.18c-1.79.24-3.26,1.26-4.86,2A3.92,3.92,0,0,1,6.54,2.68Z" transform="translate(0 0)"/><path class="cls-22" d="M33.61,62.67h5.65c.25,0,.59-.16.69.27H29.24c-1.14-.16-2.29,0-3.43-.07-.21-.08-.12-.21,0-.29a1.91,1.91,0,0,1,.51-.32A20,20,0,0,1,33.61,62.67Z" transform="translate(0 0)"/><path class="cls-23" d="M2.59,26.05c.19-.36.37-.73.55-1.1.07-.15.23-.32,0-.47a7.8,7.8,0,0,1,3.27-2.27c.05.27-.19.4-.27.61a5.62,5.62,0,0,1-.76,1.05c-.2.2-.41.4-.6.61-.54.59-.82,1.36-1.34,2-.22.4-.23,1-.84,1.05C2,27,2.51,26.54,2.59,26.05Z" transform="translate(0 0)"/><path class="cls-24" d="M25.71,62.81h2.87c.22,0,.47-.08.66.13H15.14a12.17,12.17,0,0,0-2.82-.29c-.07-.61.45-.38.72-.5a.5.5,0,0,1,.21,0,3.12,3.12,0,0,0,.8.14,32.24,32.24,0,0,0,3.26.06c2.5,0,5,.09,7.5.13A1.22,1.22,0,0,1,25.71,62.81Z" transform="translate(0 0)"/><path class="cls-25" d="M63.92,24.79c-.14,1-.29,2-.43,2.95-.49.12-.27-.27-.27-.42,0-1.36,0-2.72,0-4.08a2.08,2.08,0,0,0,.17-.85c0-.34.07-.69.54-.7Z" transform="translate(0 0)"/><path class="cls-26" d="M63.21,13.52a22.66,22.66,0,0,0-.28-4.65.33.33,0,0,1,0-.43,8.79,8.79,0,0,1,1,4.38c-.16.19-.09.44-.17.65S63.42,13.81,63.21,13.52Z" transform="translate(0 0)"/><path class="cls-27" d="M63.21,13.52c.19.08.4.21.42-.15s0-.45.28-.55c0,1,0,2,0,2.95-.2.32.08,1-.71.85Z" transform="translate(0 0)"/><path class="cls-28" d="M63.21,16.62c.55,0,.48-.56.71-.85v2.82a.76.76,0,0,0-.13.23c-.06.18-.15.36-.36.34s-.07-.32-.22-.43Z" transform="translate(0 0)"/><path class="cls-29" d="M62.93,8.44v.43c-.43-.4-.29-1-.52-1.48a17.76,17.76,0,0,0-2.33-3.82c-.12-.15-.26-.27-.25-.48A10.29,10.29,0,0,1,62.93,8.44Z" transform="translate(0 0)"/><path class="cls-30" d="M2.32,21.24c.13-.19.43,0,.56-.25a.52.52,0,0,1,.32-.18,29.59,29.59,0,0,1,3.87.45c.22,0,.46.11.45.43l-.43.13a10.65,10.65,0,0,0-2.52-.29Z" transform="translate(0 0)"/><path class="cls-31" d="M63.92,21.69a.7.7,0,0,0-.39.75,1,1,0,0,1-.32.8V20.56c.26,0,.27-.7.71-.28Z" transform="translate(0 0)"/><path class="cls-32" d="M13.73.14H10A.89.89,0,0,1,10.58,0h7.66a.17.17,0,0,1-.09.22A19.57,19.57,0,0,1,14,.31.46.46,0,0,1,13.73.14Z" transform="translate(0 0)"/><path class="cls-33" d="M63.92,20.28c-.14-.05-.26-.11-.3.11s-.21.28-.41.17V18.73c.39.73.45-.2.71-.14Z" transform="translate(0 0)"/><path class="cls-34" d="M18.24.14V0h7.19a.17.17,0,0,1-.09.22A3.4,3.4,0,0,1,24,.36c-1.27,0-2.55,0-3.82,0-.48,0-1,0-1.43,0A.65.65,0,0,1,18.24.14Z" transform="translate(0 0)"/><path class="cls-35" d="M4.57,21.53a3.61,3.61,0,0,1,2.52.29L6.56,22c-.25-.22-.61-.1-.87-.28s-.5,0-.73-.12Z" transform="translate(0 0)"/><path class="cls-36" d="M25.43.14V0H27V.14l-.09.09A1.7,1.7,0,0,1,25.43.14Z" transform="translate(0 0)"/><path class="cls-30" d="M5,21.56c.25,0,.51-.1.73.12A1.16,1.16,0,0,1,5,21.56Z" transform="translate(0 0)"/><path class="cls-37" d="M6.93.83a1.07,1.07,0,0,1,.19.06c0,.16-.19.17-.3.24L6.63,1Z" transform="translate(0 0)"/><path class="cls-38" d="M59.4,27.46c.27-.3.53-.57.35-1-.11-.29.2-.5.33-.74.32-.57.23-.85-.35-1.09a1.21,1.21,0,0,1-.65-.52c-.14-.27-.26-.6.22-.69s.4-.28.39-.56c.56.31,1.12.05,1.69,0,.41.05.38.41.45.68A14.37,14.37,0,0,1,62,26c.16,1.44.22,2.89.41,4.33.09.6,0,1.21.15,1.82a15.07,15.07,0,0,0,.31,2.21.89.89,0,0,1-.09.69,1,1,0,0,1-1.06-.8,2.36,2.36,0,0,0-.25-.79A3.16,3.16,0,0,1,61.11,32a1,1,0,0,0-.23-.72c-.52-.67-.76-1.48-1.22-2.19A1.45,1.45,0,0,1,59.4,27.46Z" transform="translate(0 0)"/><path class="cls-39" d="M62.65,35.07c-.1-1.14-.43-2.28-.43-3.4a16.31,16.31,0,0,1-.19-3,2.11,2.11,0,0,0-.11-.88,39.24,39.24,0,0,1-.26-4.18,1.46,1.46,0,0,0-.28-.84c-.29-.64-.08-1.37-.38-2-.16-.35.5-.72.38-1.21a19.82,19.82,0,0,1,.8,3,25.26,25.26,0,0,0,.3,2.55,30.6,30.6,0,0,1,.45,3.62c0,.29-.08.62.28.8V41.26c.15,1.21,0,2.42.07,3.68-.44-.11-.41-.43-.41-.67,0-2-.1-3.89-.24-5.83a15.08,15.08,0,0,1-.2-2.51C62.46,35.63,62.4,35.31,62.65,35.07Z" transform="translate(0 0)"/><path class="cls-40" d="M59.4,27.46A3.34,3.34,0,0,0,60,29.28a11,11,0,0,1,1.25,2.37c.17.53.16,1.15.28,1.73.19.32.17.6-.21.76-.61-.23-.66-.86-.74-1.32a4.14,4.14,0,0,0-1.27-2.21,3.24,3.24,0,0,1-1.24-2.48.84.84,0,0,0-.65-.83.89.89,0,0,1-.56-1.25c.14-.42,0-.68-.35-.84a.91.91,0,0,1-.54-.76A4.6,4.6,0,0,0,54.88,22c-.51-.52-.64-1.37-1.43-1.66a1.33,1.33,0,0,1-.09-1.28,4.69,4.69,0,0,0,0-3.22A6.84,6.84,0,0,1,53,13.41c0-1.9-1.15-3.14-2.41-4.33A24.14,24.14,0,0,1,48.4,7.27a5.67,5.67,0,0,1-.5-2c0-.25,0-.49-.24-.69a1.82,1.82,0,0,1-.47-1.86.79.79,0,0,0-.26-.94A1,1,0,0,1,46.59.68a.66.66,0,0,1,.12-.17c.24-.15.52-.09.77-.19s.31,0,.46-.1a.81.81,0,0,0,.61-.08h3.36V.28H50.84c-.51,0-1.07-.15-1.37.5C49.41.9,49.13.91,49,1c-.44.19-.94.37-.49,1,.24.34-.09.65,0,1a6.34,6.34,0,0,0,1.08,1.72,1,1,0,0,1,.2.44c0,1.46,1,2.42,1.82,3.42a10.31,10.31,0,0,1,2,4,3.79,3.79,0,0,1,.26,1.81.63.63,0,0,0,.22.63c.89.71,1,1.83,1.37,2.78a9.15,9.15,0,0,0,1,2.49c.46.58.88,1.21,1.4,1.75.3.3.39.61,0,.93s-.24.51.1.66a1.91,1.91,0,0,1,1,2.1A2,2,0,0,0,59.4,27.46Z" transform="translate(0 0)"/><path class="cls-41" d="M32.9.14h6.91c-.1.44-.47.3-.74.32a8.68,8.68,0,0,0-2.58.26c-.44.16-.86.37-1.29.55a1,1,0,0,0-.42,1.58,23.34,23.34,0,0,1,1.44,2.64,1.51,1.51,0,0,1,.25.8A8.6,8.6,0,0,1,35,7.59c-1.67-.18-3.38-.23-4.66-1.55-.32-.32-.76-.46-1.08-.77a4.33,4.33,0,0,1-.6-2.83,1.38,1.38,0,0,1,.51-1c.91-.65,1.78-1.4,3-1.25A1,1,0,0,0,32.9.14Z" transform="translate(0 0)"/><path class="cls-34" d="M36.43,6.34a15.37,15.37,0,0,1-.92-1.92,4,4,0,0,0-.8-1.3A1.24,1.24,0,0,1,35.49,1c.32-.08.51-.35.84-.45A10.3,10.3,0,0,1,39.15.28c.22,0,.47.08.66-.14h1.83c-.24.51-.76.48-1.17.58-1,.24-1.22.59-.6,1.47A5.79,5.79,0,0,1,41.2,5a2.9,2.9,0,0,0,.74,1.57.65.65,0,0,1,.18.65,1.09,1.09,0,0,1-.79.43,15.92,15.92,0,0,1-4.27-.89A1.26,1.26,0,0,1,36.43,6.34Z" transform="translate(0 0)"/><path class="cls-32" d="M32.9.14c-.1,0-.22.15-.31.13-1.16-.23-2,.49-2.87,1a2.09,2.09,0,0,0-.81,2.62c.2.43.15.93.47,1.3a1.06,1.06,0,0,0,0,1.28c.31.45.07.83-.7,1.37A6.92,6.92,0,0,1,25,6.05a.8.8,0,0,1-.29-.88c.07-.18.05-.3-.16-.37a.32.32,0,0,1-.17-.36c.07-.54.05-.94-.59-1.25-.46-.21.13-2.25.67-2.4A7,7,0,0,1,27,.14H32.9Z" transform="translate(0 0)"/><path class="cls-42" d="M42.06,7.18c-.25-.66-.87-1.14-1-1.89,0-.11-.13-.21-.13-.31,0-1.23-.78-2.05-1.43-2.93-.2-.27-.38-.52-.22-.82s.4-.66.83-.66A4.86,4.86,0,0,0,41.64.14H48c.05,0,.07.05.05.09s0,0,0,0l-.43.14c-.26.18-.58,0-.84.14h0a2.49,2.49,0,0,1-1.24.1c-1-.14-1.26.18-1.2,1.18a11.18,11.18,0,0,0,.61,2.75c.09.29.3.36.52.5a3.14,3.14,0,0,1,1.53,1.82,1.48,1.48,0,0,1-.4.91c-.44.15-.82-.14-1.24-.16-.89,0-1.76-.25-2.66-.27A.76.76,0,0,1,42.06,7.18Z" transform="translate(0 0)"/><path class="cls-36" d="M48,.28s0-.09,0-.13h.57A.4.4,0,0,1,48,.28Z" transform="translate(0 0)"/><path class="cls-43" d="M50.52,44.36c-.33.13-.3.53-.56.71-.24-.29-.09-.58,0-.87a5.52,5.52,0,0,0,.16-2.14,2,2,0,0,1,.12-1,16.36,16.36,0,0,0,.41-2.39,1.33,1.33,0,0,0-.11-.88,18.27,18.27,0,0,1,.29-3.31A4.88,4.88,0,0,1,51.06,33a3.23,3.23,0,0,0,.15-.93.38.38,0,0,1,.21-.28c.35.18.32.53.27.8-.29,1.7.15,3.42-.21,5.11-.11.51.16,1.07-.11,1.58v3.1c.12.68-.53,1-.69,1.6C50.64,44.12,50.57,44.24,50.52,44.36Z" transform="translate(0 0)"/><path class="cls-44" d="M58.56,43.1a.27.27,0,0,0-.12.36c.48.75.46,1.7,1,2.44a.63.63,0,0,1,.07.6,3.55,3.55,0,0,0,.07,2.23c-.89.23-1.57-.44-1.48-1.51.06-.66-.34-1.21-.38-1.85a.28.28,0,0,0-.38-.21c-.79.51-1.08-.26-1.26-.63A11.35,11.35,0,0,0,54,42a1,1,0,0,1-.36-.79.72.72,0,0,0-.33-.66.49.49,0,0,1-.23-.48,1.43,1.43,0,0,0-.91-1.61c-.1,0-.15-.18-.22-.27a.4.4,0,0,1-.13-.32,16.85,16.85,0,0,0,0-3.55c-.05-.86-.11-1.71-.11-2.57,0-.29-.06-.56.21-.76s.4.14.49.37c.16.79.19,1.58.43,2.38a11.23,11.23,0,0,0,1.82,3.44A14.38,14.38,0,0,0,56.71,39a2.63,2.63,0,0,1,.81,1.28,3.07,3.07,0,0,0,.74,1.4A1.46,1.46,0,0,1,58.56,43.1Z" transform="translate(0 0)"/><path class="cls-45" d="M51.93,31a5.65,5.65,0,0,0-.09,2.16,19.7,19.7,0,0,1,.09,5c-.39.27-.17.85-.56,1.12-.17-1.73.17-3.47,0-5.2,0-.54.22-1.06.14-1.6,0-.23.07-.48-.14-.66-.41-.59-.1-1.19,0-1.79a4,4,0,0,0,.11-1.28,2.42,2.42,0,0,1,0-.47,5.53,5.53,0,0,0,.08-1.52,3.05,3.05,0,0,1,.06-.6,7.85,7.85,0,0,0,.08-1.81.72.72,0,0,1,.21-.58c.34.08.31.37.33.61a13.05,13.05,0,0,1,0,3.42A11.31,11.31,0,0,0,52,30.66.42.42,0,0,1,51.93,31Z" transform="translate(0 0)"/><path class="cls-46" d="M58.56,59.71a1.89,1.89,0,0,1-1.19.68c-1.08.37-2.18.66-3.28,1-.09,0-.21-.05-.33-.09-.41.22-.82,0-1.23,0a6.41,6.41,0,0,1-2.44-.82,6.07,6.07,0,0,1-1.88-1.66c-.08-.12-.14-.25-.27-.31a3,3,0,0,1-1.45-1.82,1.22,1.22,0,0,0-1.38-.92c-.43.05-.59-.23-.65-.58a.69.69,0,0,0-.54-.64,1.16,1.16,0,0,1-.63-.54,4.25,4.25,0,0,0-1.83-1.58.66.66,0,0,1-.34-.34c-.14-.74.49-1,.88-1.36a.18.18,0,0,1,.21,0,6.82,6.82,0,0,0,2.38.32.76.76,0,0,1,.73.34c.24.28.35.72.92.55.13,0,.3.46.32.74a.65.65,0,0,0,.44.63c.67.3,1.31.67,2,1,.16.09.44.19.38.35-.2.58.34.83.47,1.25a2.2,2.2,0,0,0,1.06,1.31,18,18,0,0,1,3,2.25,2.73,2.73,0,0,0,2.86.61A6.32,6.32,0,0,1,58.56,59.71Z" transform="translate(0 0)"/><path class="cls-47" d="M42.21,50.7h-.15a5.31,5.31,0,0,1-2.27-.15,12.94,12.94,0,0,0-3.72-.5,11.53,11.53,0,0,1-2.56-.35c-1.32-.21-2.65-.33-4-.48-.23,0-.48,0-.64-.24a.28.28,0,0,1,.08-.32,2.23,2.23,0,0,1,1.35-.08,4.43,4.43,0,0,0,1.73.24,18.14,18.14,0,0,1,3.2.29,32.34,32.34,0,0,0,6.3.15,2,2,0,0,1,1.49.17c.1.21.47.09.46.35s-.33.18-.48.3Z" transform="translate(0 0)"/><path class="cls-48" d="M50.64,37.88c.52.35.17.83.13,1.22a8.43,8.43,0,0,1-.46,2.43c-.18.47.1.9,0,1.38-.07.74-.31,1.43-.4,2.16a7.11,7.11,0,0,1-1.13,2.25c-.49.39-1,.78-1.47,1.15a3.22,3.22,0,0,1-2.2.54.15.15,0,0,1,0-.11s0-.06,0-.06a2,2,0,0,1,.56-.34,4.4,4.4,0,0,0,.56-.31,4.29,4.29,0,0,0,1-.76c.11-.09.12-.22.18-.33a5.31,5.31,0,0,0,1.86-3.36c.44-1.72.69-3.49,1-5.24C50.36,38.27,50.29,38,50.64,37.88Z" transform="translate(0 0)"/><path class="cls-49" d="M43.05,49.43c-1.58-.08-3.16.27-4.75.11a33.43,33.43,0,0,1-4.56-.48,8.64,8.64,0,0,0-2.1-.05,2.38,2.38,0,0,1-1.28-.28,1,1,0,0,1,.73-.21,12.4,12.4,0,0,1,2.28.11c2.63.06,5.26.42,7.88-.05a4.53,4.53,0,0,1,1.6,0,.54.54,0,0,1,.2.1c.13.2-.2.41,0,.61Z" transform="translate(0 0)"/><path class="cls-50" d="M43.05,48.87v-.14a.37.37,0,0,1,.17-.13,9.76,9.76,0,0,1,1.22-.25,1.46,1.46,0,0,1,.73.52V49a9.29,9.29,0,0,1-1.83.14C43,49.26,42.94,49.17,43.05,48.87Z" transform="translate(0 0)"/><path class="cls-47" d="M43.05,48.87a.26.26,0,0,0,.28.28.28.28,0,0,1-.28.14c-.11-.07-.31-.15-.32-.23S42.91,48.88,43.05,48.87Z" transform="translate(0 0)"/><path class="cls-51" d="M13.73,38.87c-.1-.38-.25-.74.15-1.08s.34-.72-.15-1c-.15-.08-.28-.17-.42-.26s-.43,0-.4-.31.13-.54.43-.58.37-.18.19-.4a3.77,3.77,0,0,1-.88-1.93,4.16,4.16,0,0,0-1.2-2.07A4.77,4.77,0,0,1,10.36,29a.81.81,0,0,0-.39-.55,1.45,1.45,0,0,1-.91-1.62,2.63,2.63,0,0,0-.6-1.78,3.57,3.57,0,0,1-.23-3.53c0-.14,0-.2.15-.26a6.14,6.14,0,0,1,.85-.19.94.94,0,0,1,.52.09c.29.28,0,.69.19,1a3.25,3.25,0,0,0,1.13,1.11,2.21,2.21,0,0,1,1.41,2c0,.85.71,1.14,1.41.65.37-.26.67-.59,1-.87s.58-.57,1-.45a.67.67,0,0,1,.35.35c-.08.38-.46.45-.69.68a4.23,4.23,0,0,0-.53,2.07A18.72,18.72,0,0,0,15,31.59,1.68,1.68,0,0,1,14.56,33a1.42,1.42,0,0,0-.41.86c0,.42-.06.77.34,1a1.27,1.27,0,0,0,1.32.17c.29-.13.5-.44.87-.42a.33.33,0,0,1,.05.44c-.13.24,0,.34.19.43.42.18.91.28,1,.86s-.35.82-.63,1.17a.44.44,0,0,1-.25.15c-.73,0-.92.69-1.32,1.1a3.46,3.46,0,0,0-.22.31,1.07,1.07,0,0,1-.35.32c-.52.1-.57.71-1,.93-.37-.14-.27-.44-.17-.68A.6.6,0,0,0,13.73,38.87Z" transform="translate(0 0)"/><path class="cls-52" d="M5.27,23.8c.25-.35.43-.77.85-1,0,.15.17.34.12.46-.34.76,0,1.55-.1,2.32A1.26,1.26,0,0,0,7,27.06c.36.14.57.37.19.73-.17.15-.21.41,0,.44.48.08.5.66.94.77a.48.48,0,0,1,.21.4c-.3.72.09,1.34.2,2,.05.27.1.51.42.18s.35,0,.36.16a2.45,2.45,0,0,0,.84,1.55.84.84,0,0,1,0,1.21c-.45.5,0,1.08,0,1.63,0,.07.07.18.13.24A7.67,7.67,0,0,1,11.64,40c.09.39.48.31.68.52a8.43,8.43,0,0,1,.61,3.27,7.05,7.05,0,0,0,.65,3.52.53.53,0,0,1,.05.35c-.13.18-.29.13-.43,0L12.28,47a.47.47,0,0,1-.2-.5c.22-.55,0-1.11.1-1.67a1.78,1.78,0,0,0-.55-1.6,6.45,6.45,0,0,1-2-4.13,5,5,0,0,0-1.19-2.49,3.5,3.5,0,0,1-.53-.82,10.86,10.86,0,0,0-1.87-3.58.78.78,0,0,1-.18-.6,2.62,2.62,0,0,0-.67-2.05c-.07-.09-.18-.2-.16-.31.12-.78-.33-1.51-.22-2.29a1.79,1.79,0,0,0-.07-.69A2.43,2.43,0,0,1,5.27,23.8Z" transform="translate(0 0)"/><path class="cls-53" d="M13.59,47.74a11.47,11.47,0,0,1-.89-2.18c-.1-.28,0-.5.05-.75a9.42,9.42,0,0,0-.37-3.21,3.58,3.58,0,0,1-.06-1c.44-.58.61-1.4,1.41-1.69.55-.12.61.17.47.59-.08.27-.35.52,0,.82.32.52,0,1,0,1.55A26.34,26.34,0,0,0,14.58,46a3.11,3.11,0,0,0,1.52,2.1,13.24,13.24,0,0,0,3.11,1.42,1.4,1.4,0,0,1,.38.16,1.05,1.05,0,0,1,0,1.33,1.46,1.46,0,0,1-1.4.17A11,11,0,0,0,16,50.7,11.74,11.74,0,0,1,13.59,47.74Z" transform="translate(0 0)"/><path class="cls-54" d="M8.37,21.41l-.14.14-.71.14c-.33-.43-.83-.27-1.25-.33A17.17,17.17,0,0,0,3.15,21a.17.17,0,0,1,0-.21,1,1,0,0,1,.65-.25c1.4.1,2.78.38,4.16.57C8.17,21.11,8.38,21.14,8.37,21.41Z" transform="translate(0 0)"/><path class="cls-55" d="M58.56,43.1c0-1-1-1.54-1.1-2.45-.2-1.24-1.22-1.83-2-2.5a14.11,14.11,0,0,1-1.62-1.86,9.87,9.87,0,0,1-1.17-2.56,6.65,6.65,0,0,1-.42-2.32A8.62,8.62,0,0,0,52.34,29a1.32,1.32,0,0,1,.39-1.32c.36.1.5.42.62.71A3.5,3.5,0,0,0,55,30.26a1,1,0,0,1,.52.85,4.22,4.22,0,0,0,.72,2.17,2.12,2.12,0,0,1,.31.86.76.76,0,0,0,.94.7c.5-.06.79.14.79.64A1.38,1.38,0,0,0,59,36.67c.87.61.86.63.53,1.64a.78.78,0,0,0,0,.62,6.94,6.94,0,0,0,.92,1.72c.3.51.11,1.12.4,1.67a11.68,11.68,0,0,0,.62,1.53.38.38,0,0,1,0,.51c-.47-.4-1-.71-1.53,0C59.88,43.35,59.19,43.25,58.56,43.1Z" transform="translate(0 0)"/><path class="cls-56" d="M61.52,44.36c-.46-.74-.61-1.62-1-2.37-.24-.43.15-.88-.1-1.29.1-.64-.19-1.29.11-1.92.07-.14.07-.32.21-.42a1.28,1.28,0,0,1,1-.18c.57.29.54.86.55,1.35a15.94,15.94,0,0,0,.54,3.5,2.87,2.87,0,0,1,.07.77,14.32,14.32,0,0,0,0,3,20.55,20.55,0,0,1,.22,4.29c0,.07.06.12.11.17a6.51,6.51,0,0,1-.14,2c-.12,0-.25,0-.26-.19-.09-.92-.4-1.8-.45-2.74a15.78,15.78,0,0,0-.68-3.6,2.56,2.56,0,0,1,0-1.29A1.33,1.33,0,0,0,61.52,44.36Z" transform="translate(0 0)"/><path class="cls-57" d="M13.16,62.25c-.18.33-.75-.11-.84.42a.74.74,0,0,1-.21,0c-1.38-.57-2.89-.58-4.31-1.08a9.6,9.6,0,0,1-6-6c-.24-.62-.51-1.22-.8-1.82a2.64,2.64,0,0,1-.16-1.72,6.26,6.26,0,0,0,0-2.44c0-.62-.1-1.25-.12-1.88.38-.19.65,0,.91.25a1.68,1.68,0,0,1,.24.93,1.19,1.19,0,0,1-.13.53.69.69,0,0,0,.34,1.08.9.9,0,0,1,.22.65,4.36,4.36,0,0,0,.74,2.23,1.36,1.36,0,0,1,.33,1,1.26,1.26,0,0,0,.65,1.23,1.43,1.43,0,0,1,.56.61c.52,1.31,1.75,2.05,2.52,3.16.13.19.39.25.57.4A3.88,3.88,0,0,0,9.78,61a5,5,0,0,1,1.88.88.7.7,0,0,0,.6.1A1,1,0,0,1,13.16,62.25Z" transform="translate(0 0)"/><path class="cls-58" d="M1.61,48l-.85-.28a2.1,2.1,0,0,0-.13-.89,1.66,1.66,0,0,1-.14-.54c0-.6.34-1.18.13-1.81C.79,43,.34,41.5.48,40c.39.08.4.39.42.69s-.05.57.28.72.3.71.3,1.08c0,1.58.21,3.16.26,4.74C1.75,47.51,1.84,47.79,1.61,48Z" transform="translate(0 0)"/><path class="cls-59" d="M41.22,52c.17.37.59.33.88.52a4.46,4.46,0,0,1,1.34,1.36.94.94,0,0,0,.83.54c.34,0,.32.33.34.59s.09.64.63.54a1.14,1.14,0,0,1,1.34.86c.3.81.62,1.63,1.56,1.94a.39.39,0,0,1,.26.38c0,.17.07.41.21.42.92,0,1,1.17,1.86,1.32s1.47.57,2.26.67l1,.15a4,4,0,0,1-3.08.26A7.32,7.32,0,0,0,48,61c-.48,0-.92-.17-1.38-.15a5.24,5.24,0,0,1-2.9-1,3.41,3.41,0,0,1-1.42-2.41c0-.25,0-.44-.26-.59s-.27-.48-.35-.75a15.39,15.39,0,0,0-1.5-3.61.81.81,0,0,0-1-.43,10.12,10.12,0,0,1-3.55.28c-.27-.06-.57,0-.73-.34a.8.8,0,0,1,.07-.79c1.6.07,3.19-.45,4.79,0A2.74,2.74,0,0,1,41.22,52Z" transform="translate(0 0)"/><path class="cls-60" d="M35,52.11a9.69,9.69,0,0,0,4.15-.2.87.87,0,0,1,1.11.49,15.58,15.58,0,0,1,1.64,4.07c0,.06,0,.19,0,.19.86.05.38.72.51,1.11a3.73,3.73,0,0,0,2.85,2.66,2.84,2.84,0,0,1,1.25.41c-.07.48.13.72.62.75.18,0,.43,0,.5.24a2.23,2.23,0,0,1-1.28,0,2.05,2.05,0,0,0-1.1,0,2.85,2.85,0,0,1-1.56,0,10.06,10.06,0,0,1-1.82-.11,1.36,1.36,0,0,1-1.2-1.8,5,5,0,0,0,0-2.5,3,3,0,0,1-.15-1c.14-1.16-.42-2.18-.56-3.29-.08-.15-.11-.32-.2-.46s-.35-.2-.56-.2a20.31,20.31,0,0,0-2.67.63,15.31,15.31,0,0,1-2.14.17,1.25,1.25,0,0,1-.79-.2,3,3,0,0,0-1.35-.52c-.16,0-.39-.08-.23-.35A4.56,4.56,0,0,1,35,52.11Z" transform="translate(0 0)"/><path class="cls-21" d="M40.09,53c.07.06.21.13.2.18-.1.93.63,1.69.51,2.63-.15,1.17.47,2.28.28,3.46a2.74,2.74,0,0,1-.1.69,1.13,1.13,0,0,0,1.15,1.63,4.79,4.79,0,0,1,1.63.29c-.4.13-.62.64-1.13.56a11.43,11.43,0,0,1-4-.28c-1-.31-1.46-1.2-2.28-1.7-.38-.23-.28-.59.16-.91a3,3,0,0,1,1.53.34,2.11,2.11,0,0,0,1.56.16l.18-.23c0-.07.07-.13.1-.19a5.19,5.19,0,0,0,.22-2.14c-.13-1.3,0-2.61-.22-3.9A.59.59,0,0,1,40.09,53Z" transform="translate(0 0)"/><path class="cls-37" d="M3.16,20.84a.61.61,0,0,1,0,.14H2.88c-.43-.23-.9-.28-1.34-.5-1.19-.61-.95-1.69-1-2.66a49.11,49.11,0,0,1,0-5.56C.63,10.89.82,9.52,1,8.15c.29-2.37,1.73-3.94,3.37-5.43,0,0,.14,0,.21,0,0,.39-.37.57-.61.8A8.45,8.45,0,0,0,2.21,6a1.22,1.22,0,0,0,0,.34c0,.63-.24,1.24-.33,1.85-.15,1-.34,1.94-.41,2.91a38.29,38.29,0,0,0-.13,6.15c.09,1,0,2.13,1,2.91C2.57,20.39,2.94,20.52,3.16,20.84Z" transform="translate(0 0)"/><path class="cls-37" d="M5.13,2.25a.68.68,0,0,1-.56.43A.65.65,0,0,1,5.13,2.25Z" transform="translate(0 0)"/><path class="cls-61" d="M1.32,41.26c.21-1.07-.38-2.08-.28-3.15,0-.22-.07-.47.14-.65a1.32,1.32,0,0,1,1.2.4,3.69,3.69,0,0,0,1.15,2.31,1.1,1.1,0,0,1,.25,1.35.78.78,0,0,0,.06.74,4.56,4.56,0,0,1,.29,1,5.15,5.15,0,0,0,1,2.49,1.08,1.08,0,0,1,.24.43c.37,1.69,1.45,3,2.29,4.47.26.44.39.94.92,1.16.17.07.24.3.26.48a2.87,2.87,0,0,0,1,1.8c.65.61,1.1,1.39,1.82,2a2.52,2.52,0,0,1,.75,1.43,2.72,2.72,0,0,0,2,2.31c1,.26,1.74.93,2.72,1.12.1,0,.12.13.09.23-.43.22-.9.31-1.32.52a6.91,6.91,0,0,1-3.11-.56c-.37-.22-.74-.44-1.1-.67,0-.56,0-1.11,0-1.66A1.27,1.27,0,0,0,11,57.47a4.74,4.74,0,0,1-2.84-3.8,2.2,2.2,0,0,0-1.79-2A3,3,0,0,1,4.61,50.3a1.48,1.48,0,0,0-.78-.66c-.32-.61-1.09-1-1.05-1.76.06-1.29-.6-2.33-.95-3.48A4.54,4.54,0,0,1,1.45,42C1.51,41.75,1.36,41.52,1.32,41.26Z" transform="translate(0 0)"/><path class="cls-62" d="M1.32,41.26a.61.61,0,0,1,.27.62c-.41,1.23.44,2.19.72,3.27a3.41,3.41,0,0,0,.62,1.47s.07.1.06.13c-.52,1.19.57,1.89.87,2.82a7.94,7.94,0,0,1,.85,1.73c.45.92.85,1.87,1.31,2.79a.87.87,0,0,1,.14.6c-.15.59.42,1,.45,1.51,0,.21.29.15.48.11.73-.15,1-.05,1.26.62a3.81,3.81,0,0,0,.86,1,7,7,0,0,0,2.07,1.76c.2.1.27.48.48.68a1.06,1.06,0,0,1,1,.56,2.7,2.7,0,0,1-2.17.17c-.78-.23-1.49-.66-2.3-.84a.94.94,0,0,1-.6-.46,1.52,1.52,0,0,1-1.06-.74,6.73,6.73,0,0,0-1.44-1.57A.54.54,0,0,1,5,57.38c-.46-.64-.63-1.45-1.41-1.9a1,1,0,0,1-.36-1.24c.1-.19-.09-.34-.19-.49A4.62,4.62,0,0,1,2.16,51,1.49,1.49,0,0,0,2,50.56C1.77,50.07,2,49.51,1.75,49l-.14-1-.3-4.92a5.35,5.35,0,0,0-.13-1.69Z" transform="translate(0 0)"/><path class="cls-63" d="M2.31,37.88l-1.13-.42c.33-2-.39-3.87-.26-5.82a11.2,11.2,0,0,1,.5-2.75,10.91,10.91,0,0,1,.81-2.48c.1-.16.13-.35.36-.36.17.47-.36.94,0,1.41a2.51,2.51,0,0,1-.12,1.71,4.86,4.86,0,0,0,.06,3.76,5.17,5.17,0,0,1,.32,2.21,6.24,6.24,0,0,0-.2,2.2A.47.47,0,0,1,2.31,37.88Z" transform="translate(0 0)"/><path class="cls-64" d="M63.21,51.26c-.22.1-.31,0-.28-.21a9,9,0,0,0,0-2.32c-.12-1-.26-2-.44-3-.06-.33.21-.55.17-.87-.1-.77-.11-1.54-.25-2.31A8.63,8.63,0,0,1,62,39.71a1.46,1.46,0,0,0-.38-1.4,1.61,1.61,0,0,1-.27-1.13,2.27,2.27,0,0,0-.51-1.62c-.52-.7-.41-1.1.36-1.48.32-.14.28-.43.28-.7a.38.38,0,0,1,.27.37c-.07.68.42,1,.86,1.32a52.17,52.17,0,0,0,.33,5.3c.05,1.46.11,2.91.23,4.38V41.26h.14C63.34,44.6,63.4,47.93,63.21,51.26Z" transform="translate(0 0)"/><path class="cls-64" d="M63.49,39.58c-.06.42.14.87-.14,1.26C63.41,40.42,63.21,40,63.49,39.58Z" transform="translate(0 0)"/><path class="cls-65" d="M6.54,2.68l2-.43c0,.69-.37,1.34-.18,2.05a10.36,10.36,0,0,1,0,2.55,2.16,2.16,0,0,0,.24,1.07.67.67,0,0,1-.13.95c-.43.33-.4,1-1,1.2-.92-.22-1.35.39-1.78,1a6.78,6.78,0,0,1-.55.88c-.16.19-.34.4-.64.32-.33-.3-.22-.63-.1-1,.33-.94.28-1.17-.46-1.83a.85.85,0,0,1-.22-.71c0-.25.12-.49.11-.75a2.17,2.17,0,0,0-.35-1.5c-.3-.44,0-.83.27-1.19C4.45,4.67,5,3.83,5.8,3.19A2.71,2.71,0,0,1,6.54,2.68Z" transform="translate(0 0)"/><path class="cls-66" d="M3.72,5.35c-.14.52-.34,1,.16,1.52C4.17,7.15,4,7.63,4,8a8.37,8.37,0,0,0-1.15,3.21,34.59,34.59,0,0,0-.62,6.81,2.44,2.44,0,0,0,1.29,2.33.76.76,0,0,1,.19.12.15.15,0,0,1,0,.2l-.56.14a2.52,2.52,0,0,1-1.87-2.58c0-.53-.2-1.05-.21-1.61a38.74,38.74,0,0,1,.31-6.37c.17-1.13.33-2.26.5-3.39a.78.78,0,0,1,.28-.55A6.29,6.29,0,0,0,3.72,5.35Z" transform="translate(0 0)"/><path class="cls-67" d="M36.57,59.57c-.45.29-.33.63,0,.82a18.09,18.09,0,0,1,2.08,1.72,18.15,18.15,0,0,0-3.11-.22,14.09,14.09,0,0,1-2.53-.2c-.32-.18-.68-.06-1-.1-1.17-.13-1.87-1-2.77-1.58a.34.34,0,0,1-.11-.49c.18-.34.4-.77.79-.71a.94.94,0,0,0,.92-.39,2.51,2.51,0,0,1,1-.54,3.87,3.87,0,0,1,3.32.86,3,3,0,0,0,.81.39C36.24,59.22,36.56,59.22,36.57,59.57Z" transform="translate(0 0)"/><path class="cls-68" d="M33.61,62.67c-.94,0-1.82-.32-2.76-.29-1.53,0-3.05,0-4.57,0a.72.72,0,0,1-.67.12,24.21,24.21,0,0,0-3.85-.91.26.26,0,0,1-.16-.13c-.18-.34,0-.62.19-.88a.55.55,0,0,0,0-.74c-.15-.63-.46-1.21-.59-1.85a6.46,6.46,0,0,0,0-2.48c-.23-1.12.48-2,1.14-2.82a.57.57,0,0,1,.57-.2A6.93,6.93,0,0,1,23,55.67c-.11.87-.63,1.67-.47,2.6a4,4,0,0,0,.07.48c.27,1.08.64,1.29,1.69,1,.67-.25,1.32-.55,2-.85.22-.11.43-.29.71-.21.22.48-.4.73-.32,1.17-.13.23-.37.37-.5.59-.27.44-.13.79.37.75,1.17-.09,2.2.47,3.32.57a6.34,6.34,0,0,1,2.55.36C32.75,62.31,33.33,62.15,33.61,62.67Z" transform="translate(0 0)"/><path class="cls-69" d="M32.34,62.11c-.13,0-.25.15-.4.08-.87-.42-1.83-.13-2.74-.33-.5-.11-1-.32-1.46-.41a3.52,3.52,0,0,0-1.17-.06c-.3,0-.66,0-.81-.27a.82.82,0,0,1,.23-.9,6.91,6.91,0,0,1,.57-.51c.81-.59,1.8-.83,2.63-1.39a3.43,3.43,0,0,1,2-.57c.25,0,.63-.17.74.27-.48.33-1.22.34-1.31,1.13,0,.09-.15.16-.22.1-.92-1-.78.37-1.22.49a4.11,4.11,0,0,1,1.37,1c.6.54,1.42.51,2.14.76.13,0,.28,0,.37.15A.65.65,0,0,0,32.34,62.11Z" transform="translate(0 0)"/><path class="cls-70" d="M18.24.14h.42c-.09.43-.46.62-.77.85a2,2,0,0,0-.7,2.44,3.36,3.36,0,0,1,.37,1.34c0,.69.54.94,1,1.31.24.21.58.31.69.66a1.12,1.12,0,0,1-.49,1.09,2.74,2.74,0,0,1-2.62,0c-.58-.32-1.27-.31-1.85-.64a2.86,2.86,0,0,1-.8-1A8.63,8.63,0,0,0,12,4.49c-.15-.15-.36-.27-.33-.5a19.6,19.6,0,0,1,.29-2.53.74.74,0,0,1,.54-.6A5.41,5.41,0,0,0,13.59.28l.14-.14Z" transform="translate(0 0)"/><path class="cls-71" d="M13.59.28c-.27.36-.51.73-1,.72a.36.36,0,0,0-.39.34c0,.63-.55,1.22-.1,1.88.12.19-.11.28-.19.4s-.19.51.08.68a4.81,4.81,0,0,1,1.69,1.94,5.42,5.42,0,0,0,.65.8.42.42,0,0,1-.43.29c-1.41,0-2.27,1.07-3.28,1.82a6.37,6.37,0,0,0-.67.61,2.11,2.11,0,0,1-.23.19,12.37,12.37,0,0,0-1.56,1.51c-.17.19-.28.44-.6.4a1,1,0,0,1-.36-.48A3.81,3.81,0,0,1,7.39,10c.53-.39.59-1.15,1.15-1.52,0,0,0-.24,0-.32a3.16,3.16,0,0,1-.23-2.65A4.23,4.23,0,0,0,8.13,4a3.27,3.27,0,0,1,.38-1.73A35.63,35.63,0,0,1,12,.58,4.43,4.43,0,0,1,13.59.28Z" transform="translate(0 0)"/><path class="cls-72" d="M21.62,61.4a6,6,0,0,0,1.66.29c1,.13,1.95.72,3,.7-.08.29-.43.22-.57.42-2.81-.28-5.64-.17-8.46-.28a5.91,5.91,0,0,1-.93-.42c-.24-.1-.44-.25-.34-.57a1.57,1.57,0,0,1,1.27-.42c.57-.31,1.2.07,1.77-.15A15.33,15.33,0,0,0,21.62,61.4Z" transform="translate(0 0)"/><path class="cls-73" d="M13.59,47.74a23.38,23.38,0,0,1,2.25,2.82,3.18,3.18,0,0,1,1.8,1.66c.15.39.77.54,1.15.82a.78.78,0,0,1,.35,1,1.33,1.33,0,0,0,0,1c.07.15.14.37.3.35.68-.07.79.49,1,.88a8.11,8.11,0,0,1,.63,1.75c-.29.17-.5,0-.68-.19a4.31,4.31,0,0,0-1.72-1.18,2.07,2.07,0,0,1-1.22-1.37.81.81,0,0,0-.68-.58c-.84-.19-1.33-.92-1.9-1.49-.77-.77-1.5-1.58-2.27-2.35-.05,0-.14-.09-.15-.15a4.81,4.81,0,0,0-.77-1.84c-.38-.8-.52-1.76-.87-2.56A5.87,5.87,0,0,0,9.36,44a2,2,0,0,1-.7-2.08c.08-.32.06-.64-.27-.79C7.46,40.7,7.07,39.8,6.52,39a5.92,5.92,0,0,1-.6-1.76c-.1-.31.15-.52.41-.66s.26-.29.08-.49A9.89,9.89,0,0,0,5,34.56a1.39,1.39,0,0,1-.53-1.51,2.23,2.23,0,0,0-.22-1.76,2.49,2.49,0,0,1-.16-1.38,23.24,23.24,0,0,1-.17-3.64,4.27,4.27,0,0,1,.8-1.91,1.44,1.44,0,0,1,.56-.56A4.73,4.73,0,0,0,5,26.47,7.33,7.33,0,0,1,5.21,29c0,.12-.07.27,0,.32.65.3.46,1.08.89,1.51.06.05.12.2.09.24-.43.71.16,1,.46,1.52A8.58,8.58,0,0,1,7.88,35c.21,1,1,1.63,1.48,2.45.1.18.27.33.29.54.1,1,.42,1.93.6,2.9,0,.07,0,.16,0,.2.56.57.75,1.39,1.41,1.9a2.06,2.06,0,0,1,.65,2.07c-.07.49.13,1-.14,1.5-.06.12.1.26.23.31C12.91,47.06,13.1,47.6,13.59,47.74Z" transform="translate(0 0)"/><path class="cls-74" d="M4.71,24.36a6.52,6.52,0,0,0-.48,4.53,3.78,3.78,0,0,1,0,1.06c-.1,1.17.91,2.19.37,3.42-.16.36.15.89.6,1.14.76.42,1,1.3,1.66,1.85.17.15,0,.25-.25.32s-.91.25-.35.81c.05,0,.11.11.1.17-.11,1.33,1,2.06,1.55,3,0,.09.25.1.37.15A.8.8,0,0,1,8.85,42a2,2,0,0,0,.59,1.84,1.66,1.66,0,0,1,.84,1.22c0,.13.05.33.14.38.74.41.68,1.15.79,1.82s.73,1.12.63,1.85c0,0,.17.14.27.18.39.15.55.37.4.81s-.07.7.44.76a.43.43,0,0,1,.28.17,16.15,16.15,0,0,0,3.14,3.36c.08.08.21.22.27.2.93-.34.9.5,1.08.93a1.76,1.76,0,0,0,1.07,1,3.46,3.46,0,0,1,1.77,1.27.51.51,0,0,0,.5.18.19.19,0,0,1,.28,0,12.09,12.09,0,0,1,.57,1.83c.16.57-.3.7-.63.68A3.58,3.58,0,0,1,19,59.86a1.2,1.2,0,0,1-.47-1.36,1,1,0,0,0,.06-.48c0-.12-.08-.23-.21-.25a.19.19,0,0,0-.22.14c-.15.32-.29.78-.69.67a1.81,1.81,0,0,1-1.13-1.08,1.78,1.78,0,0,0-1.11-1.31c-.29-.09-.35-.42-.32-.72a1.37,1.37,0,0,0-.56-1.23,21.25,21.25,0,0,1-3.3-3.6c-.12-.15-.26-.32-.23-.5.11-.69-.37-1.25-.36-1.91a.72.72,0,0,0-.27-.56.77.77,0,0,1-.29-1.14.29.29,0,0,0-.13-.41A3.72,3.72,0,0,1,8.24,44a3.8,3.8,0,0,0-1.42-2,2.21,2.21,0,0,1-1-1.65,2.31,2.31,0,0,0-.5-1.21,2.11,2.11,0,0,1-.47-1.64,2.8,2.8,0,0,0-.63-2.25A4.79,4.79,0,0,1,3.2,32.39a3.73,3.73,0,0,0-.3-1.78c-.27-.5.08-1,.09-1.44a9.65,9.65,0,0,1,.31-2.83C3.87,25.75,4,24.87,4.71,24.36Z" transform="translate(0 0)"/><path class="cls-75" d="M3.3,26.34a18.32,18.32,0,0,1-.19,3.24c-.19.81.32,1.42.23,2.15A5.6,5.6,0,0,0,4,34.53c.11.26.17.59.4.72.94.55.78,1.47.69,2.25a2.13,2.13,0,0,0,.52,1.72,1.56,1.56,0,0,1,.39.9,2.41,2.41,0,0,0,1.16,1.93A4.27,4.27,0,0,1,8.54,44.2c.28.69.55,1.46,1.4,1.75.44.16.24.53.06.75s-.16.56.16.73a.8.8,0,0,1,.47.85,1.13,1.13,0,0,0,.27.92.53.53,0,0,1,.06.59.8.8,0,0,0,.25.83c.81.94,1.59,1.91,2.45,2.83.28.3.67.41.91.73s.64.8.48,1.38c-.11.38.15.57.49.62a.89.89,0,0,1,.8.94c0,.69.78.84,1.09,1.34.08.13.5-.22.47-.44-.08-.47.19-.57.5-.53s.41.44.39.77-.29.47-.19.79a2,2,0,0,0,1.45,1.17,2.57,2.57,0,0,1,.88.13c.47.13.84,0,1-.5.27.15.35.35.15.62a2.35,2.35,0,0,0-.44.93,4.15,4.15,0,0,1-2.53-.28,3.07,3.07,0,0,1-1.2-.94.88.88,0,0,0-.46-.32,4.89,4.89,0,0,1-2.33-2.1A6.2,6.2,0,0,1,14,55.63c-.07-.34-.43-.55-.7-.76s-.42-.21-.42-.36c0-1.15-1.16-1.35-1.61-2.12S9.88,51,10,49.88c0-.2-.12-.34-.24-.48a5.71,5.71,0,0,1-1.23-2.27,3.69,3.69,0,0,0-1.24-1.91A.73.73,0,0,1,7,44.43a1.06,1.06,0,0,0-.74-1.38c-.9-.34-.89-1.24-1.13-2-.07-.22,0-.56-.22-.64-.81-.28-.94-1.1-1.4-1.65a1.37,1.37,0,0,1-.24-1.39A1.28,1.28,0,0,0,3,35.91a1.17,1.17,0,0,1-.25-.7,18.89,18.89,0,0,0-.83-3.85A2.51,2.51,0,0,1,2,30.12a18.49,18.49,0,0,0,.56-2.66C3,27.21,3.07,26.72,3.3,26.34Z" transform="translate(0 0)"/><path class="cls-76" d="M16,61.54c.09.37.42.38.68.52s.49.2.59.47c-.43.34-.89,0-1.34,0a4.86,4.86,0,0,1-2-.15c-.17-.1-.39,0-.56-.14h-.15a2.83,2.83,0,0,0-1.09,0c-.5.16-.66-.46-1.09-.6-.86-.26-1.69-.62-2.52-1-.37-.15-.72-.35-.79-.81L11,61.05c.59.22,1.14-.18,1.71-.07.58-.09,1,.29,1.59.38A6.14,6.14,0,0,0,16,61.54Z" transform="translate(0 0)"/><path class="cls-57" d="M13.31,62.25c.19,0,.41-.07.56.14C13.64,62.51,13.47,62.4,13.31,62.25Z" transform="translate(0 0)"/><path class="cls-6" d="M27,.14c-.38.33-.86,0-1.28.22s-.64.94-1.32.58a2.48,2.48,0,0,0-.16.21c-.41.51-.25,1.18-.46,1.75-.11.32.23.33.47.34s.54.1.38.52-.16.52.3.82a.23.23,0,0,1,.07.31c-.58.72.08,1.11.47,1.42a8.84,8.84,0,0,0,3.22,1.44c.16.15.34.28.3.54a1.89,1.89,0,0,1-1.86,0,12.09,12.09,0,0,0-3.4-.73,2,2,0,0,1-1-.33s-.07-.07-.11-.08c-.95-.17-1.3-.93-1.72-1.64a1,1,0,0,1-.18-.59,6,6,0,0,0-1-3.6c-.36-.64-.33-.77.32-1.14H27Z" transform="translate(0 0)"/><path class="cls-77" d="M20.07.14c-.47.38-.45.69-.08,1.21a4,4,0,0,1,.74,1.78c.09.6.4,1.18.17,1.81-.07.18,0,.29.13.42a1.14,1.14,0,0,1,.41.55c.11.51.29.84.89.8a.47.47,0,0,1,.42.33s0,0-.05,0a11.24,11.24,0,0,1-3.61-.32L17.74,5.67c-.09-.08-.26-.15-.26-.22,0-1.33-1-2.53-.51-3.92a.68.68,0,0,1,.25-.32L18.66.14Z" transform="translate(0 0)"/><path class="cls-78" d="M61.24,34.08c-.65.77-.63.78,0,1.64A1.53,1.53,0,0,1,61.57,37a4.83,4.83,0,0,0,.09,1.3l-1,.14c-.19-.46-.46-.89-.65-1.35.14-.51-.38-.55-.57-.83a4.19,4.19,0,0,1-.08-1.93c.21-.86-.11-1.2-1-1.22a.88.88,0,0,1-1-.88,2.36,2.36,0,0,1,.09-.83A1.18,1.18,0,0,0,56.93,30a.71.71,0,0,1-.36-.32,11,11,0,0,1-1.12-2.95c-.08-.73-.07-1.5-.94-1.87a.78.78,0,0,1-.44-.68,17.08,17.08,0,0,0-.63-3.23,1.27,1.27,0,0,1,0-.64c1,0,1,.94,1.42,1.42a4.93,4.93,0,0,1,1.28,3c0,.26.27.29.46.38.42.19.8.36.4,1a.67.67,0,0,0,.42,1.08c.53.14.87.49.8,1a2.52,2.52,0,0,0,1,2.19,4,4,0,0,1,1.47,2.5A4.16,4.16,0,0,0,61.24,34.08Z" transform="translate(0 0)"/><path class="cls-36" d="M46.86,6.9c-.5-.74-.9-1.57-1.93-1.72-.14,0-.14-.16-.18-.26a9.66,9.66,0,0,1-.6-2.24c-.1-.56-.62-1.4.18-2,.15-.12.3-.27.48-.26.64,0,1.27.08,1.91.12,0,.49-.06,1,.51,1.24a.61.61,0,0,1,.21.8,1.5,1.5,0,0,0,.49,2c.07,0,.18.17.16.21-.26.61.38,1.11.2,1.71-.1.3.15.47.26.69C48,7.3,47.44,6.86,46.86,6.9Z" transform="translate(0 0)"/><path class="cls-79" d="M46.86,6.9c.64-.39,1.14.12,1.69.28a23.09,23.09,0,0,0,2.12,1.69A7.63,7.63,0,0,1,53,12.08a3.13,3.13,0,0,1,.16,1.17,10.36,10.36,0,0,0,.59,3.41,3.65,3.65,0,0,1-.15,2.05,2.91,2.91,0,0,0-.16,1.57.87.87,0,0,1,.14.56c-.2.27-.32.64-.77.58-.54-.48-.43-1.12-.41-1.71,0-.81.19-1.62.2-2.44a15.12,15.12,0,0,0-.81-5.35A5.51,5.51,0,0,0,49.6,9.39a4.69,4.69,0,0,0-2.2-1c-.37,0-.83-.09-.82-.65A1.3,1.3,0,0,1,46.86,6.9Z" transform="translate(0 0)"/><path class="cls-36" d="M46.72.56c.24-.25.56-.09.84-.14C47.31.68,47,.52,46.72.56Z" transform="translate(0 0)"/><path class="cls-80" d="M29,8.17c-.28,0-.28-.22-.28-.42a5.82,5.82,0,0,1,.46-.53c.28-.26.28-.48,0-.77-.43-.49-.37-.92.23-1.24a4.34,4.34,0,0,1,1.34,1A2.88,2.88,0,0,0,32.38,7,12.39,12.39,0,0,0,35,7.46,3.75,3.75,0,0,0,36.81,8c1.89.16,3.78.37,5.68.41,1.35,0,2.71.17,4.07.12a1.24,1.24,0,0,1,.88.19.19.19,0,0,1-.08.23,1.33,1.33,0,0,1-.68.12c-2.78.09-5.55-.15-8.32-.17a4.39,4.39,0,0,0-1.53-.11,33.74,33.74,0,0,1-4.27-.1c-1.09-.11-2.18-.21-3.27-.29A.47.47,0,0,1,29,8.17Z" transform="translate(0 0)"/><path class="cls-81" d="M46.58,8.73c-2-.05-4,0-6-.16-1.6-.09-3.18-.34-4.77-.5A.81.81,0,0,1,35,7.46c.5-.33.71-1,1.41-1.12.61.19,1.22.41,1.84.58a19,19,0,0,0,3.09.54,7.19,7.19,0,0,0,4.09.86C45.85,8.32,46.35,8.19,46.58,8.73Z" transform="translate(0 0)"/><path class="cls-82" d="M46.58,8.73c-.91-.46-1.89-.17-2.83-.27a3.29,3.29,0,0,1-2.39-1l.7-.28a19.71,19.71,0,0,1,4.52.57,1,1,0,0,0,1,.52A3.72,3.72,0,0,1,49.91,9.4a5.51,5.51,0,0,1,1.71,1.75A13.22,13.22,0,0,1,52.34,13a14.19,14.19,0,0,1,.51,3.83,20.46,20.46,0,0,1-.22,2.81,2.76,2.76,0,0,0,.29,1.76c.39.54.08,1.14.11,1.7A38,38,0,0,1,53,27a1.05,1.05,0,0,1-.25.78,2.7,2.7,0,0,0-.2,1.75,2.83,2.83,0,0,1-.37,1.92.42.42,0,0,0-.28-.43A6.48,6.48,0,0,1,52,28a11.68,11.68,0,0,0-.07-4.21,3.93,3.93,0,0,1-.18-2.32c.19-2.62.09-5.23.06-7.85a3.41,3.41,0,0,0-.67-2,3.25,3.25,0,0,0-.28-.56,2.69,2.69,0,0,0-.6-.7,13.73,13.73,0,0,0-1.52-1c-.38-.35-.92-.33-1.33-.61Z" transform="translate(0 0)"/><path class="cls-83" d="M51.24,32.13c-.06-.24.08-.52-.15-.72a3.62,3.62,0,0,1,0-1.85.3.3,0,0,1,.16-.17.27.27,0,0,1,.27.17.54.54,0,0,1,0,.43,9.46,9.46,0,0,0-.15,1.84v.25C51.34,32.15,51.3,32.17,51.24,32.13Z" transform="translate(0 0)"/><path class="cls-45" d="M51.24,32.13l.12-.05c0,.29.12.61-.13.87Z" transform="translate(0 0)"/><path class="cls-82" d="M51.8,26.19a6,6,0,0,1,.12-1.85C51.87,25,52.09,25.59,51.8,26.19Z" transform="translate(0 0)"/><path class="cls-82" d="M51.66,28.31a4.2,4.2,0,0,1,.12-1.58C51.73,27.25,51.94,27.8,51.66,28.31Z" transform="translate(0 0)"/><path class="cls-82" d="M51.49,29.57c.07-.28,0-.6.15-.86,0,.43.14.87-.12,1.28Z" transform="translate(0 0)"/><path class="cls-84" d="M41.22,52c-.6-.08-1.06-.49-1.66-.62a7.58,7.58,0,0,0-2.47,0A4.68,4.68,0,0,1,35,51.26c-.57.2-1-.17-1.42-.41a4.82,4.82,0,0,0-1.83-.64,20.07,20.07,0,0,1-3.59-.9c-.16-.05-.48,0-.3-.37A1,1,0,0,1,29,49c2.11.13,4.18.56,6.27.76a35.06,35.06,0,0,1,4.24.51c.87.2,1.74.24,2.6.42C41.93,51.22,41.14,51.31,41.22,52Z" transform="translate(0 0)"/><path class="cls-85" d="M29,49H27.83a1.28,1.28,0,0,1-1.13.19c-.9-.14-1.81-.08-2.71-.24a7.77,7.77,0,0,0-1.6,0,16.27,16.27,0,0,1-2.51-.23.25.25,0,0,1-.13-.2c.11-.22.32-.26.52-.33a4.21,4.21,0,0,1,1-.07c2.47.21,5,0,7.42.35a.39.39,0,0,1,.26.28Z" transform="translate(0 0)"/><path class="cls-86" d="M29,48.73l-.14-.14c-.12-.53.14-.72.62-.74a4.81,4.81,0,0,1,.76,0,8.06,8.06,0,0,0,2,.09c.2,0,.42-.1.58.13-.07.39-.41.39-.7.46a6.09,6.09,0,0,0-1,.19H29Z" transform="translate(0 0)"/><path class="cls-87" d="M46.43,47.47l1-.18c.06,0,.17.07,0,.17-.46.33-1,.5-1.47.8a.74.74,0,0,1-.57.14.29.29,0,0,1-.14-.13c.14-.24-.29-.51,0-.74A4.35,4.35,0,0,0,46.43,47.47Z" transform="translate(0 0)"/><path class="cls-88" d="M45.87,48.17a3.56,3.56,0,0,1,1.57-.71,2.41,2.41,0,0,1-1.14.85A.27.27,0,0,1,45.87,48.17Z" transform="translate(0 0)"/><path class="cls-89" d="M45.17,48.87c-.38.09-.45-.32-.71-.42a.15.15,0,0,1,0-.21.65.65,0,0,1,.8.07h0c.1.15.33.11.42.28A.76.76,0,0,1,45.17,48.87Z" transform="translate(0 0)"/><path class="cls-90" d="M45.73,48.59c-.2,0-.41,0-.42-.28a1,1,0,0,0,.56-.14l.43.14A.79.79,0,0,1,45.73,48.59Z" transform="translate(0 0)"/><path class="cls-91" d="M36,47.3a3.91,3.91,0,0,1,1.86-.09c1.36,0,2.72.08,4.08.14a2.6,2.6,0,0,1,.47.09,1.48,1.48,0,0,1-1.46.06,7.17,7.17,0,0,0,1.45.29,3.21,3.21,0,0,1,.8.24c.38.22.46.45,0,.7h-.14c-1.9,0-3.77.38-5.68.3a36.47,36.47,0,0,0-4-.16,4.62,4.62,0,0,1,2.15-1.13c1-.11,1.88-.33,2.79-.36a18.76,18.76,0,0,1-1.88.12A.51.51,0,0,1,36,47.3Z" transform="translate(0 0)"/><path class="cls-92" d="M36.42,47.32h2a10.24,10.24,0,0,1-2.6.56,1.58,1.58,0,0,0-1,.27,4.16,4.16,0,0,1-1.46.72,7.71,7.71,0,0,0-2.25-.14c.5-.37,1.15-.29,1.69-.56.17-.36.53-.35.84-.43C34.52,47.49,35.49,47.55,36.42,47.32Z" transform="translate(0 0)"/><path class="cls-93" d="M43.19,48.73c.18-.23.3-.44-.11-.55a6.43,6.43,0,0,0-1.21-.28,1.79,1.79,0,0,1-1.16-.46h1.67l4,0c-.39.26-.84.07-1.26.14-.46.36-1,.11-1.42.09.28.13.79,0,.71.61v.14A3.26,3.26,0,0,1,43.19,48.73Z" transform="translate(0 0)"/><path class="cls-94" d="M17.11,37.47l.36-.43c.49-.58.39-1-.31-1.27l-.32-.13c-.38-.16-.73-.32-.18-.73.05,0,0-.17,0-.26-.14-.29.16-.54.07-.82s-.07-.32-.09-.49a11.61,11.61,0,0,1-.16-3.17c.06-.42.06-.84.09-1.26.06-1.09.77-1.5,1.74-1,.33.17.67.33,1,.52a1.55,1.55,0,0,1,.8,2,18.63,18.63,0,0,0-.63,3.38,2.37,2.37,0,0,0,.24,1.36,4.5,4.5,0,0,0,2.45,1.63,11,11,0,0,0,3,.54,2.49,2.49,0,0,1,1.13.35.34.34,0,0,1-.09.48,4.28,4.28,0,0,1-2.07-.09c-.53-.19-1.25-.24-1.58.21s.38.78.63,1.15a5,5,0,0,0,1.46,1.08,8.09,8.09,0,0,0,2.78,1.59c.29.07.67.13.71.57a.51.51,0,0,1-.53.08,16.54,16.54,0,0,1-4.82-2.2c-1.26-.86-2.4-1.85-3.61-2.76a1.38,1.38,0,0,0-1-.35,7.81,7.81,0,0,1-.82.14A.49.49,0,0,1,17.11,37.47Z" transform="translate(0 0)"/><path class="cls-95" d="M16,24.65a2,2,0,0,0-1.1.65,9.28,9.28,0,0,1-.9.76c-.31.22-.67.64-1,.27s-.77-.57-.66-1.25-.58-1.18-1.13-1.56A3.82,3.82,0,0,1,10,22.61a1.29,1.29,0,0,1-.22-1.34.37.37,0,0,1,.42-.09,9.56,9.56,0,0,0,2,.29,9.88,9.88,0,0,1,3.74.36c.77.32.93.65.51,1.39a3.12,3.12,0,0,0-.4,1.33Z" transform="translate(0 0)"/><path class="cls-96" d="M19.51,49.71a4.51,4.51,0,0,1-1.91-.6,5,5,0,0,1-3.07-2.58,1.62,1.62,0,0,1-.16-.45,38.76,38.76,0,0,1-.45-4.8c0-.34.31-.63.23-1,.26-.4.3-1,1-1a.45.45,0,0,1,.06.47,10.83,10.83,0,0,0-.37,2.83c-.09,2.71.65,4.68,3.6,5.68.44.15.9.23,1.35.38s.84.2.76.78A1.41,1.41,0,0,1,19.51,49.71Z" transform="translate(0 0)"/><path class="cls-97" d="M16.27,24.93a.27.27,0,0,1-.29-.28h0a.92.92,0,0,1,.48-.59c1.3-.63,2.45-1.58,4-1.71a3.12,3.12,0,0,0,1.16-.45c1.21-.67,2.55-1,3.78-1.65s2.79-1.08,4.19-1.62a3.78,3.78,0,0,1,2.64-.44c1.78.74,3.55,1.5,5.25,2.41.22.12.56.17.54.54-.28.21-.54.05-.79-.07-1.56-.71-3.14-1.37-4.68-2.12a1.94,1.94,0,0,0-1.8,0,9.58,9.58,0,0,1-2.26.95,10.05,10.05,0,0,0-2.77,1.16l-.19.08c-2.78,1.1-5.52,2.26-8.24,3.49A2.21,2.21,0,0,1,16.27,24.93Z" transform="translate(0 0)"/><path class="cls-7" d="M17,33.8a1.62,1.62,0,0,1-.28.85,4.33,4.33,0,0,1-1,.63A1.32,1.32,0,0,1,14,33.93a1.86,1.86,0,0,1,.6-1.25,1.15,1.15,0,0,0,.26-.88,21.09,21.09,0,0,1,.36-5.72c0-.22,0-.54.39-.59l.06.05a.48.48,0,0,1,.08.16.64.64,0,0,1,.05.36,2.41,2.41,0,0,0-.17.69,16.78,16.78,0,0,0-.1,2.92c0,.53,0,1.07,0,1.6A9.42,9.42,0,0,0,15.31,33c-.05.23-.21.41-.27.64s-.15.52.09.71a.73.73,0,0,0,.79.1,1.67,1.67,0,0,0,.69-.57A.31.31,0,0,1,17,33.8Z" transform="translate(0 0)"/><path class="cls-98" d="M19.79,48.73a5.43,5.43,0,0,1-4.64-2.89,6.49,6.49,0,0,1-.49-3.4,14.54,14.54,0,0,1,.48-3.15.48.48,0,0,1,.28-.28c.2.3.05.58,0,.87a13.45,13.45,0,0,0-.06,4.9,5.32,5.32,0,0,0,3.91,3.42c.2.06.42,0,.54.25v.14c.05,0,.07.06.05.09S19.81,48.73,19.79,48.73Z" transform="translate(0 0)"/><path class="cls-99" d="M16.27,24.93c1.08-.51,2.15-1.06,3.26-1.53,1.79-.77,3.6-1.49,5.4-2.24a.9.9,0,0,1,.66-.14c-.06.34-.36.41-.61.52-2.89,1.31-5.8,2.58-8.67,3.92-.23.1-.47.24-.73.05l0,0Z" transform="translate(0 0)"/><path class="cls-100" d="M10.2,21.27h-1c-1.77-.14-3.51-.5-5.26-.75a.23.23,0,0,1-.15-.17c0-.23.11-.39.36-.41a22.13,22.13,0,0,0,5.13.59c.44,0,.95-.05,1.06.59l1.39,0c0,.21-.18.27-.34.25A4.12,4.12,0,0,1,10.2,21.27Z" transform="translate(0 0)"/><path class="cls-101" d="M15.28,44.93a.79.79,0,0,1-.28-.62,15.76,15.76,0,0,1,.42-5.3.29.29,0,0,1,.14-.28c.15-.07.26-.24.45-.14.07.38.1.77.15,1.16-.22.26-.64.37-.64.81a14.14,14.14,0,0,0-.13,3.73,1.14,1.14,0,0,1,0,.55Z" transform="translate(0 0)"/><path class="cls-102" d="M3.86,20.42a51.07,51.07,0,0,1,5.36.85,2.7,2.7,0,0,1-.85.14,24,24,0,0,0-3.27-.55,4,4,0,0,0-1.38-.16v-.14a.09.09,0,0,1,0-.1s0-.06,0-.06A.11.11,0,0,1,3.86,20.42Z" transform="translate(0 0)"/><path class="cls-103" d="M17.11,37.47h.29a8.74,8.74,0,0,0-.24,2.22,5.12,5.12,0,0,0,.52,2.46c.06.29.3.53.27.85a.29.29,0,0,1-.19.27c-.75-.36-.74-1.16-.93-1.78a6.54,6.54,0,0,1-.17-3.59c.05-.15.08-.33.31-.3Z" transform="translate(0 0)"/><path class="cls-94" d="M17,37.6a.29.29,0,0,0-.14.28L16.7,38c-.25.18-.33.57-.71.57l-.43.14a4.63,4.63,0,0,1,.83-1C16.56,37.54,16.73,37.33,17,37.6Z" transform="translate(0 0)"/><path class="cls-104" d="M21.34,58h-.28a1.31,1.31,0,0,1-.53-1c0-.55-.59-.8-.62-1.32,0,0-.09-.06-.15-.07a1,1,0,0,1-.89-1.32c.23-.56.34-.92-.37-1.2-.31-.11-.44-.61-.92-.45-.08,0-.17-.08-.17-.19,0-.83-.59-1.15-1.18-1.49a.89.89,0,0,1-.39-.4,4.16,4.16,0,0,1,2,.32,2.65,2.65,0,0,0,1.69.1,1,1,0,0,1,1.32.32,1.25,1.25,0,0,0,1.46.32,4.61,4.61,0,0,1,2.36.05.8.8,0,0,1,.51.35.31.31,0,0,1-.1.39c-.47.17-.92-.18-1.39-.06l-.27,0c-.18,0-.33.12-.51.13a3.17,3.17,0,0,0-1.32,3.72c.13.35,0,.64-.09,1A2.62,2.62,0,0,0,21.34,58Z" transform="translate(0 0)"/><path class="cls-105" d="M25.15,52.11a3.63,3.63,0,0,0-2.77-.3c-.66.18-1.21.29-1.66-.38-.28-.4-.78-.37-1.21-.45,0-.42.31-.84,0-1.27a1.46,1.46,0,0,1,1-.28.76.76,0,0,1,.71-.18c1.49.23,2.86.92,4.36,1.08a1.29,1.29,0,0,1,.92.48A5.3,5.3,0,0,0,29,52.56a.53.53,0,0,1,.25.24.33.33,0,0,1,0,.32,1,1,0,0,1-.92-.15,3.93,3.93,0,0,0-2.47-.62A.82.82,0,0,1,25.15,52.11Z" transform="translate(0 0)"/><path class="cls-106" d="M52.78,27.74l.14-6.33.7-.57a24.67,24.67,0,0,1,.56,2.66c.09.74.18,1.36,1.07,1.5.17,0,.2.23.2.41,0,.59.36,1.16.16,1.78a.14.14,0,0,0,0,.13c.74.53.54,1.51,1,2.15a1.11,1.11,0,0,0,.32.36,1.26,1.26,0,0,1,.67,1.7c-.3,1,.08,1.49,1.08,1.34a.92.92,0,0,1,.9,1.19,8.34,8.34,0,0,0-.09,2.28c-.08.45.27.55.57.7.24.45.73.8.56,1.41,0,.32.09.66-.16.94a.32.32,0,0,0,0,.45c.33.36.17.62-.14.86a4.18,4.18,0,0,1-1.12-2.16.38.38,0,0,1,.07-.33c.66-.61.24-1-.28-1.3s-1.06-.75-.94-1.54c.05-.32-.16-.41-.5-.35-.79.12-1-.06-1.21-.82a2.34,2.34,0,0,0-.23-.66,5.48,5.48,0,0,1-.88-2.74c0-.1-.08-.26-.16-.29-1.27-.44-1.76-1.57-2.3-2.64Z" transform="translate(0 0)"/><path class="cls-58" d="M1.75,49c.44.45.3,1,.28,1.55-.68-.06-.69-.46-.5-1C1.6,49.4,1.67,49.2,1.75,49Z" transform="translate(0 0)"/><path class="cls-107" d="M22.33,48.73c1.84-.06,3.66.29,5.5.28a24.16,24.16,0,0,0,4.51,1.11c.81.09,1.34.73,2.09.92.2.06.39.15.59.22v.85a26.43,26.43,0,0,0-3,.14c-.42.32-.82.09-1.23,0-2-2-4.52-2.59-7.17-2.95C23.18,49.2,22.63,49.24,22.33,48.73Z" transform="translate(0 0)"/><path class="cls-108" d="M25.15,52.11a7.79,7.79,0,0,1,4.09,1,.58.58,0,0,1,.41,0,5.3,5.3,0,0,0,2.75.55,5.84,5.84,0,0,0,1.5-.15c.87-.27,1.8-.29,2.67-.57a10.5,10.5,0,0,1,2.82-.7.23.23,0,0,1,0,.21.47.47,0,0,1-.35.24,23.18,23.18,0,0,0-3.35,1.24,11.33,11.33,0,0,1-2.05.71,8.15,8.15,0,0,1-4.27-.15,15.73,15.73,0,0,1-2.78-1.32,2.63,2.63,0,0,0-1-.33c-.29-.05-.56-.13-.64-.46Z" transform="translate(0 0)"/><path class="cls-109" d="M39.41,52.44l0-.19c.23,0,.53-.1.58.29a59.93,59.93,0,0,1,.12,6.7,1.43,1.43,0,0,1-.14.61h0a1.21,1.21,0,0,1-1.27,0Q36,58.74,33.41,57.48a1.46,1.46,0,0,0-1.52-.14,1.14,1.14,0,0,1-1,0,1.38,1.38,0,0,0-1.32.11c-1.78.82-3.56,1.62-5.37,2.36-1.08.35-1.32.16-1.37-1-.08-1.94.24-3.88.16-5.83a.75.75,0,0,1,.34-.72l.3,0c.51,0,1.05,0,1.24.62a.65.65,0,0,1-.67,0c-.54-.26-.67,0-.67.48,0,1.81,0,3.62,0,5.42,0,.7.09.73.75.43,1.66-.76,3.34-1.5,5-2.27a1.86,1.86,0,0,1,2-.14.82.82,0,0,0,.81-.08,1.35,1.35,0,0,1,1.28,0c1.8.79,3.59,1.63,5.4,2.41.79.34.84.31.84-.51,0-1.71,0-3.43,0-5.14A1.65,1.65,0,0,0,39.41,52.44Z" transform="translate(0 0)"/><path class="cls-110" d="M36.57,53c-.64.42-1.44.36-2.1.65-1.1.48-2.24.2-3.35.28-.61,0-1.26-.5-1.88-.79v-.28c.49-.29,1.07-.38,1.55-.7l1.27.14a11.38,11.38,0,0,1,2.07.76A5.14,5.14,0,0,0,36,53C36.16,53,36.36,52.82,36.57,53Z" transform="translate(0 0)"/><path class="cls-111" d="M40,59.85c0-2.44,0-4.88,0-7.31.14.11.12.26.12.41.08,1,.22,2,.21,3a16.54,16.54,0,0,1,0,3.3A1,1,0,0,1,40,59.85Z" transform="translate(0 0)"/><path class="cls-111" d="M33.46,57.32l5.26,2.33a2.26,2.26,0,0,0,1.23.2l-.14.29A4.58,4.58,0,0,1,38.12,60a14.93,14.93,0,0,0-1.55-.43c-1.25-.34-2.14-1.43-3.49-1.58a11.5,11.5,0,0,1-1.17,0c-1.31-.4-2.35.32-3.42.88a8.78,8.78,0,0,1-1.93.81c-.24-.49.29-.65.42-1,.23-.51.81-.45,1.2-.7a3.44,3.44,0,0,1,1.71-.74c1.07,0,2.12-.18,3.18-.06C33.2,57.24,33.35,57.21,33.46,57.32Z" transform="translate(0 0)"/><path class="cls-67" d="M38.12,60a8.76,8.76,0,0,1,1.69.14A1.87,1.87,0,0,1,38.12,60Z" transform="translate(0 0)"/><path class="cls-112" d="M2.73,35.21c.19.23.26.54.52.73a1.12,1.12,0,0,1,.25,1.35A1.9,1.9,0,0,0,3.88,39c.37.67,1.08,1,1.35,1.57a9.72,9.72,0,0,1,.43,1.61,1,1,0,0,0,.71.79c.82.33,1,.64.82,1.49-.05.25-.12.45.14.61a3.29,3.29,0,0,1,1.43,2.06A4.81,4.81,0,0,0,10.1,49.4a.51.51,0,0,1,.15.56,1.59,1.59,0,0,0,.54,1.48,15.66,15.66,0,0,0,1.51,1.75c.31.27,1.17.31.62,1.11-.09.13.19.22.32.31.55.4,1.08.78,1.1,1.59A1.27,1.27,0,0,0,15,57.29c.49.29.46,1,1,1.35s.67.79,1.19.92c.9.22,1.28,1.06,1.94,1.56a3.48,3.48,0,0,1-1.84,0c-1.23-.25-2.25-1-3.45-1.38a2.49,2.49,0,0,1-1.49-2.23s0-.13,0-.14c-.58-.24-.36-1-.88-1.32-.77-.47-1.1-1.37-1.79-1.92a2.86,2.86,0,0,1-1-2s0-.1-.06-.12C7.15,51.2,7.05,49.44,6,48.34a2.13,2.13,0,0,1-.5-1.13,3.49,3.49,0,0,0-.74-1.64c-.87-1.08-.71-2.52-1.25-3.72,0-.06-.06-.16,0-.2.65-.89-.07-1.44-.57-1.93a2.15,2.15,0,0,1-.61-1.84c.08-.21.27-.38.18-.65A3.07,3.07,0,0,1,2.73,35.21Z" transform="translate(0 0)"/><path class="cls-113" d="M11.76,60.42c-.14,0-.39-.05-.39-.08-.08-.89-1-.76-1.45-1.22-.19-.21-.45-.32-.43-.66a.3.3,0,0,0-.1-.24C8.59,58,8.34,57.34,8,56.68c-.17-.36-.48-.43-.88-.21s-.79.11-.78-.51a.47.47,0,0,0-.17-.43c-.1-.09-.27-.21-.26-.3.18-1.25-.72-2.12-1.09-3.18a13.65,13.65,0,0,1-1-2.48c.28,0,.56,0,.72.31a3.13,3.13,0,0,0,2.2,1.74,2,2,0,0,1,1.57,1.89,4.45,4.45,0,0,0,2.81,3.81,1.18,1.18,0,0,1,.77,1.12A4.29,4.29,0,0,1,11.76,60.42Z" transform="translate(0 0)"/><path class="cls-114" d="M3.58,20.56A2.39,2.39,0,0,1,2,18.18c0-1.44.19-2.86.25-4.29A21.6,21.6,0,0,1,3,9.73,2.32,2.32,0,0,1,4,8c0,.32-.1.63-.13,1s0,.4.23.44.59,0,.57.35c0,.49.36,1,0,1.47a.75.75,0,0,0-.07,1,5.7,5.7,0,0,1-.63,2.26,6.51,6.51,0,0,0-.48,1.67,8.72,8.72,0,0,1-.23,1.52A4,4,0,0,0,3.46,20C3.52,20.16,3.65,20.34,3.58,20.56Z" transform="translate(0 0)"/><path class="cls-115" d="M3.58,20.56a4.18,4.18,0,0,1-.44-3.33c.17-.57.09-1.21.26-1.78.34-1.08.77-2.13,1.17-3.2.69-.39.79-1.22,1.29-1.77S6.7,9.6,7.39,10c.2.49-.09.94-.15,1.41,0,.23-.23.33-.37.49a5.8,5.8,0,0,0-1.51,2.56,30.59,30.59,0,0,1-1.19,3.19,4.27,4.27,0,0,0-.38,2.44.34.34,0,0,1-.07.33v.14Z" transform="translate(0 0)"/><path class="cls-116" d="M23.31,52.25a2.09,2.09,0,0,0-.28,1.2c0,1.77,0,3.54,0,5.31,0,1.23.17,1.34,1.27.82a.17.17,0,0,1,0,.27c-1.18.5-2-.14-2-1.49a5.89,5.89,0,0,1,.36-2.15,13,13,0,0,0,.26-3.68A.43.43,0,0,1,23.31,52.25Z" transform="translate(0 0)"/><path class="cls-117" d="M24.3,59.85v-.27c1.79-.64,3.44-1.56,5.17-2.32A1.47,1.47,0,0,1,31,57.17a.83.83,0,0,0,.87,0,1.42,1.42,0,0,1,1.61.14,2.58,2.58,0,0,0-1.75.11,1,1,0,0,1-.69,0,3.17,3.17,0,0,0-2.61.62,7.42,7.42,0,0,0-1.43.66A26.13,26.13,0,0,1,24.3,59.85Z" transform="translate(0 0)"/><path class="cls-118" d="M29,8.17a10,10,0,0,0,1.65.11,46.75,46.75,0,0,0,7,.31c.22,0,.48-.07.66.15a.74.74,0,0,1-.59.18c-2,0-4,.05-6,0a3.83,3.83,0,0,0-1.26-.11c-1.45,0-2.9,0-4.36-.08-1.06,0-2.14-.11-3.21-.1a19.41,19.41,0,0,0-3.4-.44.73.73,0,0,1-.81-.42c.19-.31.47-.58.43-1A25,25,0,0,1,22.75,7,5.4,5.4,0,0,0,25,7.45c1,.1,1.89.67,2.89.81A1.33,1.33,0,0,0,29,8.17Z" transform="translate(0 0)"/><path class="cls-119" d="M18.66,7.75c.57.48,1.25.11,1.87.26s1.5.22,2.22.44a.86.86,0,0,1-.72.19c-2.63,0-5.24-.11-7.87-.2a6.81,6.81,0,0,0-3.57,1.08c-.25.14-.46.44-.81.2a8.81,8.81,0,0,1,3.43-2.48c.35-.12.75,0,1.08-.2a19.29,19.29,0,0,1,2.28.8A2.86,2.86,0,0,0,18.66,7.75Z" transform="translate(0 0)"/><path class="cls-120" d="M9.78,9.72c.09,0,.23,0,.27,0,.84-.92,2.07-1,3.14-1.35a8.93,8.93,0,0,1,3.53,0c1.33.1,2.66.05,4,.1.68,0,1.36,0,2,0l8.36.14c.19,0,.38,0,.52.14-.29.28-.66.2-1,.2H21c-1.86,0-3.71-.07-5.56,0a10.27,10.27,0,0,0-4,.59,7.59,7.59,0,0,0-1.51.68.35.35,0,0,1-.31-.06.24.24,0,0,1,0-.3Z" transform="translate(0 0)"/><path class="cls-121" d="M3.72,20.42a4.34,4.34,0,0,1,.38-3.06c.37-1.05.89-2,1.16-3.13a4.81,4.81,0,0,1,2-2.82.43.43,0,0,1,.29.42c0,.3-.21.49-.32.74a30.55,30.55,0,0,0-3.35,7.71v.14Z" transform="translate(0 0)"/><path class="cls-119" d="M7.1,12.39l.43-.56L9,10.28c.18-.18.32-.42.62-.42v.28c.08.15,0,.25-.1.35a8.71,8.71,0,0,0-1.3,1.13c-.18.26-.41.48-.61.73a.51.51,0,0,1-.26.14A.32.32,0,0,1,7.1,12.39Z" transform="translate(0 0)"/><path class="cls-56" d="M60.11,37a.56.56,0,0,1-.75-.28c-.15-.22,0-.33.18-.42C60,36.33,60.26,36.54,60.11,37Z" transform="translate(0 0)"/><path class="cls-122" d="M20.92,8.74H38.26c3.05,0,6.1.21,9.16.13a1.5,1.5,0,0,1,.73.08c.15.07.2.18,0,.3a1.63,1.63,0,0,1-.9.09c-3.34-.29-6.69,0-10-.13-1.42,0-2.84,0-4.26-.13H22.09a2.43,2.43,0,0,1-1-.1A.25.25,0,0,1,20.92,8.74Z" transform="translate(0 0)"/><path class="cls-81" d="M48.29,9.15c-.25-.24-.62-.07-.87-.28V8.73a1.52,1.52,0,0,1,1.41.55C48.59,9.47,48.41,9.43,48.29,9.15Z" transform="translate(0 0)"/><path class="cls-123" d="M51.07,11.29a8.39,8.39,0,0,0-2.76-.44H19.74A9.24,9.24,0,0,0,16,11.7a4.59,4.59,0,0,1-4.1-.72.8.8,0,0,1-.41-.89,1,1,0,0,1,.71-.56s.11,0,.12.07c.25,1.24,1.23,1.36,2.23,1.47a7.73,7.73,0,0,0,3.37-.39,8,8,0,0,1,2.24-.18h11.7a38.78,38.78,0,0,0,4.7-.15q6.3,0,12.61,0a5.36,5.36,0,0,1,.89.16A1.94,1.94,0,0,1,51,11C51.07,11.06,51.26,11.11,51.07,11.29Z" transform="translate(0 0)"/><path class="cls-124" d="M51,11a1.32,1.32,0,0,1-.73-.28,6.62,6.62,0,0,0-3-.25,14.3,14.3,0,0,1-3.46-.14c-.06-.47.22-.68.62-.76A12.85,12.85,0,0,1,47,9.3a4.51,4.51,0,0,1,3.39,1A1.21,1.21,0,0,1,51,11Z" transform="translate(0 0)"/><path class="cls-125" d="M50.38,10.28c-.14,0-.32,0-.41-.09a3.77,3.77,0,0,0-3-.75,18.67,18.67,0,0,0-3,.07c-2.13,0-4.26.08-6.4,0a8.06,8.06,0,0,0-2.14-.09,13,13,0,0,1-1.87-.06c-.23-.09-.53-.09-.56-.43,5.08.3,10.17,0,15.24.27a.77.77,0,0,0,.55.13A4,4,0,0,1,50.38,10.28Z" transform="translate(0 0)"/><path class="cls-126" d="M40,42a20.5,20.5,0,0,1-9.39,1.48,1,1,0,0,1-.26-.09c.68-.44,1.39-.09,2-.08a1.07,1.07,0,0,1-.27,0c-.13-.36.17-.44.38-.57a.74.74,0,0,1,.4-.1,11,11,0,0,0,3.47-.43,22.92,22.92,0,0,0,3.82-1.3,15.37,15.37,0,0,0,4.49-3.21c.45-.43.87-.88,1.32-1.31.18-.16.33-.4.64-.32a.37.37,0,0,1,0,.29,21.16,21.16,0,0,1-3.37,3.45c-.47.34-.9.72-1.36,1.08a.91.91,0,0,1-.16.11c-.38.25-.77.47-1.17.7C40.4,41.79,40.11,41.75,40,42Z" transform="translate(0 0)"/><path class="cls-127" d="M32.05,43.24h.83v.15h-2.6l-.06,0c-.36-.19-.78,0-1.16-.13h0l-.06,0c-.22-.17-.51,0-.74-.13a12.65,12.65,0,0,1-6.29-2.62q-.48-.36-.93-.75c-.17-.14-.31-.2-.47,0-.15-.06-.17-.21-.24-.33a2,2,0,0,0-.26-.32,1.18,1.18,0,0,0-.35-.23.8.8,0,0,1-.16-.08c-.32-.31-.59-.66-.94-.94-.14-.15-.43-.22-.33-.53,1-.06,1.47.71,2.09,1.21,2.07,1.65,4.13,3.27,6.79,3.87.34.07.6.38,1,.28a3.54,3.54,0,0,1,1.71.11A7.1,7.1,0,0,1,32.05,43.24Z" transform="translate(0 0)"/><path class="cls-128" d="M23.78,46.46a60.63,60.63,0,0,0,6.59.46c.52,0,1,.07,1.55.11.15.41-.18.43-.41.47a24.67,24.67,0,0,1-8.44-.17,1.63,1.63,0,0,1-.19-.09c-.21-.29-.81-.43-.55-.91s.7,0,1.05,0A1.14,1.14,0,0,1,23.78,46.46Z" transform="translate(0 0)"/><path class="cls-129" d="M48,36.62a16.92,16.92,0,0,1-6,4.65.21.21,0,0,1-.28-.11c-.09-.15,0-.24.13-.32h0c.82-.72,1.89-1.06,2.71-1.79a12.2,12.2,0,0,0,1.42-1.62c.42-.36.58-1,1.18-1.15s.85-.74,1.23-1.16.45-1,1.11-1c.1.72-.5,1.1-.79,1.63A9,9,0,0,1,48,36.62Z" transform="translate(0 0)"/><path class="cls-130" d="M22.89,47a6.52,6.52,0,0,0,2.31.39,15.87,15.87,0,0,0,5.54-.11c.39-.1.91.29,1.18-.29l.56,0a5.84,5.84,0,0,0,1.32.06c.14,0,.33,0,.36.13s-.11.3-.27.35a8.52,8.52,0,0,1-1.73.33,9.82,9.82,0,0,1-2.1,0c-1.07,0-2.13.24-3.21.15-1.3-.11-2.61-.1-3.9-.34a3.13,3.13,0,0,1-.81-.22c-.34-.34-.95-.44-.95-1.08C21.88,46.3,22.35,46.76,22.89,47Z" transform="translate(0 0)"/><path class="cls-131" d="M20.36,39.29c.17.11.12.3.16.45l0,.4a10.42,10.42,0,0,0-.06,2.09c0,1-.22,1.27-1.14,1.57a2.46,2.46,0,0,1-.89.16.79.79,0,0,1-.22-.06.23.23,0,0,1-.13-.17c.08-.28.41-.38.48-.66a13.09,13.09,0,0,1,.94-2.92A1.9,1.9,0,0,1,20.36,39.29Z" transform="translate(0 0)"/><path class="cls-132" d="M18.24,43.8a2.73,2.73,0,0,0,1.1-.21,1.31,1.31,0,0,0,1-1.45,4.11,4.11,0,0,1,.11-2c0,.79,0,1.58,0,2.37a4.25,4.25,0,0,0,1,2.54c-.19.34-.78,0-.83.45s.46.46.4.84a1.4,1.4,0,0,1-1.59-1.07,1.61,1.61,0,0,0-1.12-1.11C18.27,44.07,18.17,44,18.24,43.8Z" transform="translate(0 0)"/><path class="cls-133" d="M30.08,47.88a23,23,0,0,0,4.12-.57c-.65-.27-1.24,0-1.72-.26A12,12,0,0,1,36,47.3l.45,0c-.79.51-1.74.31-2.6.56l-1.06.29c-.51,0-1,0-1.53,0A3.47,3.47,0,0,1,30.08,48S30,48,30,47.93,30.07,47.88,30.08,47.88Z" transform="translate(0 0)"/><path class="cls-134" d="M21.06,46.33,21,46.21c-.17-.32-.78-.47-.56-.93s.72-.14,1.09-.23a7.6,7.6,0,0,0,2.26,1.41c-.29.07-.54-.12-.81-.13s-.42-.23-.56.05.17.32.31.44a1.18,1.18,0,0,1,.17.22l-1.69-.56C21.07,46.51,21,46.46,21.06,46.33Z" transform="translate(0 0)"/><path class="cls-135" d="M48,36.62a13.87,13.87,0,0,1,1.1-1.85,2,2,0,0,0,.31-.69c-.16-.21,0-.4.07-.58a7.51,7.51,0,0,0,.82-5.39.72.72,0,0,1,0-.41c.23-.27.32,0,.44.11a.85.85,0,0,1,.09.22,8.4,8.4,0,0,1-.68,5.49c-.07.15-.1.31-.16.46A10.06,10.06,0,0,1,48,36.62Z" transform="translate(0 0)"/><path class="cls-136" d="M50,34a8.13,8.13,0,0,1,.55-2,9.9,9.9,0,0,0,.13-4.09c.29,0,.38.19.39.39a5.11,5.11,0,0,1,.19,1.16,14.39,14.39,0,0,1-.15,2A9,9,0,0,1,50,34Z" transform="translate(0 0)"/><path class="cls-137" d="M41.78,40.84c-.1.19-.08.34.15.43a4.52,4.52,0,0,1-1.13.42c-.15.08-.3.12-.28-.14C41,41.37,41.3,41,41.78,40.84Z" transform="translate(0 0)"/><path class="cls-138" d="M40.52,41.55c.06.12.17.12.28.14A1.82,1.82,0,0,1,40,42C40,41.6,40.36,41.73,40.52,41.55Z" transform="translate(0 0)"/><path class="cls-139" d="M29.06,43.25c.39,0,.81-.16,1.16.13A2.3,2.3,0,0,1,29.06,43.25Z" transform="translate(0 0)"/><path class="cls-139" d="M28.21,43.11c.26,0,.53-.11.74.13A1.2,1.2,0,0,1,28.21,43.11Z" transform="translate(0 0)"/><path class="cls-140" d="M51.24,29.44c-.29-.48-.14-1.12-.58-1.55h0c-.07-.31-.34-.52-.43-.82s-.38-.63-.17-1c.33-.11.45.13.57.35a8.09,8.09,0,0,1,.45,1.05,13.09,13.09,0,0,1,.28,1.95A.27.27,0,0,1,51.24,29.44Z" transform="translate(0 0)"/><path class="cls-141" d="M11.34,18.45a2.2,2.2,0,0,1-.43,1.1,5.28,5.28,0,0,1-2.58.4c-1.15-.06-2.3-.06-3.45,0-.22,0-.47.09-.65-.13a.64.64,0,0,1,0-.54c.64-1.72,1.32-3.43,2.11-5.1A.34.34,0,0,1,6.45,14c1,.17,1.91,0,2.86.11a1.25,1.25,0,0,1,1.15.86c.35.77.42,1.62.82,2.37C11.47,17.72,11.11,18.1,11.34,18.45Z" transform="translate(0 0)"/><path class="cls-142" d="M32.2,18.31a4.35,4.35,0,0,0-2.49.45c-1.44.52-2.86,1.1-4.28,1.66a3.26,3.26,0,0,0-1.19.34,6.37,6.37,0,0,1-.77.33,1.42,1.42,0,0,1-1.39-.28c-.34-.32-.24-.78-.15-1.19a3.31,3.31,0,0,1,.25-.66A8.5,8.5,0,0,1,25,16.54a.86.86,0,0,0,.59-.64,10.42,10.42,0,0,1,2.7-.7c.19-.08.43-.15.57.05s0,.36-.13.51a2.6,2.6,0,0,0-.45,1c-.14.65.15,1,.83,1a15.58,15.58,0,0,0,2.16-.15c.56-.05,1.15-.13,1.44.55C32.54,18.45,32.37,18.4,32.2,18.31Z" transform="translate(0 0)"/><path class="cls-143" d="M33.62,14.91a11.39,11.39,0,0,1,3.23.44c.09.09.23.06.32.13a20.4,20.4,0,0,1,3.58,3.09,20.38,20.38,0,0,0,3,2.78c1.13,1,2.3,2,3.37,3.07.16.16.34.33.27.61a.27.27,0,0,1-.26.13.68.68,0,0,1-.2-.07,14.75,14.75,0,0,0-2.69-1.88c-.87-.45-1.64-1.05-2.46-1.58-1-.62-2-1.19-3-1.84A20.2,20.2,0,0,1,35,16.25a4.42,4.42,0,0,0-1-.71c-.21-.14-.46-.25-.51-.54Z" transform="translate(0 0)"/><path class="cls-144" d="M32.62,18.17c-.76-.62-1.61-.25-2.43-.2a3.33,3.33,0,0,1-1.75-.08c-.55-.29-.57-1.24-.15-1.91a1.94,1.94,0,0,1,.23-.27c.37-.42.16-.53-.28-.51a7.3,7.3,0,0,1,2.37-.28,9.37,9.37,0,0,1,1.67-.06c.4,0,.22.24.06.32-.66.34-.42.68-.07,1.09a3.92,3.92,0,0,0,1.09.84c1.54.87,3.1,1.69,4.68,2.5,1,.94,2.4,1.41,3.45,2.34.2.17.53.25.42.62a.74.74,0,0,1-.68-.07c-1.65-.81-3.33-1.57-4.93-2.5-1-.59-2.14-.91-3.16-1.49A1.24,1.24,0,0,1,32.62,18.17Z" transform="translate(0 0)"/><path class="cls-145" d="M22.33,18.87c0,.27-.14.49-.21.73s-.25.86.08,1.11a1.43,1.43,0,0,0,1.38.19l1.35-.52c.18-.07.35-.16.5,0-1,.34-1.87.79-2.82,1.17a9.9,9.9,0,0,0-1.86.89c-.39.27-.86.06-1.31.26A18.54,18.54,0,0,0,16,24.65c-.3-.58,0-1,.3-1.49.41-.68.3-.91-.43-1.18A11.83,11.83,0,0,0,12,21.67a3.58,3.58,0,0,1-1.81-.4c.52-.07,1.05.13,1.55-.12H17.4a2.8,2.8,0,0,0,2.3-.72A14.4,14.4,0,0,0,21.75,19,.51.51,0,0,1,22.33,18.87Z" transform="translate(0 0)"/><path class="cls-146" d="M47.28,25.07a6.76,6.76,0,0,0-1.77-1.92c-1.09-1-2.26-2-3.43-2.91-.94-.75-1.43-2-2.39-2.58S37.88,16,36.85,15.35a.7.7,0,0,1,.56.14,16.37,16.37,0,0,1,6.27,4,29.39,29.39,0,0,1,2.1,2.34c.6.76,1.19,1.53,1.75,2.33a9.93,9.93,0,0,1,1.6,5.13,7,7,0,0,1-.11.89c0,.15.15.06.06.08s0,0,0-.06-.07-.45.29-.29a2,2,0,0,1-.24,1.55l-.21.28c-.08.11-.15.26-.32.2a.3.3,0,0,1-.17-.28c-.08-1.15-.55-2.23-.59-3.37,0-.94-.35-1.83-.36-2.76C47.36,25.4,47.2,25.28,47.28,25.07Z" transform="translate(0 0)"/><path class="cls-147" d="M49.25,29.86c-.22.12,0,.4-.29.63a26.83,26.83,0,0,0-.33-3.77,1.51,1.51,0,0,0-.32-.92c-.71-.79-1-1.87-1.61-2.64s-1.23-1.55-1.93-2.25-1.33-1.43-2.06-2.08a19.69,19.69,0,0,0-5-3.14,1.1,1.1,0,0,1-.28-.2,10,10,0,0,1,3.11,1.23c1.85.84,3.2,2.32,4.72,3.59,1,.8,1.7,1.8,2.67,2.58a2.89,2.89,0,0,1,.68,1,14,14,0,0,0,.54,1.54,11.76,11.76,0,0,1,.46,3.07A2.37,2.37,0,0,1,49.25,29.86Z" transform="translate(0 0)"/><path class="cls-148" d="M22.33,18.87c-.8.54-1.61,1.08-2.4,1.63s-1.53,1.05-2.53.64a1.81,1.81,0,0,0,1.4-.67,26.94,26.94,0,0,1,4.94-3.82,7.29,7.29,0,0,1,1.8-.75c.1,0,.3,0,.18.18a1.91,1.91,0,0,1-.78.68,3.51,3.51,0,0,0-1.8,1.47C23,18.54,22.6,18.66,22.33,18.87Z" transform="translate(0 0)"/><path class="cls-149" d="M11.34,18.45c-.08-.11-.23-.23-.22-.34a7,7,0,0,0-.73-2.74c-.39-1-.71-1.17-1.94-1.12-.64,0-1.3.24-1.91-.17a1,1,0,0,1,.66-1.21,17.3,17.3,0,0,1,2.57.66c.83.26,1.21,1,1.6,1.7a11.66,11.66,0,0,1,.68,1.53C12,17.4,11.49,17.85,11.34,18.45Z" transform="translate(0 0)"/><path class="cls-150" d="M4.28,19.72l2.47,0c1,0,2.07,0,3.11,0a1.22,1.22,0,0,0,.77-.28c.17-.15.24-.05.28.12-.34.47-.3,1.07-.55,1.57-.34-.48-.85-.42-1.35-.41a18.71,18.71,0,0,1-4.65-.54c-.08,0-.15-.11-.22-.17S4.05,19.72,4.28,19.72Z" transform="translate(0 0)"/><path class="cls-151" d="M12.05,16.76c-.41-.14-.41-.53-.52-.84a4,4,0,0,0-3.7-2.75A2.3,2.3,0,0,1,7.24,13c-.19-.25,0-.4.14-.57l.15-.14a.73.73,0,0,1,.73-.05,6.64,6.64,0,0,1,3.2,1.85,10.79,10.79,0,0,0,1.31,1A10.36,10.36,0,0,1,12.05,16.76Z" transform="translate(0 0)"/><path class="cls-152" d="M47.84,23c-.37,0-.55-.34-.76-.57a46.7,46.7,0,0,0-5.59-5c-.31-.24-.74-.28-1-.65a14.79,14.79,0,0,1,5.24,3.12,2.73,2.73,0,0,0,.78.94,8.19,8.19,0,0,1,1.22,1.59A.54.54,0,0,1,47.84,23Z" transform="translate(0 0)"/><path class="cls-153" d="M12.77,15.08c-.91-.1-1.36-.87-1.95-1.4a7,7,0,0,0-3.29-1.43l.56-.7a14.31,14.31,0,0,1,2.82,1.27,7.09,7.09,0,0,1,1.29,1,.71.71,0,0,0,.64.22c.22.06.42-.16.64-.05Z" transform="translate(0 0)"/><path class="cls-154" d="M47.84,23a11.79,11.79,0,0,0-2-2.79c-.07-.1-.26-.18-.07-.33a17.53,17.53,0,0,1,3.65,3.94A3.44,3.44,0,0,0,49.83,25a1.07,1.07,0,0,1,.17.87c-.14.12-.24,0-.35-.06a5.59,5.59,0,0,1-.52-.84,7,7,0,0,0-.72-1C48.36,23.53,47.93,23.34,47.84,23Z" transform="translate(0 0)"/><path class="cls-155" d="M15.31,12.13l-.87.69A2,2,0,0,1,12,12.67c-.26-.23-.57-.4-.83-.62a.67.67,0,0,1-.31-.66.41.41,0,0,1,.36-.21,6.05,6.05,0,0,0,2.49.78C14.22,12.29,14.8,11.88,15.31,12.13Z" transform="translate(0 0)"/><path class="cls-156" d="M12,12.53a2.6,2.6,0,0,0,2.4.29l-1,1.13c-.2,0-.35.32-.6.13A3.89,3.89,0,0,1,11,12.39C11.42,12,11.7,12.47,12,12.53Z" transform="translate(0 0)"/><path class="cls-157" d="M15.31,12.13c-.52,0-1.06.41-1.58,0a4,4,0,0,1-1.9-.83c-.34-.38-.72-.74-.62-1.32a.31.31,0,0,1,.4,0c0,.83.63,1,1.17,1.28A7,7,0,0,0,16,11.7Z" transform="translate(0 0)"/><path class="cls-158" d="M50,25.92a4.61,4.61,0,0,0-.54-1.36.66.66,0,0,1,0-.78,8.13,8.13,0,0,1,1.67,3.68c-.39-.42-.43-1.1-1-1.4C50,26.08,49.92,26,50,25.92Z" transform="translate(0 0)"/><path class="cls-143" d="M32.47,14.93H30.61a8.23,8.23,0,0,1,3,0l0,0A.9.9,0,0,1,32.47,14.93Z" transform="translate(0 0)"/><path class="cls-159" d="M30.79,52.11c-.34.63-.95.66-1.55.7-.67-.14-1.17-.68-1.87-.75A.67.67,0,0,1,27,51.7c-.5-1.17-1.57-1.28-2.62-1.41A3.28,3.28,0,0,1,23.4,50a7.25,7.25,0,0,0-2.9-.61c0-.43-.47-.47-.71-.7v-.14c.85-.1,1.69.16,2.54.14a15.74,15.74,0,0,0,2.8.54,13.31,13.31,0,0,1,3.16,1,8.71,8.71,0,0,1,2.11,1.27A2.68,2.68,0,0,1,30.79,52.11Z" transform="translate(0 0)"/><path class="cls-160" d="M30.08,47.88V48c-.8,0-.8,0-1.27.57-2,0-4-.22-6-.16-.53,0-1.06-.18-1.6-.12-.06-.48.48-.55.6-.9.07-.08.14-.15.25-.09a10,10,0,0,0,2.17.42A57.32,57.32,0,0,0,30.08,47.88Z" transform="translate(0 0)"/><path class="cls-161" d="M21.91,47.46c0,.47-.6.46-.71.85h-1c-.17,0-.35,0-.46-.17,0-.62.45-.84.9-1.06a1.42,1.42,0,0,1,.54-.08A.75.75,0,0,1,21.91,47.46Z" transform="translate(0 0)"/><path class="cls-101" d="M19.79,48.17c.16,0,.32,0,.42.14-.1.16-.26.13-.42.14a5.72,5.72,0,0,1-4.12-2.52c-.21-.3-.47-.59-.39-1h0a.14.14,0,0,1,.18,0,8,8,0,0,0,1.93,2.18A12.33,12.33,0,0,0,19.79,48.17Z" transform="translate(0 0)"/><path class="cls-162" d="M44.46,48.31c-.06-.41-.57-.28-.72-.7h1.43c.39.16.33.42.14.7Z" transform="translate(0 0)"/><path class="cls-139" d="M32.05,43.24a23.84,23.84,0,0,1-3.94-.57A2.48,2.48,0,0,0,27,42.19a12.79,12.79,0,0,1-2.89-1.82,10.15,10.15,0,0,1-1.52-1.18c-.26-.28-.51-.52-.4-.9s.45-.38.8-.42a3.39,3.39,0,0,1,1.69.2c.43.16,1-.13,1.41.1a2.45,2.45,0,0,1,1.61.84,3.64,3.64,0,0,0,1.78,2.72,8,8,0,0,0,2.14.64c.3.09.66.08.82.44Z" transform="translate(0 0)"/><path class="cls-163" d="M27.69,39l-1.56-.84.15-.43a.44.44,0,0,1,.41-.11,3.79,3.79,0,0,0,.89.09c1.43.11,2.85,0,4.28,0a36.56,36.56,0,0,0,4.89-.44,1.75,1.75,0,0,0,.53-.18,5.88,5.88,0,0,1,1.64-.5c.29,0,.59-.19.88,0,.06.49-.34.55-.65.65-1.29.41-2.62.66-3.94,1a13.11,13.11,0,0,0-2.66.79c-1.24.2-2.48-.08-3.72.08C28.45,39.13,28.05,39.32,27.69,39Z" transform="translate(0 0)"/><path class="cls-164" d="M19.65,35.21c-.48-.29-.35-.82-.34-1.2A15.48,15.48,0,0,1,20,30.45c.25-.92.19-1.24-.59-1.79a8.32,8.32,0,0,0-1.28-.7c-.71-.32-1.28,0-1.33,1a4.34,4.34,0,0,1-.18,1.6c-.08.19.13.38.12.52a14.6,14.6,0,0,0,.14,2.29.27.27,0,0,1-.17.08l-.1,0a.62.62,0,0,1-.14-.14,1.74,1.74,0,0,1-.22-.48,17.9,17.9,0,0,1,.07-2.93A13.16,13.16,0,0,0,16.32,28c-.08-1,.37-1.31,1.28-1.06,1.1.3,2,1.05,3,1.4a.69.69,0,0,1,.44,1,2.15,2.15,0,0,0-.13.61,1,1,0,0,1-.15.41,2.35,2.35,0,0,0-.29,1.16,1.07,1.07,0,0,1-.06.3,1.26,1.26,0,0,1-.13.26c-.18.65-.43,1.27-.58,1.93a1.47,1.47,0,0,0,0,.75.61.61,0,0,1,0,.4Z" transform="translate(0 0)"/><path class="cls-164" d="M26.7,37.74h-.42A32.64,32.64,0,0,1,22,37a9.24,9.24,0,0,1-2.21-1.32c-.15-.1-.13-.29-.13-.45h0a.2.2,0,0,1,.18-.05c.31.16.61.35.93.49a2.57,2.57,0,0,0,.66.28l.17.07a3.52,3.52,0,0,0,.71.25,13.44,13.44,0,0,0,1.88.53,4.68,4.68,0,0,0,.75.11,20.88,20.88,0,0,0,2.61.43,3.21,3.21,0,0,0,1.07.09c1.35,0,2.7.07,4,0s2.55-.2,3.82-.37c.33,0,.65-.14.93.12a2.74,2.74,0,0,1-1.67.39,30.09,30.09,0,0,1-4.75.31,26.48,26.48,0,0,1-3.45,0C27.28,37.7,27,37.92,26.7,37.74Z" transform="translate(0 0)"/><path class="cls-165" d="M18.24,37.31l.41.44a2.29,2.29,0,0,0-1.07,3c.18.59.21.59.68.19.1-.08.2-.13.31,0A1.21,1.21,0,0,1,18,42.18c-.74-.4-.74-1.17-.91-1.85-.05-.2.06-.42-.08-.61a3.4,3.4,0,0,1,.43-2.25A2.2,2.2,0,0,1,18.24,37.31Z" transform="translate(0 0)"/><path class="cls-166" d="M16.69,33.38h.14l.14.42-.27.14A.38.38,0,0,1,16.69,33.38Z" transform="translate(0 0)"/><path class="cls-167" d="M15.58,25.51c1.53-.55,3-1.29,4.44-2,1.87-.83,3.72-1.69,5.57-2.54h0a21.52,21.52,0,0,1,2.86-1.28c.83-.36,1.69-.69,2.5-1.09a1.38,1.38,0,0,1,1.32,0c1.68.78,3.37,1.53,5.06,2.29.21.09.43.16.65.24a2.68,2.68,0,0,1,1.37.47c2.52,1.18,5.1,2.24,7.59,3.48.23.08.41.24.64.34a.21.21,0,0,1,0,.19.57.57,0,0,1-.3.27c-.81.34-1.63.69-2.41,1.09-1,.38-1.89.82-2.82,1.27-2,.87-4,1.77-5.91,2.67-1.44.56-2.8,1.31-4.24,1.87a1.89,1.89,0,0,1-1.09-.2c-2.61-1.12-5.18-2.36-7.79-3.49-1.81-.75-3.56-1.63-5.36-2.39-.67-.44-1.54-.5-2.1-1.14Z" transform="translate(0 0)"/><path class="cls-168" d="M47,25.24q-3.3-1.45-6.6-2.94c-.81-.36-1.61-.75-2.41-1.13a5.24,5.24,0,0,0-1.55-.9c-1.4-.67-2.81-1.31-4.22-2,.15,0,.32,0,.42-.14a20.13,20.13,0,0,1,2.85,1.27c1.15.44,2.15,1.24,3.27,1.72a19.42,19.42,0,0,0,3.18,1.37,14.75,14.75,0,0,1,3.18,1.39A12.81,12.81,0,0,1,47,25.07h0A.11.11,0,0,1,47,25.24Z" transform="translate(0 0)"/><path class="cls-99" d="M28.44,19.74A18.35,18.35,0,0,1,25.58,21,6.34,6.34,0,0,1,28.44,19.74Z" transform="translate(0 0)"/><path class="cls-166" d="M20.78,30a2.36,2.36,0,0,1,.1-.61.61.61,0,0,0-.44-.95c-1.09-.28-1.91-1.14-3-1.36-.22,0-.43-.29-.61,0s-.43.42-.35.79c.3,1.37-.15,2.73-.09,4.1a4.37,4.37,0,0,0,.05,1,.46.46,0,0,1-.64,0c-.18-.16,0-.34,0-.51A7.17,7.17,0,0,0,16,29.16c-.14-.75.05-1.53-.14-2.28-.06-.21-.29-.26-.42-.4s.2-.37.28-.56a9.69,9.69,0,0,1,2.06.84,24.78,24.78,0,0,1,2.93,1.32c.28.27.81.31.78.87C21.26,29.31,21.31,29.85,20.78,30Z" transform="translate(0 0)"/><path class="cls-169" d="M15.42,26.48c.2,0,.42-.08.56.15a1.58,1.58,0,0,0-.22.8c0,1.44,0,2.87,0,4.48a5,5,0,0,0,.11-1.85c0-.32-.05-.66.23-.91a6.17,6.17,0,0,1-.24,3.77c.13.09.34,0,.54,0l.12.43c-.24.07-.44-.11-.67-.1a.54.54,0,0,0-.56.43.4.4,0,0,0,.27.5.54.54,0,0,0,.67-.21c.15-.18.11-.45.29-.62h.16c0,.19,0,.37,0,.56a1.1,1.1,0,0,1-1.18.8c-.81,0-1-.73-.38-1.64a.55.55,0,0,0,.14-.62,1.64,1.64,0,0,1,0-1.07c0-1.12,0-2.23,0-3.35A7,7,0,0,1,15.42,26.48Z" transform="translate(0 0)"/><path class="cls-170" d="M17.68,26.9c-.64-.38-1.37-.55-2-1a.28.28,0,0,1-.12-.32,14,14,0,0,1,2.11,1A.23.23,0,0,1,17.68,26.9Z" transform="translate(0 0)"/><path class="cls-166" d="M15.28,31.41a2.3,2.3,0,0,0,.18,1.21c.19.34-.15.36-.32.48C15.31,32.54,14.92,31.94,15.28,31.41Z" transform="translate(0 0)"/><path class="cls-171" d="M7.38,12.39,7.24,13a1.7,1.7,0,0,0-.7,1.12,45.13,45.13,0,0,0-2.26,5.64.3.3,0,0,0-.14.28l-.28.28a8.6,8.6,0,0,1,1-3.31c.48-1,.89-2,1.28-3.07.22-.59.78-.93,1-1.51Z" transform="translate(0 0)"/><path class="cls-172" d="M15.42,44.93h-.14a18.46,18.46,0,0,1-.14-3.32,2.16,2.16,0,0,1,.28-1.19c.3-.06.38.15.39.36a4.42,4.42,0,0,0,1.72,3.38s0,.09,0,.14a.24.24,0,0,1-.11.15,3.44,3.44,0,0,1-1.77-.09C15.51,44.49,15.64,44.8,15.42,44.93Z" transform="translate(0 0)"/><path class="cls-173" d="M17.54,44.36a5.33,5.33,0,0,1-1.47-1.75,4.47,4.47,0,0,1-.39-1.69c0-.23,0-.4-.26-.5-.13-.6.4-.54.7-.7.44,0,.4.38.46.66a11,11,0,0,0,.75,3,2.65,2.65,0,0,1,.42.84C17.72,44.32,17.67,44.4,17.54,44.36Z" transform="translate(0 0)"/><path class="cls-174" d="M17.25,43.52a7.59,7.59,0,0,1-.83-3.05c-.06-.28-.05-.56-.3-.75A1,1,0,0,1,16,38.59c.23-.23.38-.56.7-.7a11.75,11.75,0,0,0,.06,3c.13.81.54,1.54.66,2.35A.43.43,0,0,1,17.25,43.52Z" transform="translate(0 0)"/><path class="cls-175" d="M19.79,38.73a.48.48,0,0,1,.28.28c.07.48-.38.68-.56,1a21.32,21.32,0,0,0-.82,2.57,1.1,1.1,0,0,1-.39.64c-.28.11-.36-.14-.48-.3l-.28-.7c.14-.12.31,0,.46,0a2.55,2.55,0,0,0,.67-1.34A4.79,4.79,0,0,1,19.79,38.73Z" transform="translate(0 0)"/><path class="cls-176" d="M17.25,43.24a2.06,2.06,0,0,0-.17-.81,8.18,8.18,0,0,1-.39-4.54h.14a8.08,8.08,0,0,0,.55,4.68c.1.26.15.54.44.68a.55.55,0,0,1,.28.42v.14C17.56,44,17.48,43.51,17.25,43.24Z" transform="translate(0 0)"/><path class="cls-177" d="M18,42.39l-.42-.14A5,5,0,0,1,17,39.72c.27.59.19,1.3.58,1.86.12.19.17.43.41.53A.19.19,0,0,1,18,42.39Z" transform="translate(0 0)"/><path class="cls-178" d="M18.1,43.66a.42.42,0,0,1-.28-.42V43l.42.29a.3.3,0,0,1,.42,0A.67.67,0,0,1,18.1,43.66Z" transform="translate(0 0)"/><path class="cls-22" d="M24.85,52.85a2.11,2.11,0,0,0-1.24-.62c.49-.23.94.05,1.4.16.33.37.83.24,1.24.4.84.34,1.53,1,2.41,1.22a8.88,8.88,0,0,0,2.15.64,10.17,10.17,0,0,0,4.74-.82c1-.47,2.07-.82,3.11-1.22a2.52,2.52,0,0,1,.48-.06c-.07.36-.4.44-.66.55-1.74.76-3.46,1.56-5.19,2.33a.83.83,0,0,1-.93,0,1.25,1.25,0,0,0-1.26-.16c-.55.24-1.05,0-1.57-.15a1.42,1.42,0,0,1-.66-.3,1.59,1.59,0,0,0-1-.42,24.8,24.8,0,0,1-2.75-1.19A.39.39,0,0,1,24.85,52.85Z" transform="translate(0 0)"/><path class="cls-167" d="M24.85,52.85,28,54.23a3.54,3.54,0,0,1,1,.47,1,1,0,0,0,.57.24c.52.11,1,.69,1.58.13a1.15,1.15,0,0,1,1.41.21.35.35,0,0,0,.49.09l6.16-2.82.27-.11c.27-.06.44,0,.43.33,0,2.18,0,4.36,0,6.55,0,.55-.33.32-.55.22-1.57-.68-3.14-1.38-4.7-2.08-.37-.16-.74-.31-1.09-.5a1.29,1.29,0,0,0-1.5,0A.84.84,0,0,1,31,56.83a.71.71,0,0,0-.89-.07l-5.91,2.66c-.78.35-.78.35-.78-.5,0-1.92,0-3.84,0-5.76,0-.9,0-.91.86-.55C24.41,52.7,24.63,52.77,24.85,52.85Z" transform="translate(0 0)"/><path class="cls-179" d="M11.61,10h-.42C11,10,11,9.9,11,9.76s.13-.24.24-.32a4.46,4.46,0,0,1,2-.56c2.57-.21,5.14-.15,7.72-.14v.13L20.83,9a2.16,2.16,0,0,1-1,.11,44.86,44.86,0,0,0-6.45.28,4,4,0,0,0-.69.13c-.15.09-.32,0-.47.1C12.07,9.83,11.82,9.88,11.61,10Z" transform="translate(0 0)"/><path class="cls-180" d="M12,12.53c-.35.1-.62-.34-1-.14-.21.17-.34,0-.47-.11a7.28,7.28,0,0,0-1-.64c-.69-.38-.7-.71-.09-1.22l.14-.28h.28c.07.62.81.72,1,1.27S11.74,12.08,12,12.53Z" transform="translate(0 0)"/><path class="cls-181" d="M10.91,11.41c-.38-.13-.56-.53-1-.67s-.13-.39,0-.6a2.7,2.7,0,0,1,1.27-.7l-.14.28c-.26.23-.2.49-.09.77s.33.47.23.78Z" transform="translate(0 0)"/><path class="cls-182" d="M9.5,10.42c-.44.59-.42.84.25,1.14.48.22.85.58,1.3.83.51.68,1.29,1.06,1.83,1.69-.32.32-.61,0-.79-.14a6.56,6.56,0,0,0-3.17-1.78c-.36-.06-.46-.53-.83-.61A3.7,3.7,0,0,1,9.5,10.42Z" transform="translate(0 0)"/><path class="cls-183" d="M33,8.88l.43.27a.51.51,0,0,1-.21.15c-.83.06-1.65.16-2.48.2s-1.4-.19-2.11-.14a13.11,13.11,0,0,1-2.17-.14c-1.52,0-3,0-4.54,0a2.22,2.22,0,0,1-1-.13.17.17,0,0,1-.08-.23H33Z" transform="translate(0 0)"/><path class="cls-184" d="M33.32,9.15H36.9c.22,0,.47-.08.65.13-.26.37-.62.34-1.09.23a27.85,27.85,0,0,0,4.68.69,8.42,8.42,0,0,0,1.33-.1c.43,0,.89-.14,1.29.17a29.33,29.33,0,0,0,5.3-.06,1.65,1.65,0,0,1,1.18.48c-4.55-.31-9.12,0-13.67-.14a7.06,7.06,0,0,1-2.76-.89C33.61,9.54,33.3,9.5,33.32,9.15Z" transform="translate(0 0)"/><path class="cls-185" d="M20.07,10.69a15.38,15.38,0,0,0-2.25.16A8.19,8.19,0,0,1,14.9,11a1.64,1.64,0,0,1-1.43-.74c-.14-.67.33-.94.81-1a14.27,14.27,0,0,1,3.45-.26.2.2,0,0,1,.13.18,2.93,2.93,0,0,1-2.48.51,1.38,1.38,0,0,0,1.18.37c.87,0,1.73,0,2.59,0a1.74,1.74,0,0,1,.74.2A.32.32,0,0,1,20.07,10.69Z" transform="translate(0 0)"/><path class="cls-186" d="M20.07,10.69l-.14-.27A.16.16,0,0,1,20,10.2a1.33,1.33,0,0,1,.76-.12c2.29.16,4.59-.18,6.89.05a3.19,3.19,0,0,0,.42-.05,13.24,13.24,0,0,1,3.2.28,1.18,1.18,0,0,1,.59.12.13.13,0,0,1,0,.2Z" transform="translate(0 0)"/><path class="cls-187" d="M31.9,10.68s0-.08,0-.12c.2-.25.52-.11.82-.24a1.79,1.79,0,0,0-1.3-.7c-.25,0-.58.08-.65-.32.85,0,1.68-.24,2.53-.15A6.81,6.81,0,0,0,36,10.28a.92.92,0,0,1,.61.28A29.12,29.12,0,0,1,31.9,10.68Z" transform="translate(0 0)"/><path class="cls-188" d="M13.59,10.28a2.52,2.52,0,0,0,1.52.59,24.5,24.5,0,0,0,2.71,0,7,7,0,0,1-4.48.21,1.45,1.45,0,0,1-1.16-1.48.27.27,0,0,1,.28-.14A4.43,4.43,0,0,1,13.59,10.28Z" transform="translate(0 0)"/><path class="cls-189" d="M43.76,10.28a32.84,32.84,0,0,1-5.25-.06,7.05,7.05,0,0,1-1.25-.3A5.68,5.68,0,0,0,36,9.62c.51-.31,1.1-.08,1.6-.33H46.2c.27,0,.57-.11.8.14-.87.09-1.73.2-2.6.27C44,9.74,43.94,10.06,43.76,10.28Z" transform="translate(0 0)"/><path class="cls-190" d="M27.69,39a31.18,31.18,0,0,1,4.93-.14c.39-.22.58,0,.71.34.07.66.56,1.09.89,1.62.07.11.21.2.26.32a1.34,1.34,0,0,0,1.51.94c.17,0,.44,0,.44.3-.24,0-.52-.07-.69,0-1,.62-2.17.29-3.26.39a13.56,13.56,0,0,0-2.14-.58,3.72,3.72,0,0,1-2.72-2.76A.61.61,0,0,1,27.69,39Z" transform="translate(0 0)"/><path class="cls-191" d="M46.57,36.05l-1.83,1.69c-.22.12-.37.36-.63.43a1.35,1.35,0,0,1-1.42-.33,1.15,1.15,0,0,1-.06-1.38,10.92,10.92,0,0,1,.75-1.16.75.75,0,0,0,.11-.84,11.59,11.59,0,0,0-.56-2.38,17.38,17.38,0,0,1-.48-2.9c-.15-.81.59-1.21,1.17-1.62A3,3,0,0,1,44.86,27c.56-.23,1.07-.55,1.63-.76.13-.05.25-.14.39,0s-.11.34-.25.46a4.77,4.77,0,0,1-.64.55c-2,1.33-2.19,3.12-1.38,5.4A7.27,7.27,0,0,1,45,33.89,1.2,1.2,0,0,0,45.86,35c.51.15.81-.15,1.16-.46s.64-.87,1.21-1c.27.28,0,.51-.09.73-.23.39-.5.76-.74,1.15S47,36,46.57,36.05Z" transform="translate(0 0)"/><path class="cls-192" d="M43.62,34.5a.46.46,0,0,1,0,.76c-.29.32-.49.73-.75,1.08a1.06,1.06,0,0,0-.08,1.41,1.27,1.27,0,0,0,1.48.19c.15-.06.27-.2.44-.2a10.93,10.93,0,0,1-3.36,2.65c-.38.2-.64.65-1.15.59-.87,0-1.55-.57-2.36-.77a.62.62,0,0,1-.42-.72A2.22,2.22,0,0,1,38,38.11a30.73,30.73,0,0,1,3.2-1.59A6.45,6.45,0,0,0,43.32,35C43.45,34.85,43.44,34.63,43.62,34.5Z" transform="translate(0 0)"/><path class="cls-193" d="M38.12,38.17a3.64,3.64,0,0,0-.5,1.36c0,.38.14.58.42.58.76,0,1.24.76,2,.67.05,0,.12.13.18.2a20.93,20.93,0,0,1-3.8,1.41s-.08-.09-.11-.09c-1.58.27-2-1-2.65-2-.22-.32-.58-.55-.49-1,1.53-.2,2.87-1.07,4.41-1.22C37.78,38.05,38,38,38.12,38.17Z" transform="translate(0 0)"/><path class="cls-194" d="M47.14,36.33c-.51.25-.62.89-1.13,1.13a10.92,10.92,0,0,1-2.1,2c-.2.15-.4.43-.73.22,1.14-1.11,2.33-2.18,3.39-3.38.24-.27.36-.73.88-.57C47.57,36.07,47.42,36.24,47.14,36.33Z" transform="translate(0 0)"/><path class="cls-137" d="M43.18,39.71a8.07,8.07,0,0,0,2.07-1.55l.76-.7a5.17,5.17,0,0,1-2.61,2.48c-.61.21-1,.83-1.62.9A5.65,5.65,0,0,1,43.18,39.71Z" transform="translate(0 0)"/><path class="cls-195" d="M47.42,35.77c-.4,0-.52.45-.85.56v-.28l.71-.7c.28-.34.52-.71.77-1.08.12-.17.21-.46.54-.32A2.16,2.16,0,0,1,47.42,35.77Z" transform="translate(0 0)"/><path class="cls-196" d="M18.52,40.84a1.24,1.24,0,0,0-.21.18c-.14.19-.07.6-.38.59s-.38-.4-.46-.65a2.82,2.82,0,0,1,.17-2.6,1.17,1.17,0,0,1,1-.61,3.88,3.88,0,0,1,1,1C19.22,39.4,19,40.2,18.52,40.84Z" transform="translate(0 0)"/><path class="cls-197" d="M18.66,43.24h-.42c.62-.91.59-2,1.05-3A4.59,4.59,0,0,1,20.07,39l.29.28C19.23,40.36,19.06,41.85,18.66,43.24Z" transform="translate(0 0)"/><path class="cls-198" d="M18.52,40.84a4.71,4.71,0,0,1,1.13-2.11h.14a24.91,24.91,0,0,0-1.37,3.19.77.77,0,0,1-.46.47v-.28A2.7,2.7,0,0,0,18.52,40.84Z" transform="translate(0 0)"/><path class="cls-199" d="M50.38,27.6a8.34,8.34,0,0,1-1,6.48l-1,1.13c-.16,0-.26-.1-.19-.19.41-.58.45-1.36,1-1.88a4.68,4.68,0,0,0,1-3,5.71,5.71,0,0,1,.09-1.17c-.19.6,0,1.25-.17,1.85-.06.19,0,.57-.42.43a2.63,2.63,0,0,1-.12-1.08,16.18,16.18,0,0,0-.19-3.61.51.51,0,0,1,.09-.46c.22-.14.34,0,.43.17a7,7,0,0,1,.32.75C50.31,27.19,50.46,27.38,50.38,27.6Z" transform="translate(0 0)"/><path class="cls-200" d="M49.25,33.24A19.27,19.27,0,0,1,48.33,35c-.06.08,0,.17.08.23-.18.53-.68.82-1,1.27-.14.22-.27.05-.3-.15s.31-.31.28-.56c.38-.6,1-1.07,1.13-1.83-.17-.18,0-.35,0-.51a.58.58,0,0,1,.11-.15.87.87,0,0,0,.27-.72c0-.26.11-.51.16-.77a5.17,5.17,0,0,1,.21-.7c.31-.24,0-.82.49-1v1.14A3,3,0,0,1,49.25,33.24Z" transform="translate(0 0)"/><path class="cls-201" d="M21.91,47.46c-.23-.13-.41-.34-.71-.28a5,5,0,0,1-2.54-2.07,1,1,0,0,0-.49-.47c-.17-.1-.41-.15-.38-.44a.54.54,0,0,1,.59-.12c.75,0,1,.46,1.25,1a1.61,1.61,0,0,0,1.43,1.21l.14.15c.16.4.63.49.85.84Z" transform="translate(0 0)"/><path class="cls-202" d="M18.38,44.08a.92.92,0,0,1-.56.14c-.05.06-.1.06-.14,0l-.43-.7v-.28c.33.12.45.55.85.56h.14Z" transform="translate(0 0)"/><path class="cls-136" d="M50.38,27.6l-.15-.55c.05-.05.1-.06.15,0a1.6,1.6,0,0,1,.28.85Z" transform="translate(0 0)"/><path class="cls-203" d="M50.38,27h-.15c-.23-.32-.27-.73-.56-1a.17.17,0,0,1-.05-.22l.07-.06.27.16.13.14C50.05,26.43,50.36,26.69,50.38,27Z" transform="translate(0 0)"/><path class="cls-204" d="M32.47,14.93H33.6a11.8,11.8,0,0,1,2.31,2c.24.31.53.58.78.88a7.85,7.85,0,0,0,2,1.63.34.34,0,0,1,.17.29c-.28.46-.56.14-.84,0-1.81-.72-3.4-1.84-5.15-2.66-.53-.24-.76-.81-1.13-1.22-.19-.2-.06-.49.22-.63Z" transform="translate(0 0)"/><path class="cls-205" d="M38,19.72c.28,0,.56.23.84,0a11.91,11.91,0,0,1,2.52,1.46c1.43.91,2.87,1.79,4.28,2.72A4.56,4.56,0,0,1,47,25.07c-1.33-.45-2.42-1.35-3.73-1.84a3.71,3.71,0,0,1-1.35-.7,11,11,0,0,0-2.38-1.67A5.37,5.37,0,0,1,38,19.72Z" transform="translate(0 0)"/><path class="cls-205" d="M47,25.24l0-.17h.28a.48.48,0,0,0,.28.28c.07.06.06.12,0,.17A1.14,1.14,0,0,1,47,25.24Z" transform="translate(0 0)"/><path class="cls-206" d="M47.55,25.52v-.17c.06,0,.16.09.16.13a40,40,0,0,0,.47,4.22c.05.7.56,1.35.28,2.19.29-.15.27-.44.5-.48a.45.45,0,0,1,.14.41.75.75,0,0,1-.16.42c-.29.41-.55,1-1.14.9s-.69-.7-.89-1.17a3.25,3.25,0,0,0-.28-.56,3.36,3.36,0,0,1-.46-3.47,8.32,8.32,0,0,1,1.37-2.34A.11.11,0,0,1,47.55,25.52Z" transform="translate(0 0)"/><path class="cls-207" d="M49,31.83v-.42a3.31,3.31,0,0,0,.28-1.55A11.25,11.25,0,0,0,49,25.35l.11,0a.4.4,0,0,1,.19.15,10.07,10.07,0,0,1,.13,5.68,1.05,1.05,0,0,1-.15.69A.19.19,0,0,1,49,31.83Z" transform="translate(0 0)"/><path class="cls-207" d="M48.41,23.94a1.75,1.75,0,0,1,.84,1c-.15.1-.14.3-.27.42h0A3.4,3.4,0,0,1,48.41,23.94Z" transform="translate(0 0)"/><path class="cls-203" d="M49,25.35c.08-.15-.22-.55.27-.42a2.22,2.22,0,0,1,.44.83h0c-.45.2-.36-.31-.57-.42Z" transform="translate(0 0)"/><path class="cls-208" d="M11.19,11.27c-.16-.28-.32-.56-.47-.84s-.12-.63.33-.71a.29.29,0,0,0,.14.28,3.72,3.72,0,0,0,2.54,2.11A4.08,4.08,0,0,1,11.19,11.27Z" transform="translate(0 0)"/><path class="cls-209" d="M19.79,48.17a4.48,4.48,0,0,1-2.54-1,1.66,1.66,0,0,1,1.68-.38c.2-.24-.11-.41,0-.61a2.5,2.5,0,0,1,1.72,1C20.33,47.48,19.89,47.68,19.79,48.17Z" transform="translate(0 0)"/><path class="cls-210" d="M20.64,47.18c-.64-.2-1.08-.74-1.69-1a3.29,3.29,0,0,1-1.42-1.83h0l.14-.14h.14a2.86,2.86,0,0,1,1.32,1.32c.49.75,1.44,1,2.06,1.64Z" transform="translate(0 0)"/><path class="cls-211" d="M17.53,44.36,19,46.19a2.83,2.83,0,0,0,.2.28c.12.14.29.29.14.48s-.3.1-.45,0c-.57-.27-1.06.11-1.59.2-.71-.67-1.58-1.21-1.83-2.25,0-.21,0-.42,0-.63s.14-.35.23-.24C16.22,44.67,16.94,44.11,17.53,44.36Z" transform="translate(0 0)"/><path class="cls-212" d="M38.12,38.17a12.21,12.21,0,0,0-3.71,1.09c-.44.22-.82-.06-1.23,0,0-.36-.26-.43-.56-.42.11-.29.4-.31.64-.37,1.54-.37,3.11-.65,4.62-1.12.65-.2,1.46-.1,1.93-.76.16-.37.55-.38.85-.53a7.52,7.52,0,0,0,1.55-.72c.25-.22.58-.31.83-.54s0-.65.39-.77a1.27,1.27,0,0,1,0,1,4.55,4.55,0,0,1-1.77,1.41C40.47,37,39.37,37.73,38.12,38.17Z" transform="translate(0 0)"/><path class="cls-213" d="M20.78,30l.56-1c.28,0,.35.12.3.36a47.8,47.8,0,0,0-1.34,5c-.13.5.17.72.57.9A22.79,22.79,0,0,0,27.24,37a28.3,28.3,0,0,0,4.78.31,33.24,33.24,0,0,0,5.8-.66,1.6,1.6,0,0,1,1.1-.05.15.15,0,0,1,0,.21,6,6,0,0,0-1.55.42,52.92,52.92,0,0,1-6,.51c-.94,0-1.9-.08-2.85-.09-.31-.19-.68,0-1-.14A9,9,0,0,1,24.87,37c-.21-.17-.5,0-.71-.14a4.86,4.86,0,0,1-2-.56c-.22-.13-.48-.17-.71-.29h0c-.22-.12-.48-.16-.7-.28a1.56,1.56,0,0,1-1-.56c-.12-.19,0-.42-.13-.61a5.6,5.6,0,0,1,.49-2c.11-.26,0-.56.2-.79v-.28c.16-.41.17-.85.29-1.27A.31.31,0,0,0,20.78,30Z" transform="translate(0 0)"/><path class="cls-214" d="M39,36.76V36.6c0-.18.12-.25.26-.29.89-.27,1.77-.57,2.65-.9a.45.45,0,0,1,.46.05,11.07,11.07,0,0,1-2.52,1.16Z" transform="translate(0 0)"/><path class="cls-94" d="M26.7,37.74c.28,0,.6-.11.84.14C27.26,37.84,27,38,26.7,37.74Z" transform="translate(0 0)"/><path class="cls-166" d="M20.21,32.67a8.36,8.36,0,0,0-.42,1.83c-.1.07,0,.22-.14.29-.35-.49,0-.95.08-1.4s.32-1,.48-1.42A.78.78,0,0,1,20.21,32.67Z" transform="translate(0 0)"/><path class="cls-166" d="M20.64,30.28a1.6,1.6,0,0,1-.29,1.27A2.25,2.25,0,0,1,20.64,30.28Z" transform="translate(0 0)"/><path class="cls-215" d="M20.21,32.67V32l.14-.14C20.31,32.11,20.46,32.42,20.21,32.67Z" transform="translate(0 0)"/><path class="cls-215" d="M19.65,34.79a.31.31,0,0,1,.14-.29v.71h-.14Z" transform="translate(0 0)"/><path class="cls-215" d="M27.54,37.46c.33,0,.69-.12,1,.14C28.2,37.55,27.84,37.73,27.54,37.46Z" transform="translate(0 0)"/><path class="cls-215" d="M21.48,36.05a.84.84,0,0,1,.71.29A.84.84,0,0,1,21.48,36.05Z" transform="translate(0 0)"/><path class="cls-215" d="M20.78,35.77a.81.81,0,0,1,.7.28A.81.81,0,0,1,20.78,35.77Z" transform="translate(0 0)"/><path class="cls-215" d="M24.16,36.9c.24,0,.51-.09.71.14C24.63,37,24.36,37.13,24.16,36.9Z" transform="translate(0 0)"/><path class="cls-5" d="M47.55,25.6c-.46,1-1,1.89-1.41,2.91-.08.23-.2.47-.12.66.3.71.11,1.56.79,2.16.3.27.34.8.55,1.18.39.68.75.67,1.2,0l.27-.4c.29.56-.17.89-.39,1.29a.66.66,0,0,1-.17.12c-.42.4-.86.78-1.23,1.21-.61.71-1.84.64-2-.24-.31-1.34-1-2.58-1-4a3.91,3.91,0,0,1,1.71-3.26c.4-.32.77-.66,1.16-1,0-.31.31-.24.42-.42Z" transform="translate(0 0)"/><path class="cls-216" d="M36.13,30.81c1.95-1,3.93-1.85,5.93-2.68.07.39-.29.42-.5.54A20.11,20.11,0,0,0,39.14,30c.19-.07.33-.28.56-.31a.66.66,0,0,1,.69.23c0,.24-.25.33-.44.42-1.67.79-3.39,1.5-5.07,2.3a1.36,1.36,0,0,1-.41.09,18.68,18.68,0,0,0-2.7.92.82.82,0,0,1-.71-.14,1,1,0,0,1-.15-.14c-.13-.15-.42-.23-.29-.48s.37-.13.56-.05a.61.61,0,0,0,.65,0l.19-.07C33.42,32.16,34.79,31.5,36.13,30.81Z" transform="translate(0 0)"/><path class="cls-217" d="M40.39,29.89c-.66-.38-1.13.39-1.8.34a12.34,12.34,0,0,1,2.65-1.59c.29-.15.64-.2.82-.51a20.3,20.3,0,0,1,2.81-1.27.13.13,0,0,1,.05.12s0,.06,0,.06a2.82,2.82,0,0,0-1.12.56c-.5.29-1,.61-1.48.9-.28.17-.62.3-.18.68a.39.39,0,0,1,0,.51c-.27.16-.34-.18-.55-.2-.43-.07-.74.21-1.09.38Z" transform="translate(0 0)"/><path class="cls-218" d="M23,29a35.75,35.75,0,0,1,3.71,1.6c1.42.61,2.82,1.25,4.22,1.9a1.7,1.7,0,0,0,.94.17c.05,0,.07.06.05.09s0,.05-.05.05h0c-.66.29-1.24-.09-1.85-.21a3.82,3.82,0,0,0-1.67-.74,1.35,1.35,0,0,1-.63-.29A3,3,0,0,0,26.6,31l-.19-.08c-.92-.44-1.85-.85-2.79-1.24-.25-.1-.55-.15-.65-.47A.24.24,0,0,1,23,29Z" transform="translate(0 0)"/><path class="cls-219" d="M23,29l0,.17c-.56.15-1-.23-1.42-.44a7.74,7.74,0,0,1-1-.56,24.87,24.87,0,0,0-3-1.27v-.3c1.44.48,2.76,1.24,4.16,1.82C22.26,28.59,22.64,28.8,23,29Z" transform="translate(0 0)"/><path class="cls-220" d="M31.91,32.81v-.14c1.4-.63,2.78-1.33,4.22-1.86-.27.43-.77.49-1.17.69A10.58,10.58,0,0,1,31.91,32.81Z" transform="translate(0 0)"/><path class="cls-221" d="M44.88,27v-.18a15.34,15.34,0,0,1,2.41-1.09c-.06.23-.32.25-.42.42Z" transform="translate(0 0)"/><path class="cls-222" d="M20.64,28.17l2.38,1,2.82,1.25c.25.12.48.28.72.41-.16.32-.37.16-.59.07a4.94,4.94,0,0,1-.66-.25c1.25.52,2.6,1.09,3.91,1.76.24.12.62.16.57.58-.26.17-.49,0-.73-.07-2.29-1.06-4.61-2.09-6.92-3.12-.22-.09-.51-.16-.52-.49a.44.44,0,0,0-.28-.3C21.44,28.46,20.76,28.55,20.64,28.17Z" transform="translate(0 0)"/><path class="cls-223" d="M16.11,29.15c0,.92,0,1.83-.08,2.74,0,.19.07.5-.25.47s-.2-.32-.2-.51c0-1.55,0-3.1,0-4.65,0-.27,0-.61.41-.57A15.21,15.21,0,0,1,16.11,29.15Z" transform="translate(0 0)"/><path class="cls-224" d="M16.53,33.39c0,.25.1.52-.09.74a.78.78,0,0,1-1,.28.62.62,0,0,1-.34-.82.77.77,0,0,1,.89-.51c.24,0,.35.22.53.31Z" transform="translate(0 0)"/><path class="cls-225" d="M31.08,55.07c-.61.86-1.07,0-1.58-.13C30,54.92,30.52,55.41,31.08,55.07Z" transform="translate(0 0)"/><path class="cls-225" d="M28.93,54.7a3.28,3.28,0,0,1-1-.47A1.06,1.06,0,0,1,28.93,54.7Z" transform="translate(0 0)"/><path class="cls-226" d="M13.59,10.28a1.86,1.86,0,0,1-1.13-.84c.46-.53,1.14-.34,1.69-.4a61.15,61.15,0,0,1,6.77-.16V9a4.84,4.84,0,0,1-3.1.15,27.88,27.88,0,0,0-3.41.31C14,9.49,13.5,9.65,13.59,10.28Z" transform="translate(0 0)"/><path class="cls-227" d="M17.82,9.16,20.92,9h5.63c-.12.44-.39.19-.63.2.79-.08,1.26.6,2,.77.13,0,.27.1.23.29h-4a29.3,29.3,0,0,1-4.19,0,8.27,8.27,0,0,0-2.11-1Z" transform="translate(0 0)"/><path class="cls-228" d="M28.11,10.28c-.84-.18-1.43-.88-2.33-1,.28-.18.59,0,.77-.23a18.86,18.86,0,0,0,2.12.14,10.46,10.46,0,0,1,2.47,1,.29.29,0,0,1,.21.38A16.06,16.06,0,0,0,28.11,10.28Z" transform="translate(0 0)"/><path class="cls-229" d="M31.35,10.56l-2.68-1.4c.71,0,1.4.23,2.12.14a.68.68,0,0,0,.72.12c.57-.11.83.44,1.3.54.07,0,.12.29.12.44s-.25.14-.39.16-.42,0-.62,0Z" transform="translate(0 0)"/><path class="cls-230" d="M17.82,9.3a2.26,2.26,0,0,1,2.11,1v.14a14.62,14.62,0,0,0-3.56-.08c-.48,0-1.08.05-1.12-.81C16.15,9.83,17,9.4,17.82,9.3Z" transform="translate(0 0)"/><path class="cls-231" d="M42,29.75c0-.19.12-.45-.13-.56-.65-.29-.17-.53.06-.68a6,6,0,0,1,1.79-.91c-.07.17-.23.23-.36.33-.56.44-1,.87-.67,1.75s.1,1.71.41,2.46a6.76,6.76,0,0,1,.48,2.36c0,.2.06.42-.15.57,0-.33.13-.69-.14-1-.31,0-.28-.25-.35-.42a14.1,14.1,0,0,1-.43-1.54l-.06-.2a1.94,1.94,0,0,0-.33-1C42,30.52,41.79,30.16,42,29.75Z" transform="translate(0 0)"/><path class="cls-232" d="M48.27,33.52v-.14a.61.61,0,0,1,.42,0l-.14.56c-.58.33-.66,1.11-1.27,1.41C47.47,34.66,48.14,34.24,48.27,33.52Z" transform="translate(0 0)"/><path class="cls-233" d="M49.25,33.24l.57-2c.45-.83.12-1.8.48-2.61a7,7,0,0,1-.71,4.47C49.49,33.3,49.4,33.3,49.25,33.24Z" transform="translate(0 0)"/><path class="cls-232" d="M49.11,25.35c.25.06.26.43.57.42V26a.29.29,0,0,0-.12.31,13,13,0,0,1,.25,3.78c-.33.26.13.84-.41,1a4.66,4.66,0,0,1,.2-1.24A11.48,11.48,0,0,0,49.11,25.35Z" transform="translate(0 0)"/><path class="cls-234" d="M48.69,33.38a.38.38,0,0,1-.42,0,2.48,2.48,0,0,0,.56-1.27.29.29,0,0,0,.14-.28h.28l-.14.84a4.52,4.52,0,0,1-.41.71Z" transform="translate(0 0)"/><path class="cls-195" d="M48.7,33.38a.84.84,0,0,1,.41-.71C49.1,33,49.09,33.29,48.7,33.38Z" transform="translate(0 0)"/><path class="cls-167" d="M42,29.75a3.44,3.44,0,0,0,.24,1.11A4.07,4.07,0,0,1,42.61,32h0c.21.76.4,1.53.6,2.3a.83.83,0,0,1,0,.78l-.83.4L39,36.6a34.75,34.75,0,0,1-7,.86,27.79,27.79,0,0,1-11.25-2.08c-.59-.26-.75-.54-.58-1.15.39-1.4.71-2.82,1.08-4.22.07-.26,0-.65.45-.7L28,32.22c.6.28,1.2.54,1.8.8a.46.46,0,0,1,.38,0c.33.17.68.3,1,.5a.73.73,0,0,0,.79,0c.85-.31,1.68-.71,2.55-1,2-.84,4-1.69,5.89-2.66h0a3.85,3.85,0,0,1,1.29-.58C42,29.29,41.89,29.63,42,29.75Z" transform="translate(0 0)"/><path class="cls-235" d="M43.16,35.06a5.08,5.08,0,0,0-.32-1.85A7.23,7.23,0,0,1,42.6,32c.41.64.35,1.45.73,2.1C43.26,34.41,43.5,34.78,43.16,35.06Z" transform="translate(0 0)"/><path class="cls-220" d="M30,33.11a.23.23,0,0,1-.24-.09,5.5,5.5,0,0,0-1.86-1c-.93-.45-1.88-.86-2.91-1.33.63-.23,1,.4,1.54.18h0a4.93,4.93,0,0,0,1.26.57.89.89,0,0,0,.57.28c.55.26,1.12.47,1.68.7a2.91,2.91,0,0,0,1.84.42c-.34.77-.77,0-1.2.09,0,.26.44.19.36.48C30.68,33.45,30.39,33.15,30,33.11Z" transform="translate(0 0)"/><path class="cls-220" d="M34.5,32.55A16.94,16.94,0,0,1,32,33.68c-.17.07-.21,0-.19-.16A9.18,9.18,0,0,1,34.5,32.55Z" transform="translate(0 0)"/><path class="cls-222" d="M31.77,33.52l.19.16c-.44.34-.76-.07-1.13-.19a5.3,5.3,0,0,1-.8-.38,2.24,2.24,0,0,1,1,.27A1.23,1.23,0,0,0,31.77,33.52Z" transform="translate(0 0)"/><path class="cls-216" d="M41.68,29.31a4.06,4.06,0,0,1-1.29.58A1.3,1.3,0,0,1,41.68,29.31Z" transform="translate(0 0)"/><path class="cls-222" d="M27.82,31.41c-.49,0-1,0-1.26-.57A2.31,2.31,0,0,1,27.82,31.41Z" transform="translate(0 0)"/><path class="cls-222" d="M30.07,32.39a3.23,3.23,0,0,1-1.68-.7A3.84,3.84,0,0,1,30.07,32.39Z" transform="translate(0 0)"/><path class="cls-235" d="M42.61,32a4.07,4.07,0,0,1-.33-1.13A1.16,1.16,0,0,1,42.61,32Z" transform="translate(0 0)"/></svg>