<svg id="Layer_1" data-name="Layer 1" xmlns="http://www.w3.org/2000/svg" viewBox="0 0 56.6 56.59"><defs><style>.cls-1{fill:#010201}</style></defs><path class="cls-1" d="M31.94 60.65H14.19a10.29 10.29 0 0 1-6-1.68 9.89 9.89 0 0 1-4.47-7.77c-.08-1.08-.06-2.2-.06-3.2V33.35a10.77 10.77 0 0 1 .9-4.72 9.8 9.8 0 0 1 8.23-5.91 56.13 56.13 0 0 1 5.8-.11 3.7 3.7 0 0 0 1.2 0c.35-.13.6-.52.9-.78a27.38 27.38 0 0 1 3.21-2.57 13.38 13.38 0 0 1 5.29-1.91 20 20 0 0 1 7.75.28A11.87 11.87 0 0 1 41.7 20a23.42 23.42 0 0 1 4.36 4.48A9.65 9.65 0 0 1 46.15 36 21.42 21.42 0 0 1 40 41.8a11.26 11.26 0 0 1-4.2 1.5 20.09 20.09 0 0 1-8.8-.45 13.14 13.14 0 0 1-5-2.79c-.69-.58-1.36-1.17-2-1.78a.34.34 0 0 0-.45-.05 2.16 2.16 0 0 0-.83.89 4.22 4.22 0 0 0-.47 1.73 15.41 15.41 0 0 0 0 2.45 2.9 2.9 0 0 0 1 1.89 4.42 4.42 0 0 0 2.8 1.19c2 .15 4 .22 5.93.3l11.23.45h3a5 5 0 0 0 4.55-3.59 52.76 52.76 0 0 0 1.07-5.69c.38-2.65.66-5.3.87-8q.36-4.61.45-9.24v-3.9a3.88 3.88 0 0 0-3.64-3.59c-3.55-.13-7.1-.08-10.65-.09H17.5a8 8 0 0 0-2.75.31 6.58 6.58 0 0 0-4.06 3.76c-.68 1.67-1.39 3.34-2 5A2.75 2.75 0 0 1 5 23.82a1.75 1.75 0 0 1-1.24-1.73c-.09-1.6-.07-3.19-.07-4.79 0-1.32 0-2.64.07-4a10.05 10.05 0 0 1 8.34-9.04 19.86 19.86 0 0 1 3.27-.18h34.37a10.25 10.25 0 0 1 6.91 2.42 9.92 9.92 0 0 1 3.57 7.66c.05 2.59 0 5.19 0 7.78v27.63a12.87 12.87 0 0 1-.59 4.31 10 10 0 0 1-8.87 6.72c-1.45.09-2.91.06-4.37.06H31.92zM32 60h16.2a20.28 20.28 0 0 0 3.89-.23 9.39 9.39 0 0 0 7.38-8.1 38 38 0 0 0 .11-4V15.76c0-.73 0-1.46-.06-2.19A9.29 9.29 0 0 0 56.18 7a9.43 9.43 0 0 0-6.3-2.23H22.2c-3 0-6-.08-9 .06a8.94 8.94 0 0 0-4.9 1.7 9.35 9.35 0 0 0-4 7.71v5.2c0 .88 0 1.76.06 2.63a1.18 1.18 0 0 0 .7 1.11A2.1 2.1 0 0 0 8 22c.58-1.42 1.17-2.84 1.72-4.28a8.78 8.78 0 0 1 1.91-3.13 6.94 6.94 0 0 1 5.08-2.11c8.75-.12 17.51-.09 26.26 0a24.17 24.17 0 0 1 2.95.11 4.52 4.52 0 0 1 3.88 4.21c.07 1.15 0 2.29 0 3.43A151.3 151.3 0 0 1 48.75 36a63.72 63.72 0 0 1-1.3 7.51 5.55 5.55 0 0 1-5.52 4.33h-2.4c-5.62-.22-11.25-.42-16.87-.71a5.9 5.9 0 0 1-3.29-1 3.8 3.8 0 0 1-1.72-2.83 16.12 16.12 0 0 1 0-2.6 4.43 4.43 0 0 1 .46-1.7 2.58 2.58 0 0 1 1.67-1.52.47.47 0 0 1 .5.12c.77.72 1.56 1.41 2.37 2.09a12.64 12.64 0 0 0 5.08 2.68 19.42 19.42 0 0 0 7.59.35 10.86 10.86 0 0 0 4.39-1.49 20.8 20.8 0 0 0 5.93-5.63 9 9 0 0 0-.1-10.68 22.28 22.28 0 0 0-4.25-4.37 11 11 0 0 0-4-2.17 18.74 18.74 0 0 0-8-.4 12.35 12.35 0 0 0-5.56 2.16A43.77 43.77 0 0 0 20.28 23a.65.65 0 0 1-.49.19h-3a37 37 0 0 0-4.34.14 9.37 9.37 0 0 0-7.7 6.69 13.11 13.11 0 0 0-.39 3.58v14.85a22.92 22.92 0 0 0 .12 3.21 9.23 9.23 0 0 0 5.68 7.52 10.56 10.56 0 0 0 4.45.77z" transform="translate(-3.66 -4.08)"/><path d="M32 60H14.57a10.56 10.56 0 0 1-4.45-.77 9.23 9.23 0 0 1-5.68-7.53 22.92 22.92 0 0 1-.12-3.21V33.64a13.11 13.11 0 0 1 .39-3.58 9.37 9.37 0 0 1 7.7-6.69 37 37 0 0 1 4.34-.14h3a.65.65 0 0 0 .49-.19 43.77 43.77 0 0 1 3.46-2.92A12.35 12.35 0 0 1 29.3 18a18.74 18.74 0 0 1 8 .4 11 11 0 0 1 4 2.17 22.28 22.28 0 0 1 4.25 4.37 9 9 0 0 1 .1 10.68 20.8 20.8 0 0 1-5.93 5.63 10.86 10.86 0 0 1-4.39 1.49 19.42 19.42 0 0 1-7.59-.35 12.64 12.64 0 0 1-5.08-2.68c-.81-.68-1.6-1.37-2.37-2.09a.47.47 0 0 0-.5-.12 2.58 2.58 0 0 0-1.68 1.5 4.43 4.43 0 0 0-.45 1.71 16.12 16.12 0 0 0 0 2.6 3.8 3.8 0 0 0 1.72 2.83 5.9 5.9 0 0 0 3.29 1c5.62.29 11.25.49 16.87.71h2.4a5.55 5.55 0 0 0 5.52-4.33A63.72 63.72 0 0 0 48.75 36a151.3 151.3 0 0 0 1.06-15.78v-3.43a4.52 4.52 0 0 0-3.88-4.21 24.17 24.17 0 0 0-2.93-.1c-8.75-.06-17.51-.09-26.26 0a6.94 6.94 0 0 0-5.08 2.11 8.78 8.78 0 0 0-1.96 3.16C9.15 19.19 8.56 20.61 8 22a2.1 2.1 0 0 1-2.89 1.13 1.18 1.18 0 0 1-.7-1.11c0-.87-.06-1.75-.06-2.63v-5.2a9.35 9.35 0 0 1 4-7.71 8.94 8.94 0 0 1 4.9-1.7c3-.14 6-.06 9-.06h27.63A9.43 9.43 0 0 1 56.18 7a9.29 9.29 0 0 1 3.34 6.59c.06.73.06 1.46.06 2.19v31.91a38 38 0 0 1-.11 4 9.39 9.39 0 0 1-7.38 8.1 20.28 20.28 0 0 1-3.89.21H32zm13.9-32.83l-.3-.17-13.4-6a.55.55 0 0 0-.5 0l-13.49 6.06c-.06 0-.14 0-.16.13h.1L22 29l9.73 4.4a.51.51 0 0 0 .48 0c1-.48 2.08-1 3.12-1.42l8.93-4zM32 37.56a27.54 27.54 0 0 0 4-.29 20.86 20.86 0 0 0 5.89-1.76c.16-.07.2-.13.16-.3-.38-1.52-.75-3-1.12-4.56 0-.16-.07-.23-.27-.15l-8.5 3.85a.46.46 0 0 1-.44 0l-2.13-1-6.35-2.86c-.11-.05-.24-.16-.29.07l-1.14 4.65c0 .13 0 .19.13.24a20.48 20.48 0 0 0 2.49 1A25.47 25.47 0 0 0 32 37.56zm-7.2 19.52L25 57l5.92-2.67a.3.3 0 0 1 .42.07.87.87 0 0 0 1.31 0 .3.3 0 0 1 .42-.07l4.57 2.07 1.5.67v-6.46a1 1 0 0 0-.37.14l-5.68 2.56c-.16.08-.26.1-.39-.07a.88.88 0 0 0-1.4 0c-.12.15-.19.18-.38.1-1.29-.6-2.6-1.18-3.9-1.76l-2.19-1zM18.14 35a.62.62 0 0 0 .05-1.24.64.64 0 0 0-.66.62.61.61 0 0 0 .61.62zM18 30.59v2.34c0 .09 0 .18.12.18s.13-.09.13-.18v-4-.62a.16.16 0 0 0-.18-.18c-.13 0-.07.12-.07.18z" transform="translate(-3.66 -4.08)" fill="#91cd8a"/><path class="cls-1" d="M45.9 27.17l-1.67.76L35.3 32c-1 .47-2.09.94-3.12 1.42a.51.51 0 0 1-.48 0L22 29l-3.82-1.72h-.1c0-.1.1-.1.16-.13L31.7 21a.55.55 0 0 1 .5 0l13.4 6z" transform="translate(-3.66 -4.08)"/><path class="cls-1" d="M32 37.56a25.47 25.47 0 0 1-7.59-1.08 20.48 20.48 0 0 1-2.49-1c-.12-.05-.16-.11-.13-.24L23 30.6c.05-.23.18-.12.29-.07l6.35 2.86 2.13 1a.46.46 0 0 0 .44 0l8.5-3.85c.2-.08.23 0 .27.15.37 1.52.74 3 1.12 4.56 0 .17 0 .23-.16.3A20.86 20.86 0 0 1 36 37.27a27.54 27.54 0 0 1-4 .29zM24.8 57.08v-6.5l2.19 1c1.3.58 2.61 1.16 3.9 1.76.19.08.26.05.38-.1a.88.88 0 0 1 1.4 0c.13.17.23.15.39.07l5.68-2.56a1 1 0 0 1 .37-.14v6.48l-1.5-.67L33 54.35a.3.3 0 0 0-.42.07.87.87 0 0 1-1.31 0 .3.3 0 0 0-.42-.07L25 57zM18.14 35a.61.61 0 0 1-.61-.62.62.62 0 1 1 1.24 0 .63.63 0 0 1-.63.62zM18 30.59v-2.3c0-.06-.06-.18.07-.18a.16.16 0 0 1 .18.18v4.62c0 .09 0 .18-.13.18S18 33 18 32.93v-2.34z" transform="translate(-3.66 -4.08)"/></svg>