<svg id="Layer_1" data-name="Layer 1" xmlns="http://www.w3.org/2000/svg" viewBox="0 0 43.53 58.88"><defs><style>.cls-1{fill:#080a08}</style></defs><path class="cls-1" d="M53.75 24.38v12.88a9.22 9.22 0 0 1-.57 3.74 7.54 7.54 0 0 1-6.86 4.87c-2.19.15-4.38.06-6.58.06H18.83a9.09 9.09 0 0 1-4-.69 7.59 7.59 0 0 1-4.56-6.44 27.62 27.62 0 0 1-.06-3V24.72a7.93 7.93 0 0 1 .94-4 7.58 7.58 0 0 1 6.4-4.05c1.62-.12 3.24-.05 4.86-.05a.58.58 0 0 0 .41-.17 13.4 13.4 0 0 1 5.3-3.45 14.87 14.87 0 0 1 5.39-.55A10 10 0 0 1 38.57 14a17.76 17.76 0 0 1 3.2 2.8 10 10 0 0 1 1.9 2.74 7.21 7.21 0 0 1-.67 7.3 15.36 15.36 0 0 1-5.15 4.76 8.89 8.89 0 0 1-3.34 1 15 15 0 0 1-6.56-.5 10.73 10.73 0 0 1-3.78-2.27c-.42-.36-.84-.72-1.24-1.1a.34.34 0 0 0-.51 0 2.15 2.15 0 0 0-.81 1.4 8.21 8.21 0 0 0 0 2.57 2.36 2.36 0 0 0 1.14 1.66 4.1 4.1 0 0 0 2.16.61q7 .34 14.11.57a4.75 4.75 0 0 0 2.27-.29 4 4 0 0 0 2.27-3 57 57 0 0 0 1-6.1 109.64 109.64 0 0 0 .74-12.68 11.38 11.38 0 0 0 0-1.54 2.94 2.94 0 0 0-2.74-2.54c-2.16-.11-4.33-.07-6.49-.07h-15.4a5.16 5.16 0 0 0-4.47 2.28 10.72 10.72 0 0 0-1 2.18c-.37.9-.72 1.81-1.1 2.71a2.13 2.13 0 0 1-3 .94 1.33 1.33 0 0 1-.7-1.07v-.59c0-1.93-.08-3.87 0-5.8A7.62 7.62 0 0 1 14 3.53a7.48 7.48 0 0 1 3.59-1.1c1.7-.08 3.41 0 5.12-.05h22.83A8.21 8.21 0 0 1 50 3.55a7.61 7.61 0 0 1 3.69 5.93 18.71 18.71 0 0 1 .06 2v12.9zM32 45.38h12.1c.85 0 1.7 0 2.54-.06A7.25 7.25 0 0 0 53 40a12.35 12.35 0 0 0 .27-3.09V10.96v-1.3a7 7 0 0 0-1.11-3.39 7.22 7.22 0 0 0-6.38-3.38H19.33a12.87 12.87 0 0 0-2.63.16 7.19 7.19 0 0 0-5.84 6.74c-.1 1.91 0 3.81 0 5.72a5.32 5.32 0 0 0 .05.89.84.84 0 0 0 .43.6 1.61 1.61 0 0 0 2.24-.69c.48-1.11.93-2.22 1.36-3.34a6.91 6.91 0 0 1 1.65-2.64 5.81 5.81 0 0 1 4.1-1.49h12.56c3 0 6 0 9 .06a3.5 3.5 0 0 1 3.06 1.72 4.44 4.44 0 0 1 .51 2.28A115 115 0 0 1 44.9 27a55.37 55.37 0 0 1-1 5.71 4.36 4.36 0 0 1-4.2 3.32c-1 0-2.09 0-3.14-.08l-9-.36c-1.21-.06-2.41-.08-3.61-.23a3.39 3.39 0 0 1-2.91-2.46 8.32 8.32 0 0 1-.04-2.37 3.35 3.35 0 0 1 .26-1.09 2.07 2.07 0 0 1 1.37-1.37.36.36 0 0 1 .39.1c.45.41.91.82 1.38 1.22a10.49 10.49 0 0 0 3.6 2.2 14.46 14.46 0 0 0 6.23.55 8.71 8.71 0 0 0 3.42-1 15 15 0 0 0 4.94-4.56A6.7 6.7 0 0 0 42.8 19a14.17 14.17 0 0 0-3.3-3.65 9 9 0 0 0-3.59-2 14.79 14.79 0 0 0-5.7-.29 9.86 9.86 0 0 0-4.43 1.64 28.52 28.52 0 0 0-2.67 2.24.73.73 0 0 1-.58.22h-3a15.8 15.8 0 0 0-2.92.16 7.18 7.18 0 0 0-5.86 7c-.07 2.21 0 4.43 0 6.64 0 2.53-.08 5.06.05 7.58a7 7 0 0 0 3.33 5.76 7.52 7.52 0 0 0 4.23 1.15zM47 58.67h.74c.24 0 .23.06.23.24a2.17 2.17 0 0 1-2.22 2.3A2.29 2.29 0 0 1 43.26 59a2.39 2.39 0 0 1 1.4-2.51 2.53 2.53 0 0 1 2.8.58c.06.07.19.14.11.24a1.91 1.91 0 0 1-.38.31s-.08-.05-.11-.08a1.68 1.68 0 0 0-2-.64 1.72 1.72 0 0 0-1.24 1.54 1.83 1.83 0 0 0 2.31 2.17 1.53 1.53 0 0 0 1.14-1.23c0-.19 0-.23-.19-.22s-.59 0-.89 0-.22-.11-.22-.27 0-.26.21-.25.53.03.8.03zM36.5 53.4A2.44 2.44 0 1 1 39 51a2.43 2.43 0 0 1-2.5 2.4zm0-4.34A1.88 1.88 0 0 0 34.61 51a1.9 1.9 0 1 0 3.79 0 1.88 1.88 0 0 0-1.88-1.94zM32.37 58.75a2.48 2.48 0 1 1-2.49-2.43 2.43 2.43 0 0 1 2.49 2.43zm-.58 0a1.9 1.9 0 1 0-1.88 1.92 1.91 1.91 0 0 0 1.88-1.92zM26.23 51v-2.1c0-.13 0-.23.18-.22H28a2 2 0 0 1 2 1.9 2.74 2.74 0 0 1-.14 1.42 1.9 1.9 0 0 1-1.77 1.26H26.4c-.19 0-.17-.1-.17-.22zm.56 0v1.57c0 .19 0 .27.25.25s.65 0 1 0a1.4 1.4 0 0 0 1.39-1.18 2.53 2.53 0 0 0 .05-.95 1.49 1.49 0 0 0-1.56-1.42h-.8c-.22 0-.31 0-.3.28-.02.39-.03.89-.03 1.39zM39 57.59v3.25c0 .19-.1.21-.24.18s-.3.09-.3-.16V56.2l3.4 3.7v-1.22-2.07c0-.21.11-.2.24-.19s.29-.08.29.17v4.67zM34.54 58.89l1.73 2.16a.82.82 0 0 1-1-.34c-.37-.57-.81-1.09-1.22-1.63l-.25-.28v2.05c0 .3-.14.22-.3.23s-.26 0-.26-.24v-4.17c0-.18 0-.26.24-.25a13.39 13.39 0 0 1 1.42 0 1 1 0 0 1 .81.61 1.17 1.17 0 0 1-1 1.78zm-.72-1.22v.62c0 .09 0 .16.12.15a3.93 3.93 0 0 0 1-.07.52.52 0 0 0 .32-.24.8.8 0 0 0-.58-1.21h-.29c-.54 0-.54 0-.54.51zM20.2 58.08v1.42a1.05 1.05 0 0 0 1.14 1.18c.84 0 1.26-.31 1.3-1.11v-2.84c0-.1-.06-.25.07-.29a1.29 1.29 0 0 1 .44 0c.05 0 .05.08.05.13a30.47 30.47 0 0 1-.05 3.31 1.41 1.41 0 0 1-1.33 1.3 2.63 2.63 0 0 1-1 0 1.45 1.45 0 0 1-1.21-1.32c-.1-.82 0-1.65 0-2.48v-.57c0-.34.12-.43.46-.35.13 0 .11.12.11.21v1.45zM42.85 51v-2.08c0-.19.06-.25.25-.24h2c.21 0 .23.08.23.26s0 .25-.24.25h-1.42c-.18 0-.25 0-.25.22v.92c0 .3 0 .2.2.2h1.48c.2 0 .23.08.22.25s0 .29-.22.28h-1.42c-.2 0-.28 0-.27.25v1.28c0 .21.07.26.27.26h1.42c.25 0 .21.13.22.28s0 .24-.22.24h-2c-.18 0-.24 0-.24-.23 0-.78-.01-1.48-.01-2.14zM23.64 48.45l2.1 4.8c-.57.08-.57.08-.77-.39s-.19-.79-.47-1-.69 0-1 0c-.72 0-.72 0-1 .66a2.89 2.89 0 0 0-.18.44.43.43 0 0 1-.52.33c-.17 0-.22 0-.14-.22.63-1.51 1.28-3.07 1.98-4.62zm.73 2.92l-.73-1.69-.73 1.69zM30.94 50.93v-2c0-.21.06-.26.27-.25h1.18a1.14 1.14 0 0 1 1.17 1.24 1.16 1.16 0 0 1-1.16 1.29h-.62c-.2 0-.31 0-.3.28v1.54c0 .23-.07.26-.28.27s-.27-.07-.27-.29c.01-.7.01-1.39.01-2.08zm.54-1v.62c0 .11 0 .17.14.17a3.34 3.34 0 0 0 .94-.1.5.5 0 0 0 .36-.36.75.75 0 0 0-.67-1.06h-.29c-.48 0-.48 0-.48.44zM25.71 59v1.83c0 .25-.1.26-.29.26s-.29 0-.29-.27v-3.58c0-.21 0-.3-.27-.28s-.57 0-.86 0-.18-.14-.18-.27 0-.27.19-.27h2.81c.23 0 .18.15.18.27s0 .28-.19.27-.6 0-.89 0-.23.06-.23.23c.02.59.02 1.2.02 1.81zM19.68 51.21V49.4c0-.18 0-.24-.23-.23s-.57 0-.86 0-.22-.13-.23-.29.05-.25.24-.25h2.73c.22 0 .22.1.22.27s0 .29-.22.27-.55 0-.83 0-.27 0-.26.25v3.53a.33.33 0 0 1-.5.33c-.11-.05-.06-.14-.06-.21v-1.86zM17.73 59v1.83c0 .23-.1.23-.26.23s-.3 0-.3-.23v-3.61c0-.23-.06-.31-.29-.29s-.57 0-.86 0-.16-.16-.17-.28 0-.25.18-.25h2.81c.27 0 .17.18.18.3s0 .25-.19.24-.59 0-.89 0-.23 0-.23.23c.02.62.02 1.24.02 1.83zM39.89 51v-2.1c0-.28.15-.21.3-.22s.27 0 .27.22v3.61c0 .24.07.3.29.29h1.27c.24 0 .2.14.19.27s.05.27-.18.27H40.1c-.18 0-.2-.08-.2-.23-.01-.75-.01-1.45-.01-2.11zM37.32 58.75v2.1c0 .22-.1.24-.26.23s-.31.05-.31-.22v-4.23c0-.27.16-.2.31-.21s.26 0 .26.23c-.01.7 0 1.4 0 2.1z" transform="translate(-10.22 -2.38)"/><path d="M32 45.38H18.36a7.52 7.52 0 0 1-4.23-1.15 7 7 0 0 1-3.33-5.76c-.13-2.52 0-5-.05-7.58v-6.64a7.18 7.18 0 0 1 5.86-7 15.8 15.8 0 0 1 2.92-.16h3a.73.73 0 0 0 .58-.22 28.52 28.52 0 0 1 2.67-2.24A9.86 9.86 0 0 1 30.21 13a14.79 14.79 0 0 1 5.7.29 9 9 0 0 1 3.59 2A14.17 14.17 0 0 1 42.8 19a6.7 6.7 0 0 1-.26 7.64 15 15 0 0 1-4.94 4.56 8.71 8.71 0 0 1-3.42 1 14.46 14.46 0 0 1-6.18-.61 10.49 10.49 0 0 1-3.54-2.2c-.47-.4-.93-.81-1.38-1.22a.36.36 0 0 0-.39-.1 2.07 2.07 0 0 0-1.37 1.37 3.35 3.35 0 0 0-.32 1.09 8.32 8.32 0 0 0 .06 2.39A3.39 3.39 0 0 0 24 35.38c1.2.15 2.4.17 3.61.23l9 .36c1.05 0 2.1.06 3.14.08a4.36 4.36 0 0 0 4.2-3.32 55.37 55.37 0 0 0 1-5.71 115 115 0 0 0 .84-14.13 4.44 4.44 0 0 0-.51-2.28 3.5 3.5 0 0 0-3.06-1.72c-3-.1-6-.06-9-.06H20.66a5.81 5.81 0 0 0-4.1 1.49 6.91 6.91 0 0 0-1.7 2.68c-.43 1.12-.88 2.23-1.36 3.34a1.61 1.61 0 0 1-2.24.69.84.84 0 0 1-.43-.6 5.32 5.32 0 0 1-.05-.89c0-1.91-.09-3.81 0-5.72a7.19 7.19 0 0 1 5.84-6.74 12.87 12.87 0 0 1 2.63-.16H45.7a7.22 7.22 0 0 1 6.38 3.38 7 7 0 0 1 1.12 3.38v27.3A12.35 12.35 0 0 1 53 40a7.25 7.25 0 0 1-6.33 5.31c-.84.06-1.69.06-2.54.06H32zm10.71-25.23a1.2 1.2 0 0 0-.15-.08l-10.4-4.7a.38.38 0 0 0-.36 0l-9.71 4.38-.8.37a1.76 1.76 0 0 0 .23.12l10.05 4.56a.94.94 0 0 0 .88 0l8.7-3.93c.51-.23 1.01-.47 1.56-.72zm-3.84 2.51l-.24.1-6.31 2.85a.63.63 0 0 1-.61 0l-6.32-2.86c-.2-.09-.28-.08-.33.15-.26 1.11-.54 2.22-.81 3.33 0 .16 0 .26.14.35a15.87 15.87 0 0 0 4.52 1.32A21 21 0 0 0 34 28a16.78 16.78 0 0 0 5.61-1.45c.17-.08.21-.16.17-.33-.12-.45-.23-.9-.34-1.35-.2-.71-.39-1.45-.57-2.21zM37.5 38.19a.63.63 0 0 0-.34.12l-4.26 1.92a.27.27 0 0 1-.38-.06.65.65 0 0 0-1 0 .24.24 0 0 1-.34.07l-2.08-.94-2.56-1.15v5h.1l4.47-2c.18-.08.31-.14.48.05a.62.62 0 0 0 .92 0 .27.27 0 0 1 .38-.06l3.31 1.49 1.33.6zM21.3 22.77v1.66c0 .09-.09.28.1.27s.09-.17.09-.26V21a.12.12 0 0 0-.12-.13c-.13 0-.07.1-.07.15-.01.59 0 1.17 0 1.75zm.09 2.42a.49.49 0 0 0-.48.47.48.48 0 0 0 .95 0 .48.48 0 0 0-.47-.47z" transform="translate(-10.22 -2.38)" fill="#91cd8a"/><path class="cls-1" d="M42.71 20.15c-.55.25-1.05.49-1.56.71l-8.7 3.93a.94.94 0 0 1-.88 0l-10-4.54a1.76 1.76 0 0 1-.23-.12l.8-.37 9.71-4.38a.38.38 0 0 1 .36 0l10.4 4.7a1.2 1.2 0 0 1 .1.07z" transform="translate(-10.22 -2.38)"/><path class="cls-1" d="M38.87 22.66c.18.76.37 1.5.55 2.25.11.45.22.9.34 1.35 0 .17 0 .25-.17.33A16.78 16.78 0 0 1 34 28a21 21 0 0 1-5.07-.13 15.87 15.87 0 0 1-4.52-1.32c-.18-.09-.18-.19-.14-.35.27-1.11.55-2.22.81-3.33.05-.23.13-.24.33-.15l6.32 2.86a.63.63 0 0 0 .61 0l6.31-2.85zM37.5 38.19v5l-1.33-.6-3.31-1.49a.27.27 0 0 0-.38.06.62.62 0 0 1-.92 0c-.17-.19-.3-.13-.48-.05l-4.47 2h-.1v-5l2.56 1.15 2.08.94a.24.24 0 0 0 .34-.07.65.65 0 0 1 1 0 .27.27 0 0 0 .38.06l4.26-1.92a.63.63 0 0 1 .37-.08zM21.3 22.77v-1.74c0-.05-.06-.16.07-.15a.12.12 0 0 1 .12.13V24.44c0 .09.07.26-.09.26s-.1-.18-.1-.27v-1.66zM21.39 25.19a.48.48 0 0 1 .47.48.48.48 0 0 1-.95 0 .49.49 0 0 1 .48-.48z" transform="translate(-10.22 -2.38)"/></svg>